{
.appVersion = "939";
copyright = "Copyright (c) 2010, The Josefin Sans Project Authors (hi@typemade.mx), with Reserved Font Name Josefin";
customParameters = (
{
name = licenseURL;
value = "http://scripts.sil.org/OFL";
},
{
name = trademark;
value = "Josefin Sans is a trademark of Typemade.";
},
{
name = license;
value = "This Font Software is licensed under the SIL Open Font License, Version 1.1. This license is available with a FAQ at: http://scripts.sil.org/OFL";
},
{
name = fsType;
value = "0";
},
{
name = "Use Typo Metrics";
value = 1;
}
);
date = "2016-08-26 16:26:52 +0000";
designer = "Santiago Orozco";
designerURL = "http://www.typemade.mx";
familyName = "Josefin Sans";
featurePrefixes = (
{
automatic = 1;
code = "languagesystem DFLT dflt;\012";
name = Languagesystems;
}
);
features = (
{
automatic = 1;
code = "feature sups;\012feature frac;\012feature ordn;\012";
name = aalt;
},
{
automatic = 1;
code = "sub one by onesuperior;\012sub two by twosuperior;\012sub three by threesuperior;\012";
name = sups;
},
{
automatic = 1;
code = "sub one slash four by onequarter;\012sub one slash two by onehalf;\012sub three slash four by threequarters;\012";
name = frac;
},
{
automatic = 1;
code = "sub [zero one two three four five six seven eight nine] [A a]' by ordfeminine;\012sub [zero one two three four five six seven eight nine] [O o]' by ordmasculine;\012";
name = ordn;
},
{
automatic = 1;
code = "sub f i by fi;\012sub f l by fl;\012";
name = liga;
}
);
fontMaster = (
{
alignmentZones = (
"{700, 32}",
"{375, 5}",
"{0, -7}",
"{-250, 0}"
);
ascender = 750;
capHeight = 700;
customParameters = (
{
name = typoDescender;
value = -250;
},
{
name = typoLineGap;
value = 0;
},
{
name = hheaLineGap;
value = 0;
},
{
name = hheaAscender;
value = 750;
},
{
name = typoAscender;
value = 750;
},
{
name = hheaDescender;
value = -250;
},
{
name = winDescent;
value = 271;
},
{
name = winAscent;
value = 991;
}
);
descender = -250;
horizontalStems = (
126,
24,
217
);
id = UUID0;

glyphs = (
{
glyphname = A;
lastChange = "2016-12-06 17:44:33 +0000";
layers = (
{
anchors = (
{
name = bottom;
position = "{332, 0}";
},
{
name = ogonek;
position = "{616, 10}";
},
{
name = top;
position = "{426, 726}";
}
);
hints = (
{
horizontal = 1;
place = "{0, 21}";
target = up;
type = BottomGhost;
},
{
horizontal = 1;
place = "{732, -20}";
target = down;
type = TopGhost;
}
);
layerId = UUID0;
paths = (
{
closed = 1;
nodes = (
"424 708 LINE",
"415 708 LINE",
"607 0 LINE",
"622 0 LINE",
"423 732 LINE",
"421 732 LINE",
"42 0 LINE",
"57 0 LINE"
);
},
{
closed = 1;
nodes = (
"191 268 LINE",
"540 268 LINE",
"542 281 LINE",
"193 281 LINE"
);
}
);
width = 710;
},
{
anchors = (
{
name = bottom;
position = "{333, 0}";
},
{
name = ogonek;
position = "{627, 10}";
},
{
name = top;
position = "{408, 745}";
}
);
hints = (
{
horizontal = 1;
place = "{0, 21}";
target = up;
type = BottomGhost;
},
{
horizontal = 1;
place = "{732, -20}";
target = down;
type = TopGhost;
}
);
layerId = UUID1;
paths = (
{
closed = 1;
nodes = (
"453 610 LINE",
"339 538 LINE",
"485 0 LINE",
"653 0 LINE",
"415 765 LINE",
"407 765 LINE",
"-19 0 LINE",
"124 0 LINE"
);
},
{
closed = 1;
nodes = (
"181 144 LINE",
"498 144 LINE",
"462 266 LINE",
"241 266 LINE"
);
}
);
width = 696;
}
);
unicode = 0041;
},
{
glyphname = AE;
lastChange = "2016-12-06 17:45:49 +0000";
layers = (
{
anchors = (
{
name = bottom;
position = "{438, 0}";
},
{
name = top;
position = "{655, 700}";
}
);
hints = (
{
horizontal = 1;
place = "{0, 21}";
target = up;
type = BottomGhost;
},
{
horizontal = 1;
place = "{700, -20}";
target = down;
type = TopGhost;
}
);
layerId = UUID0;
paths = (
{
closed = 1;
nodes = (
"439 0 LINE",
"818 0 LINE",
"820 14 LINE",
"455 14 LINE",
"496 346 LINE",
"808 346 LINE",
"809 360 LINE",
"497 360 LINE",
"537 686 LINE",
"888 686 LINE",
"890 700 LINE",
"525 700 LINE"
);
},
{
closed = 1;
nodes = (
"525 700 LINE",
"2 0 LINE",
"17 0 LINE",
"526 675 LINE",
"530 683 OFFCURVE",
"534 692 OFFCURVE",
"538 700 CURVE"
);
},
{
closed = 1;
nodes = (
"164 208 LINE",
"473 208 LINE",
"474 222 LINE",
"165 222 LINE"
);
}
);
width = 921;
},
{
anchors = (
{
name = bottom;
position = "{421, 0}";
},
{
name = top;
position = "{708, 736}";
}
);
hints = (
{
horizontal = 1;
place = "{0, 21}";
target = up;
type = BottomGhost;
},
{
horizontal = 1;
place = "{700, -20}";
target = down;
type = TopGhost;
}
);
layerId = UUID1;
paths = (
{
closed = 1;
nodes = (
"459 0 LINE",
"885 0 LINE",
"902 140 LINE",
"621 140 LINE",
"640 297 LINE",
"866 297 LINE",
"883 437 LINE",
"657 437 LINE",
"677 596 LINE",
"944 596 LINE",
"961 736 LINE",
"549 736 LINE"
);
},
{
closed = 1;
nodes = (
"549 736 LINE",
"-22 0 LINE",
"146 0 LINE",
"527 524 LINE",
"527 524 OFFCURVE",
"538 550 OFFCURVE",
"543 565 CURVE"
);
},
{
closed = 1;
nodes = (
"220 161 LINE",
"496 161 LINE",
"510 276 LINE",
"279 276 LINE"
);
}
);
width = 971;
}
);
rightMetricsKey = E;
unicode = 00C6;
},
{
glyphname = B;
lastChange = "2016-12-07 21:56:32 +0000";
layers = (
{
anchors = (
{
name = bottom;
position = "{262, 0}";
},
{
name = top;
position = "{328, 700}";
}
);
hints = (
{
place = "{418, 41}";
},
{
horizontal = 1;
place = "{0, 21}";
target = up;
type = BottomGhost;
},
{
horizontal = 1;
place = "{700, -20}";
target = down;
type = TopGhost;
}
);
layerId = UUID0;
paths = (
{
closed = 1;
nodes = (
"183 700 LINE",
"97 0 LINE",
"280 0 LINE SMOOTH",
"412 0 OFFCURVE",
"495 70 OFFCURVE",
"495 201 CURVE SMOOTH",
"495 285 OFFCURVE",
"431 341 OFFCURVE",
"354 353 CURVE",
"353 349 LINE",
"467 370 OFFCURVE",
"501 477 OFFCURVE",
"501 558 CURVE SMOOTH",
"501 659 OFFCURVE",
"437 700 OFFCURVE",
"318 700 CURVE SMOOTH"
);
},
{
closed = 1;
nodes = (
"155 357 LINE",
"195 687 LINE",
"317 687 LINE SMOOTH",
"427 687 OFFCURVE",
"487 649 OFFCURVE",
"487 553 CURVE SMOOTH",
"487 500 OFFCURVE",
"468 357 OFFCURVE",
"309 357 CURVE SMOOTH"
);
},
{
closed = 1;
nodes = (
"113 13 LINE",
"153 344 LINE",
"309 344 LINE SMOOTH",
"388 344 OFFCURVE",
"481 299 OFFCURVE",
"481 198 CURVE SMOOTH",
"481 107 OFFCURVE",
"430 13 OFFCURVE",
"281 13 CURVE SMOOTH"
);
}
);
width = 574;
},
{
anchors = (
{
name = bottom;
position = "{288, 0}";
},
{
name = top;
position = "{288, 700}";
}
);
hints = (
{
place = "{377, 108}";
},
{
horizontal = 1;
place = "{0, 21}";
target = up;
type = BottomGhost;
},
{
horizontal = 1;
place = "{700, -20}";
target = down;
type = TopGhost;
}
);
layerId = UUID1;
paths = (
{
closed = 1;
nodes = (
"155 736 LINE",
"65 0 LINE",
"310 0 LINE SMOOTH",
"448 0 OFFCURVE",
"587 64 OFFCURVE",
"587 227 CURVE SMOOTH",
"587 321 OFFCURVE",
"525 364 OFFCURVE",
"464 379 CURVE",
"469 374 LINE",
"564 402 OFFCURVE",
"595 492 OFFCURVE",
"595 570 CURVE SMOOTH",
"595 689 OFFCURVE",
"509 736 OFFCURVE",
"371 736 CURVE SMOOTH"
);
},
{
closed = 1;
nodes = (
"268 435 LINE",
"289 601 LINE",
"357 601 LINE SMOOTH",
"409 601 OFFCURVE",
"442 577 OFFCURVE",
"442 531 CURVE SMOOTH",
"442 483 OFFCURVE",
"409 435 OFFCURVE",
"346 435 CURVE SMOOTH"
);
},
{
closed = 1;
nodes = (
"232 135 LINE",
"253 309 LINE",
"326 309 LINE SMOOTH",
"384 309 OFFCURVE",
"440 293 OFFCURVE",
"440 234 CURVE SMOOTH",
"440 168 OFFCURVE",
"384 135 OFFCURVE",
"315 135 CURVE SMOOTH"
);
}
);
width = 645;
}
);
leftMetricsKey = H;
rightMetricsKey = O;
unicode = 0042;
},
{
glyphname = C;
lastChange = "2016-12-11 01:07:07 +0000";
layers = (
{
anchors = (
{
name = bottom;
position = "{424, -4}";
},
{
name = top;
position = "{463, 700}";
}
);
hints = (
{
horizontal = 1;
place = "{708, -20}";
target = down;
type = TopGhost;
},
{
horizontal = 1;
place = "{-8, 21}";
target = up;
type = BottomGhost;
}
);
layerId = UUID0;
paths = (
{
closed = 1;
nodes = (
"591 40 LINE",
"542 17 OFFCURVE",
"487 1 OFFCURVE",
"430 1 CURVE SMOOTH",
"254 1 OFFCURVE",
"109 129 OFFCURVE",
"109 317 CURVE SMOOTH",
"109 481 OFFCURVE",
"204 689 OFFCURVE",
"475 689 CURVE SMOOTH",
"547 689 OFFCURVE",
"614 667 OFFCURVE",
"666 629 CURVE",
"675 640 LINE",
"619 679 OFFCURVE",
"551 702 OFFCURVE",
"477 702 CURVE SMOOTH",
"196 702 OFFCURVE",
"95 481 OFFCURVE",
"95 317 CURVE SMOOTH",
"95 138 OFFCURVE",
"224 -12 OFFCURVE",
"431 -12 CURVE SMOOTH",
"493 -12 OFFCURVE",
"548 3 OFFCURVE",
"599 28 CURVE"
);
}
);
width = 697;
},
{
anchors = (
{
name = bottom;
position = "{433, 0}";
},
{
name = top;
position = "{449, 728}";
}
);
hints = (
{
horizontal = 1;
place = "{708, -20}";
target = down;
type = TopGhost;
},
{
horizontal = 1;
place = "{-8, 21}";
target = up;
type = BottomGhost;
}
);
layerId = UUID1;
paths = (
{
closed = 1;
nodes = (
"584 177 LINE",
"561 163 OFFCURVE",
"511 128 OFFCURVE",
"426 128 CURVE SMOOTH",
"297 128 OFFCURVE",
"220 215 OFFCURVE",
"220 340 CURVE SMOOTH",
"220 500 OFFCURVE",
"318 609 OFFCURVE",
"462 600 CURVE",
"533 595 OFFCURVE",
"586 557 OFFCURVE",
"615 530 CURVE",
"689 663 LINE",
"641 699 OFFCURVE",
"558 741 OFFCURVE",
"448 741 CURVE SMOOTH",
"153 741 OFFCURVE",
"68 500 OFFCURVE",
"68 329 CURVE SMOOTH",
"68 47 OFFCURVE",
"297 -13 OFFCURVE",
"420 -13 CURVE SMOOTH",
"520 -13 OFFCURVE",
"603 26 OFFCURVE",
"628 43 CURVE"
);
}
);
width = 700;
}
);
leftMetricsKey = O;
rightMetricsKey = O;
unicode = 0043;
},
{
glyphname = D;
lastChange = "2016-12-12 21:03:12 +0000";
layers = (
{
anchors = (
{
name = bottom;
position = "{340, 0}";
},
{
name = center;
position = "{145, 350}";
},
{
name = top;
position = "{401, 700}";
}
);
hints = (
{
horizontal = 1;
place = "{0, 21}";
target = up;
type = BottomGhost;
},
{
horizontal = 1;
place = "{700, -20}";
target = down;
type = TopGhost;
}
);
layerId = UUID0;
paths = (
{
closed = 1;
nodes = (
"274 0 LINE SMOOTH",
"501 0 OFFCURVE",
"672 134 OFFCURVE",
"672 387 CURVE SMOOTH",
"672 554 OFFCURVE",
"592 700 OFFCURVE",
"326 700 CURVE SMOOTH",
"183 700 LINE",
"97 0 LINE"
);
},
{
closed = 1;
nodes = (
"195 685 LINE",
"333 685 LINE SMOOTH",
"583 685 OFFCURVE",
"658 543 OFFCURVE",
"658 385 CURVE SMOOTH",
"658 141 OFFCURVE",
"487 14 OFFCURVE",
"282 14 CURVE",
"113 14 LINE"
);
}
);
width = 729;
},
{
anchors = (
{
name = bottom;
position = "{356, 0}";
},
{
name = center;
position = "{191, 350}";
},
{
name = top;
position = "{396, 700}";
}
);
hints = (
{
horizontal = 1;
place = "{79, 21}";
target = up;
type = BottomGhost;
},
{
horizontal = 1;
place = "{622, -20}";
target = down;
type = TopGhost;
}
);
layerId = UUID1;
paths = (
{
closed = 1;
nodes = (
"321 0 LINE",
"521 0 OFFCURVE",
"708 136 OFFCURVE",
"734 355 CURVE",
"757 540 OFFCURVE",
"672 736 OFFCURVE",
"375 736 CURVE",
"155 736 LINE",
"65 0 LINE"
);
},
{
closed = 1;
nodes = (
"283 597 LINE",
"401 597 LINE",
"468 597 OFFCURVE",
"609 557 OFFCURVE",
"586 365 CURVE",
"568 217 OFFCURVE",
"460 140 OFFCURVE",
"313 140 CURVE",
"227 140 LINE"
);
}
);
width = 774;
}
);
leftMetricsKey = H;
rightMetricsKey = O;
unicode = 0044;
},
{
glyphname = E;
lastChange = "2016-12-12 20:05:48 +0000";
layers = (
{
anchors = (
{
name = bottom;
position = "{292, 0}";
},
{
name = ogonek;
position = "{522, 10}";
},
{
name = top;
position = "{378, 700}";
},
{
name = topleft;
position = "{83, 700}";
}
);
hints = (
{
horizontal = 1;
place = "{0, 21}";
target = up;
type = BottomGhost;
},
{
horizontal = 1;
place = "{700, -20}";
target = down;
type = TopGhost;
}
);
layerId = UUID0;
paths = (
{
closed = 1;
nodes = (
"97 0 LINE",
"526 0 LINE",
"528 14 LINE",
"113 14 LINE",
"153 346 LINE",
"515 346 LINE",
"517 360 LINE",
"155 360 LINE",
"195 686 LINE",
"596 686 LINE",
"598 700 LINE",
"183 700 LINE"
);
}
);
width = 629;
},
{
anchors = (
{
name = bottom;
position = "{360, 0}";
},
{
name = ogonek;
position = "{554, 10}";
},
{
name = top;
position = "{397, 730}";
},
{
name = topleft;
position = "{3, 700}";
}
);
hints = (
{
horizontal = 1;
place = "{0, 21}";
target = up;
type = BottomGhost;
},
{
horizontal = 1;
place = "{700, -20}";
target = down;
type = TopGhost;
}
);
layerId = UUID1;
paths = (
{
closed = 1;
nodes = (
"65 0 LINE",
"581 0 LINE",
"598 139 LINE",
"232 139 LINE",
"252 299 LINE",
"563 299 LINE",
"580 437 LINE",
"269 437 LINE",
"289 601 LINE",
"641 601 LINE",
"657 736 LINE",
"155 736 LINE"
);
}
);
width = 667;
}
);
leftMetricsKey = H;
unicode = 0045;
},
{
glyphname = F;
lastChange = "2016-12-02 14:44:29 +0000";
layers = (
{
anchors = (
{
name = bottom;
position = "{262, 0}";
},
{
name = top;
position = "{348, 700}";
}
);
hints = (
{
horizontal = 1;
place = "{0, 21}";
target = up;
type = BottomGhost;
},
{
horizontal = 1;
place = "{700, -20}";
target = down;
type = TopGhost;
}
);
layerId = UUID0;
paths = (
{
closed = 1;
nodes = (
"97 0 LINE",
"111 0 LINE",
"152 336 LINE",
"474 336 LINE",
"476 350 LINE",
"154 350 LINE",
"195 686 LINE",
"556 686 LINE",
"558 700 LINE",
"183 700 LINE"
);
}
);
width = 570;
},
{
anchors = (
{
name = bottom;
position = "{275, 0}";
},
{
name = top;
position = "{360, 700}";
}
);
hints = (
{
horizontal = 1;
place = "{0, 21}";
target = up;
type = BottomGhost;
},
{
horizontal = 1;
place = "{700, -20}";
target = down;
type = TopGhost;
}
);
layerId = UUID1;
paths = (
{
closed = 1;
nodes = (
"65 0 LINE",
"215 0 LINE",
"250 289 LINE",
"518 289 LINE",
"536 428 LINE",
"268 428 LINE",
"288 598 LINE",
"598 598 LINE",
"615 736 LINE",
"155 736 LINE"
);
}
);
width = 600;
}
);
leftMetricsKey = H;
unicode = 0046;
},
{
glyphname = G;
lastChange = "2016-12-12 20:50:13 +0000";
layers = (
{
anchors = (
{
name = bottom;
position = "{377, 0}";
},
{
name = top;
position = "{453, 700}";
}
);
background = {
paths = (
{
closed = 1;
nodes = (
"652 295 LINE",
"465 295 LINE",
"463 282 LINE",
"636 282 LINE",
"606 36 LINE",
"552 11 OFFCURVE",
"472 -1 OFFCURVE",
"410 2 CURVE SMOOTH",
"221 14 OFFCURVE",
"109 150 OFFCURVE",
"109 317 CURVE SMOOTH",
"109 332 OFFCURVE",
"110 348 OFFCURVE",
"112 364 CURVE SMOOTH",
"134 546 OFFCURVE",
"295 689 OFFCURVE",
"475 689 CURVE SMOOTH",
"547 689 OFFCURVE",
"614 667 OFFCURVE",
"666 629 CURVE",
"675 640 LINE",
"619 679 OFFCURVE",
"551 702 OFFCURVE",
"477 702 CURVE SMOOTH",
"289 702 OFFCURVE",
"122 556 OFFCURVE",
"98 366 CURVE SMOOTH",
"96 349 OFFCURVE",
"95 333 OFFCURVE",
"95 317 CURVE SMOOTH",
"95 136 OFFCURVE",
"223 -12 OFFCURVE",
"434 -12 CURVE SMOOTH",
"497 -12 OFFCURVE",
"568 2 OFFCURVE",
"619 27 CURVE"
);
}
);
};
hints = (
{
horizontal = 1;
place = "{708, -20}";
target = down;
type = TopGhost;
},
{
horizontal = 1;
place = "{-8, 21}";
target = up;
type = BottomGhost;
}
);
layerId = UUID0;
paths = (
{
closed = 1;
nodes = (
"652 295 LINE",
"465 295 LINE",
"463 282 LINE",
"636 282 LINE",
"606 36 LINE",
"552 11 OFFCURVE",
"472 -1 OFFCURVE",
"410 2 CURVE SMOOTH",
"221 14 OFFCURVE",
"109 150 OFFCURVE",
"109 317 CURVE SMOOTH",
"109 457 OFFCURVE",
"205 689 OFFCURVE",
"475 689 CURVE SMOOTH",
"547 689 OFFCURVE",
"614 667 OFFCURVE",
"666 629 CURVE",
"675 640 LINE",
"619 679 OFFCURVE",
"551 702 OFFCURVE",
"477 702 CURVE SMOOTH",
"198 702 OFFCURVE",
"95 467 OFFCURVE",
"95 317 CURVE SMOOTH",
"95 136 OFFCURVE",
"223 -12 OFFCURVE",
"434 -12 CURVE SMOOTH",
"497 -12 OFFCURVE",
"568 2 OFFCURVE",
"619 27 CURVE"
);
}
);
width = 739;
},
{
anchors = (
{
name = bottom;
position = "{390, 0}";
},
{
name = top;
position = "{473, 740}";
}
);
hints = (
{
horizontal = 1;
place = "{708, -20}";
target = down;
type = TopGhost;
},
{
horizontal = 1;
place = "{-8, 21}";
target = up;
type = BottomGhost;
}
);
layerId = UUID1;
paths = (
{
closed = 1;
nodes = (
"711 382 LINE",
"436 382 LINE",
"419 243 LINE",
"546 243 LINE",
"535 147 LINE",
"509 134 OFFCURVE",
"473 131 OFFCURVE",
"432 134 CURVE",
"289 143 OFFCURVE",
"198 232 OFFCURVE",
"215 370 CURVE",
"235 528 OFFCURVE",
"332 602 OFFCURVE",
"491 592 CURVE",
"538 589 OFFCURVE",
"615 561 OFFCURVE",
"649 539 CURVE",
"713 671 LINE",
"662 704 OFFCURVE",
"585 733 OFFCURVE",
"490 738 CURVE",
"289 751 OFFCURVE",
"97 634 OFFCURVE",
"64 367 CURVE",
"39 162 OFFCURVE",
"171 4 OFFCURVE",
"410 -10 CURVE",
"500 -16 OFFCURVE",
"632 21 OFFCURVE",
"672 56 CURVE"
);
}
);
width = 766;
}
);
leftMetricsKey = O;
unicode = 0047;
},
{
glyphname = H;
lastChange = "2016-12-12 21:09:52 +0000";
layers = (
{
anchors = (
{
name = bottom;
position = "{343, 0}";
},
{
name = center;
position = "{386, 350}";
},
{
name = top;
position = "{429, 700}";
},
{
name = topleft;
position = "{83, 700}";
}
);
hints = (
{
horizontal = 1;
place = "{0, 21}";
target = up;
type = BottomGhost;
},
{
horizontal = 1;
place = "{700, -20}";
target = down;
type = TopGhost;
}
);
layerId = UUID0;
paths = (
{
closed = 1;
nodes = (
"661 700 LINE",
"619 359 LINE",
"155 359 LINE",
"197 700 LINE",
"183 700 LINE",
"97 0 LINE",
"111 0 LINE",
"154 346 LINE",
"618 346 LINE",
"575 0 LINE",
"589 0 LINE",
"675 700 LINE"
);
}
);
width = 732;
},
{
anchors = (
{
name = bottom;
position = "{373, 0}";
},
{
name = center;
position = "{413, 360}";
},
{
name = top;
position = "{453, 740}";
},
{
name = topleft;
position = "{-58, 700}";
}
);
hints = (
{
horizontal = 1;
place = "{0, 21}";
target = up;
type = BottomGhost;
},
{
horizontal = 1;
place = "{700, -20}";
target = down;
type = TopGhost;
}
);
layerId = UUID1;
paths = (
{
closed = 1;
nodes = (
"624 736 LINE",
"588 441 LINE",
"269 441 LINE",
"305 736 LINE",
"155 736 LINE",
"65 0 LINE",
"215 0 LINE",
"252 299 LINE",
"571 299 LINE",
"534 0 LINE",
"684 0 LINE",
"774 736 LINE"
);
}
);
width = 810;
}
);
unicode = 0048;
},
{
glyphname = Hbar;
lastChange = "2016-12-12 22:23:04 +0000";
layers = (
{
components = (
{
name = H;
}
);
hints = (
{
horizontal = 1;
place = "{492, 21}";
target = up;
type = BottomGhost;
},
{
horizontal = 1;
place = "{506, -20}";
target = down;
type = TopGhost;
}
);
layerId = UUID0;
paths = (
{
closed = 1;
nodes = (
"82 492 LINE",
"732 492 LINE",
"734 506 LINE",
"84 506 LINE"
);
}
);
width = 774;
},
{
components = (
{
name = H;
transform = "{1, 0, 0, 1, 67, 0}";
}
);
hints = (
{
horizontal = 1;
place = "{478, 21}";
target = up;
type = BottomGhost;
},
{
horizontal = 1;
place = "{531, -20}";
target = down;
type = TopGhost;
}
);
layerId = UUID1;
paths = (
{
closed = 1;
nodes = (
"130 529 LINE",
"905 529 LINE",
"914 606 LINE",
"139 606 LINE"
);
}
);
width = 966;
}
);
leftMetricsKey = H;
rightMetricsKey = H;
unicode = 0126;
},
{
glyphname = I;
lastChange = "2016-12-06 17:49:13 +0000";
layers = (
{
anchors = (
{
name = bottom;
position = "{104, 0}";
},
{
name = ogonek;
position = "{109, 10}";
},
{
name = top;
position = "{190, 700}";
},
{
name = topleft;
position = "{83, 700}";
}
);
hints = (
{
horizontal = 1;
place = "{0, 21}";
target = up;
type = BottomGhost;
},
{
horizontal = 1;
place = "{700, -20}";
target = down;
type = TopGhost;
}
);
layerId = UUID0;
paths = (
{
closed = 1;
nodes = (
"97 0 LINE",
"111 0 LINE",
"197 700 LINE",
"183 700 LINE"
);
}
);
width = 254;
},
{
anchors = (
{
name = bottom;
position = "{137, 0}";
},
{
name = ogonek;
position = "{215, 0}";
},
{
name = top;
position = "{227, 730}";
},
{
name = topleft;
position = "{-8, 700}";
}
);
hints = (
{
horizontal = 1;
place = "{0, 21}";
target = up;
type = BottomGhost;
},
{
horizontal = 1;
place = "{700, -20}";
target = down;
type = TopGhost;
}
);
layerId = UUID1;
paths = (
{
closed = 1;
nodes = (
"65 0 LINE",
"215 0 LINE",
"305 736 LINE",
"155 736 LINE"
);
}
);
width = 341;
}
);
leftMetricsKey = H;
rightMetricsKey = H;
unicode = 0049;
},
{
glyphname = Iogonek;
lastChange = "2016-12-12 21:11:59 +0000";
layers = (
{
hints = (
{
horizontal = 1;
place = "{0, 21}";
target = up;
type = BottomGhost;
},
{
horizontal = 1;
place = "{700, -20}";
target = down;
type = TopGhost;
}
);
layerId = UUID0;
paths = (
{
closed = 1;
nodes = (
"110 -184 OFFCURVE",
"137 -159 OFFCURVE",
"150 -131 CURVE",
"139 -125 LINE",
"125 -150 OFFCURVE",
"104 -170 OFFCURVE",
"78 -170 CURVE",
"50 -170 OFFCURVE",
"23 -146 OFFCURVE",
"23 -109 CURVE",
"23 -71 OFFCURVE",
"56 -33 OFFCURVE",
"111 0 CURVE",
"197 700 LINE",
"183 700 LINE",
"97 0 LINE",
"107 14 LINE",
"55 -13 OFFCURVE",
"8 -58 OFFCURVE",
"8 -109 CURVE",
"8 -154 OFFCURVE",
"41 -184 OFFCURVE",
"77 -184 CURVE"
);
}
);
width = 254;
},
{
hints = (
{
horizontal = 1;
place = "{0, 21}";
target = up;
type = BottomGhost;
},
{
horizontal = 1;
place = "{700, -20}";
target = down;
type = TopGhost;
}
);
layerId = UUID1;
paths = (
{
closed = 1;
nodes = (
"143 -235 OFFCURVE",
"205 -208 OFFCURVE",
"241 -165 CURVE",
"200 -91 LINE",
"174 -122 OFFCURVE",
"149 -137 OFFCURVE",
"122 -135 CURVE",
"99 -134 OFFCURVE",
"79 -124 OFFCURVE",
"83 -90 CURVE SMOOTH",
"88 -48 OFFCURVE",
"140 -26 OFFCURVE",
"215 0 CURVE",
"305 736 LINE",
"155 736 LINE",
"65 0 LINE",
"71 25 LINE",
"-8 -2 OFFCURVE",
"-33 -72 OFFCURVE",
"-33 -111 CURVE SMOOTH",
"-33 -180 OFFCURVE",
"22 -227 OFFCURVE",
"97 -232 CURVE"
);
}
);
width = 330;
}
);
unicode = 012E;
},
{
glyphname = J;
lastChange = "2016-12-07 15:39:42 +0000";
layers = (
{
anchors = (
{
name = bottom;
position = "{123, 0}";
},
{
name = top;
position = "{245, 700}";
}
);
hints = (
{
horizontal = 1;
place = "{-142, 21}";
target = up;
type = BottomGhost;
},
{
horizontal = 1;
place = "{700, -20}";
target = down;
type = TopGhost;
}
);
layerId = UUID0;
paths = (
{
closed = 1;
nodes = (
"248 700 LINE",
"235 700 LINE",
"160 93 LINE SMOOTH",
"144 -42 OFFCURVE",
"60 -123 OFFCURVE",
"-38 -128 CURVE",
"-40 -142 LINE",
"-40 -142 LINE",
"61 -138 OFFCURVE",
"155 -58 OFFCURVE",
"173 90 CURVE SMOOTH"
);
}
);
width = 305;
},
{
anchors = (
{
name = bottom;
position = "{175, 0}";
},
{
name = top;
position = "{286, 736}";
}
);
hints = (
{
horizontal = 1;
place = "{-144, 21}";
target = up;
type = BottomGhost;
},
{
horizontal = 1;
place = "{700, -20}";
target = down;
type = TopGhost;
}
);
layerId = UUID1;
paths = (
{
closed = 1;
nodes = (
"368 736 LINE",
"222 736 LINE",
"152 158 LINE SMOOTH",
"137 38 OFFCURVE",
"68 -7 OFFCURVE",
"-23 -12 CURVE",
"-40 -153 LINE",
"-40 -153 LINE",
"137 -148 OFFCURVE",
"274 -37 OFFCURVE",
"297 155 CURVE SMOOTH"
);
}
);
width = 404;
}
);
rightMetricsKey = H;
unicode = 004A;
},
{
glyphname = K;
lastChange = "2016-12-12 21:12:55 +0000";
layers = (
{
anchors = (
{
name = bottom;
position = "{296, 0}";
},
{
name = top;
position = "{382, 700}";
}
);
hints = (
{
horizontal = 1;
place = "{0, 21}";
target = up;
type = BottomGhost;
},
{
horizontal = 1;
place = "{701, -20}";
target = down;
type = TopGhost;
},
{
horizontal = 1;
place = "{700, -20}";
target = down;
type = TopGhost;
}
);
layerId = UUID0;
paths = (
{
closed = 1;
nodes = (
"197 700 LINE",
"183 700 LINE",
"97 0 LINE",
"111 0 LINE",
"149 316 LINE",
"265 414 LINE",
"542 0 LINE",
"560 0 LINE",
"277 424 LINE",
"601 700 LINE",
"583 700 LINE",
"146 328 LINE",
"150 326 LINE",
"155 360 LINE"
);
}
);
width = 638;
},
{
anchors = (
{
name = bottom;
position = "{324, 0}";
},
{
name = top;
position = "{415, 736}";
}
);
hints = (
{
horizontal = 1;
place = "{0, 21}";
target = up;
type = BottomGhost;
},
{
horizontal = 1;
place = "{700, -20}";
target = down;
type = TopGhost;
},
{
horizontal = 1;
place = "{700, -20}";
target = down;
type = TopGhost;
}
);
layerId = UUID1;
paths = (
{
closed = 1;
nodes = (
"302 736 LINE",
"155 736 LINE",
"65 0 LINE",
"212 0 LINE",
"246 278 LINE",
"286 314 LINE",
"475 0 LINE",
"659 0 LINE",
"404 406 LINE",
"748 736 LINE",
"560 736 LINE",
"287 465 LINE",
"261 437 LINE",
"270 474 LINE"
);
}
);
width = 701;
}
);
leftMetricsKey = H;
unicode = 004B;
},
{
glyphname = L;
lastChange = "2016-12-07 15:39:52 +0000";
layers = (
{
anchors = (
{
name = bottom;
position = "{304, 0}";
},
{
name = center;
position = "{544, 350}";
},
{
name = top;
position = "{183, 700}";
},
{
name = topright;
position = "{600, 700}";
}
);
hints = (
{
horizontal = 1;
place = "{0, 21}";
target = up;
type = BottomGhost;
},
{
horizontal = 1;
place = "{700, -20}";
target = down;
type = TopGhost;
}
);
layerId = UUID0;
paths = (
{
closed = 1;
nodes = (
"97 0 LINE",
"516 0 LINE",
"518 14 LINE",
"113 14 LINE",
"197 700 LINE",
"183 700 LINE"
);
}
);
width = 557;
},
{
anchors = (
{
name = bottom;
position = "{298, 0}";
},
{
name = center;
position = "{343, 368}";
},
{
name = top;
position = "{227, 756}";
},
{
name = topright;
position = "{671, 736}";
}
);
hints = (
{
horizontal = 1;
place = "{0, 21}";
target = up;
type = BottomGhost;
},
{
horizontal = 1;
place = "{700, -20}";
target = down;
type = TopGhost;
}
);
layerId = UUID1;
paths = (
{
closed = 1;
nodes = (
"65 0 LINE",
"556 0 LINE",
"573 140 LINE",
"227 140 LINE",
"300 736 LINE",
"155 736 LINE"
);
}
);
width = 638;
}
);
leftMetricsKey = H;
unicode = 004C;
},
{
glyphname = Lslash;
lastChange = "2016-08-26 20:41:54 +0000";
layers = (
{
components = (
{
name = L;
}
);
hints = (
{
horizontal = 1;
place = "{179, 21}";
target = up;
type = BottomGhost;
},
{
horizontal = 1;
place = "{193, -20}";
target = down;
type = TopGhost;
}
);
layerId = UUID0;
paths = (
{
closed = 1;
nodes = (
"59 293 LINE",
"57 279 LINE",
"385 394 LINE",
"387 408 LINE"
);
}
);
width = 550;
},
{
components = (
{
name = L;
}
);
hints = (
{
horizontal = 1;
place = "{327, 21}";
target = up;
type = BottomGhost;
},
{
horizontal = 1;
place = "{408, -20}";
target = down;
type = TopGhost;
}
);
layerId = UUID1;
paths = (
{
closed = 1;
nodes = (
"58 346 LINE",
"43 225 LINE",
"484 351 LINE",
"499 472 LINE"
);
}
);
width = 640;
}
);
unicode = 0141;
},
{
glyphname = M;
lastChange = "2016-12-07 22:01:38 +0000";
layers = (
{
anchors = (
{
name = bottom;
position = "{424, 0}";
},
{
name = top;
position = "{510, 700}";
}
);
hints = (
{
horizontal = 1;
place = "{0, 21}";
target = up;
type = BottomGhost;
},
{
horizontal = 1;
place = "{732, -20}";
target = down;
type = TopGhost;
}
);
layerId = UUID0;
paths = (
{
closed = 1;
nodes = (
"194 675 LINE",
"192 670 LINE",
"451 230 LINE",
"453 230 LINE",
"820 670 LINE",
"818 675 LINE",
"735 0 LINE",
"749 0 LINE",
"837 711 LINE",
"836 711 LINE",
"448 244 LINE",
"458 244 LINE",
"186 711 LINE",
"185 711 LINE",
"97 0 LINE",
"111 0 LINE"
);
}
);
width = 893;
},
{
anchors = (
{
name = bottom;
position = "{461, 0}";
},
{
name = top;
position = "{501, 700}";
}
);
hints = (
{
horizontal = 1;
place = "{0, 21}";
target = up;
type = BottomGhost;
},
{
horizontal = 1;
place = "{732, -20}";
target = down;
type = TopGhost;
}
);
layerId = UUID1;
paths = (
{
closed = 1;
nodes = (
"257 433 LINE",
"224 364 LINE",
"436 10 LINE",
"438 10 LINE",
"731 364 LINE",
"731 439 LINE",
"677 0 LINE",
"822 0 LINE",
"916 766 LINE",
"914 766 LINE",
"437 200 LINE",
"497 186 LINE",
"159 766 LINE",
"158 766 LINE",
"64 0 LINE",
"204 0 LINE"
);
}
);
width = 948;
}
);
leftMetricsKey = H;
rightMetricsKey = H;
unicode = 004D;
},
{
glyphname = N;
lastChange = "2016-12-07 22:08:29 +0000";
layers = (
{
anchors = (
{
name = bottom;
position = "{383, 0}";
},
{
name = top;
position = "{469, 700}";
}
);
hints = (
{
horizontal = 1;
place = "{732, -20}";
target = down;
type = TopGhost;
},
{
horizontal = 1;
place = "{-32, 21}";
target = up;
type = BottomGhost;
}
);
layerId = UUID0;
paths = (
{
closed = 1;
nodes = (
"754 700 LINE",
"740 700 LINE",
"656 16 LINE",
"666 14 LINE",
"185 711 LINE",
"184 711 LINE",
"97 0 LINE",
"111 0 LINE",
"195 686 LINE",
"190 676 LINE",
"666 -12 LINE",
"667 -12 LINE"
);
}
);
width = 811;
},
{
anchors = (
{
name = bottom;
position = "{411, 0}";
},
{
name = top;
position = "{473, 700}";
}
);
hints = (
{
horizontal = 1;
place = "{732, -20}";
target = down;
type = TopGhost;
},
{
horizontal = 1;
place = "{-32, 21}";
target = up;
type = BottomGhost;
}
);
layerId = UUID1;
paths = (
{
closed = 1;
nodes = (
"817 736 LINE",
"671 736 LINE",
"618 277 LINE",
"648 263 LINE",
"164 765 LINE",
"158 765 LINE",
"64 0 LINE",
"211 0 LINE",
"263 450 LINE",
"223 474 LINE",
"719 -30 LINE",
"723 -30 LINE"
);
}
);
width = 853;
}
);
leftMetricsKey = H;
rightMetricsKey = H;
unicode = 004E;
},
{
glyphname = Eng;
lastChange = "2016-12-12 21:13:34 +0000";
layers = (
{
components = (
{
name = N;
}
);
layerId = UUID0;
width = 811;
},
{
anchors = (
{
name = bottom;
position = "{390, 0}";
},
{
name = top;
position = "{452, 700}";
}
);
hints = (
{
horizontal = 1;
place = "{732, -20}";
target = down;
type = TopGhost;
},
{
horizontal = 1;
place = "{-32, 21}";
target = up;
type = BottomGhost;
}
);
layerId = UUID1;
paths = (
{
closed = 1;
nodes = (
"586 163 LINE",
"567 8 LINE",
"560 -53 OFFCURVE",
"531 -95 OFFCURVE",
"488 -124 CURVE",
"557 -211 LINE",
"647 -167 OFFCURVE",
"693 -96 OFFCURVE",
"705 0 CURVE",
"796 736 LINE",
"650 736 LINE",
"597 277 LINE",
"627 263 LINE",
"143 765 LINE",
"137 765 LINE",
"43 0 LINE",
"190 0 LINE",
"242 450 LINE",
"202 474 LINE",
"698 -30 LINE",
"707 33 LINE"
);
}
);
width = 802;
}
);
unicode = 014A;
},
{
glyphname = O;
lastChange = "2016-12-11 01:06:22 +0000";
layers = (
{
anchors = (
{
name = bottom;
position = "{412, 0}";
},
{
name = center;
position = "{455, 350}";
},
{
name = ogonek;
position = "{486, 0}";
},
{
name = top;
position = "{498, 700}";
},
{
name = topleft;
position = "{83, 700}";
},
{
name = topright;
position = "{601, 680}";
}
);
background = {
paths = (
{
closed = 1;
nodes = (
"96 355 OFFCURVE",
"95 338 OFFCURVE",
"95 323 CURVE SMOOTH",
"95 132 OFFCURVE",
"241 -7 OFFCURVE",
"432 -7 CURVE SMOOTH",
"621 -7 OFFCURVE",
"789 138 OFFCURVE",
"812 327 CURVE SMOOTH",
"814 342 OFFCURVE",
"815 356 OFFCURVE",
"815 369 CURVE SMOOTH",
"815 555 OFFCURVE",
"669 707 OFFCURVE",
"476 707 CURVE SMOOTH",
"288 707 OFFCURVE",
"121 561 OFFCURVE",
"98 371 CURVE"
);
},
{
closed = 1;
nodes = (
"134 545 OFFCURVE",
"289 694 OFFCURVE",
"475 694 CURVE SMOOTH",
"660 694 OFFCURVE",
"801 547 OFFCURVE",
"801 369 CURVE SMOOTH",
"801 356 OFFCURVE",
"800 342 OFFCURVE",
"798 328 CURVE SMOOTH",
"776 145 OFFCURVE",
"614 6 OFFCURVE",
"432 6 CURVE SMOOTH",
"247 6 OFFCURVE",
"109 151 OFFCURVE",
"109 323 CURVE SMOOTH",
"109 341 OFFCURVE",
"110 355 OFFCURVE",
"112 369 CURVE"
);
}
);
};
hints = (
{
horizontal = 1;
place = "{-8, 21}";
target = up;
type = BottomGhost;
},
{
horizontal = 1;
place = "{708, -20}";
target = down;
type = TopGhost;
}
);
layerId = UUID0;
paths = (
{
closed = 1;
nodes = (
"677 -7 OFFCURVE",
"813 202 OFFCURVE",
"813 377 CURVE SMOOTH",
"813 568 OFFCURVE",
"667 707 OFFCURVE",
"476 707 CURVE SMOOTH",
"231 707 OFFCURVE",
"95 498 OFFCURVE",
"95 323 CURVE SMOOTH",
"95 132 OFFCURVE",
"241 -7 OFFCURVE",
"432 -7 CURVE SMOOTH"
);
},
{
closed = 1;
nodes = (
"247 6 OFFCURVE",
"109 151 OFFCURVE",
"109 323 CURVE SMOOTH",
"109 492 OFFCURVE",
"244 694 OFFCURVE",
"475 694 CURVE SMOOTH",
"660 694 OFFCURVE",
"799 549 OFFCURVE",
"799 377 CURVE SMOOTH",
"799 208 OFFCURVE",
"663 6 OFFCURVE",
"432 6 CURVE SMOOTH"
);
}
);
width = 870;
},
{
anchors = (
{
name = bottom;
position = "{463, 0}";
},
{
name = center;
position = "{463, 350}";
},
{
name = ogonek;
position = "{816, 10}";
},
{
name = top;
position = "{463, 730}";
},
{
name = topleft;
position = "{40, 700}";
},
{
name = topright;
position = "{655, 476}";
}
);
background = {
paths = (
{
closed = 1;
nodes = (
"69 374 OFFCURVE",
"68 358 OFFCURVE",
"68 343 CURVE SMOOTH",
"68 157 OFFCURVE",
"208 6 OFFCURVE",
"399 -6 CURVE",
"406 -6 OFFCURVE",
"414 -7 OFFCURVE",
"421 -7 CURVE SMOOTH",
"618 -7 OFFCURVE",
"797 145 OFFCURVE",
"821 344 CURVE",
"823 359 OFFCURVE",
"824 373 OFFCURVE",
"824 388 CURVE SMOOTH",
"824 572 OFFCURVE",
"681 730 OFFCURVE",
"491 742 CURVE",
"483 742 OFFCURVE",
"476 743 OFFCURVE",
"468 743 CURVE SMOOTH",
"270 743 OFFCURVE",
"94 584 OFFCURVE",
"71 390 CURVE"
);
},
{
closed = 1;
nodes = (
"237 513 OFFCURVE",
"347 610 OFFCURVE",
"475 603 CURVE",
"591 596 OFFCURVE",
"673 503 OFFCURVE",
"673 386 CURVE SMOOTH",
"673 375 OFFCURVE",
"672 364 OFFCURVE",
"671 353 CURVE",
"655 223 OFFCURVE",
"547 125 OFFCURVE",
"421 133 CURVE",
"301 140 OFFCURVE",
"218 235 OFFCURVE",
"218 351 CURVE SMOOTH",
"218 361 OFFCURVE",
"219 371 OFFCURVE",
"220 381 CURVE"
);
}
);
};
hints = (
{
horizontal = 1;
place = "{71, 21}";
target = up;
type = BottomGhost;
},
{
horizontal = 1;
place = "{629, -20}";
target = down;
type = TopGhost;
}
);
layerId = UUID1;
paths = (
{
closed = 1;
nodes = (
"691 -7 OFFCURVE",
"821 216 OFFCURVE",
"821 393 CURVE SMOOTH",
"821 639 OFFCURVE",
"636 743 OFFCURVE",
"468 743 CURVE SMOOTH",
"198 743 OFFCURVE",
"68 520 OFFCURVE",
"68 343 CURVE SMOOTH",
"68 97 OFFCURVE",
"253 -7 OFFCURVE",
"421 -7 CURVE SMOOTH"
);
},
{
closed = 1;
nodes = (
"301 133 OFFCURVE",
"218 235 OFFCURVE",
"218 351 CURVE SMOOTH",
"218 460 OFFCURVE",
"280 603 OFFCURVE",
"462 603 CURVE SMOOTH",
"584 603 OFFCURVE",
"671 501 OFFCURVE",
"671 385 CURVE SMOOTH",
"671 276 OFFCURVE",
"605 133 OFFCURVE",
"423 133 CURVE SMOOTH"
);
}
);
width = 852;
}
);
unicode = 004F;
},
{
glyphname = Oslash;
lastChange = "2016-12-12 21:13:55 +0000";
layers = (
{
anchors = (
{
name = bottom;
position = "{395, 0}";
},
{
name = top;
position = "{481, 700}";
}
);
components = (
{
name = O;
}
);
hints = (
{
horizontal = 1;
place = "{-8, 21}";
target = up;
type = BottomGhost;
},
{
horizontal = 1;
place = "{708, -20}";
target = down;
type = TopGhost;
}
);
layerId = UUID0;
paths = (
{
closed = 1;
nodes = (
"792 716 LINE",
"113 8 LINE",
"120 0 LINE",
"799 708 LINE"
);
}
);
width = 836;
},
{
anchors = (
{
name = bottom;
position = "{402, 0}";
},
{
name = top;
position = "{493, 736}";
}
);
components = (
{
name = O;
}
);
hints = (
{
horizontal = 1;
place = "{-17, 21}";
target = up;
type = BottomGhost;
},
{
horizontal = 1;
place = "{719, -20}";
target = down;
type = TopGhost;
}
);
layerId = UUID1;
paths = (
{
closed = 1;
nodes = (
"792 739 LINE",
"101 40 LINE",
"165 -23 LINE",
"854 675 LINE"
);
}
);
width = 858;
}
);
unicode = 00D8;
},
{
glyphname = OE;
lastChange = "2016-08-26 20:41:54 +0000";
layers = (
{
hints = (
{
horizontal = 1;
place = "{-8, 21}";
target = up;
type = BottomGhost;
},
{
horizontal = 1;
place = "{708, -20}";
target = down;
type = TopGhost;
},
{
horizontal = 1;
place = "{0, 21}";
target = up;
type = BottomGhost;
},
{
horizontal = 1;
place = "{700, -20}";
target = down;
type = TopGhost;
}
);
layerId = UUID0;
paths = (
{
closed = 1;
nodes = (
"603 696 LINE",
"575 704 OFFCURVE",
"546 708 OFFCURVE",
"514 708 CURVE SMOOTH",
"302 708 OFFCURVE",
"110 528 OFFCURVE",
"110 313 CURVE SMOOTH",
"110 134 OFFCURVE",
"244 -8 OFFCURVE",
"426 -8 CURVE SMOOTH",
"457 -8 OFFCURVE",
"487 -4 OFFCURVE",
"516 3 CURVE",
"503 15 LINE",
"477 9 OFFCURVE",
"452 6 OFFCURVE",
"425 6 CURVE SMOOTH",
"252 6 OFFCURVE",
"124 142 OFFCURVE",
"124 313 CURVE SMOOTH",
"124 519 OFFCURVE",
"309 694 OFFCURVE",
"512 694 CURVE SMOOTH",
"538 694 OFFCURVE",
"563 691 OFFCURVE",
"586 686 CURVE"
);
},
{
closed = 1;
nodes = (
"496 0 LINE",
"895 0 LINE",
"897 14 LINE",
"512 14 LINE",
"552 346 LINE",
"884 346 LINE",
"886 360 LINE",
"554 360 LINE",
"594 686 LINE",
"965 686 LINE",
"967 700 LINE",
"582 700 LINE"
);
}
);
width = 988;
},
{
hints = (
{
horizontal = 1;
place = "{71, 21}";
target = up;
type = BottomGhost;
},
{
horizontal = 1;
place = "{629, -20}";
target = down;
type = TopGhost;
},
{
horizontal = 1;
place = "{0, 21}";
target = up;
type = BottomGhost;
},
{
horizontal = 1;
place = "{700, -20}";
target = down;
type = TopGhost;
}
);
layerId = UUID1;
paths = (
{
closed = 1;
nodes = (
"619 731 LINE",
"590 739 OFFCURVE",
"558 744 OFFCURVE",
"525 744 CURVE SMOOTH",
"303 744 OFFCURVE",
"101 550 OFFCURVE",
"101 329 CURVE SMOOTH",
"101 141 OFFCURVE",
"241 -8 OFFCURVE",
"433 -8 CURVE SMOOTH",
"465 -8 OFFCURVE",
"495 -4 OFFCURVE",
"526 4 CURVE",
"506 139 LINE",
"489 135 OFFCURVE",
"472 133 OFFCURVE",
"455 133 CURVE SMOOTH",
"337 133 OFFCURVE",
"252 226 OFFCURVE",
"252 343 CURVE SMOOTH",
"252 483 OFFCURVE",
"373 600 OFFCURVE",
"508 600 CURVE SMOOTH",
"525 600 OFFCURVE",
"541 598 OFFCURVE",
"557 594 CURVE"
);
},
{
closed = 1;
nodes = (
"477 0 LINE",
"963 0 LINE",
"980 139 LINE",
"644 139 LINE",
"664 299 LINE",
"945 299 LINE",
"961 437 LINE",
"680 437 LINE",
"701 601 LINE",
"1023 601 LINE",
"1039 736 LINE",
"567 736 LINE"
);
}
);
width = 1021;
}
);
unicode = 0152;
},
{
glyphname = P;
lastChange = "2016-08-26 20:41:54 +0000";
layers = (
{
hints = (
{
horizontal = 1;
place = "{0, 21}";
target = up;
type = BottomGhost;
},
{
horizontal = 1;
place = "{700, -20}";
target = down;
type = TopGhost;
}
);
layerId = UUID0;
paths = (
{
closed = 1;
nodes = (
"166 700 LINE",
"80 0 LINE",
"94 0 LINE",
"133 321 LINE",
"245 321 LINE SMOOTH",
"409 321 OFFCURVE",
"485 431 OFFCURVE",
"485 537 CURVE SMOOTH",
"485 658 OFFCURVE",
"378 700 OFFCURVE",
"306 700 CURVE SMOOTH"
);
},
{
closed = 1;
nodes = (
"135 335 LINE",
"178 686 LINE",
"294 686 LINE SMOOTH",
"397 686 OFFCURVE",
"471 627 OFFCURVE",
"471 536 CURVE SMOOTH",
"471 464 OFFCURVE",
"421 335 OFFCURVE",
"250 335 CURVE SMOOTH"
);
}
);
width = 475;
},
{
hints = (
{
horizontal = 1;
place = "{0, 21}";
target = up;
type = BottomGhost;
},
{
horizontal = 1;
place = "{700, -20}";
target = down;
type = TopGhost;
}
);
layerId = UUID1;
paths = (
{
closed = 1;
nodes = (
"172 736 LINE",
"82 0 LINE",
"232 0 LINE",
"261 233 LINE",
"360 233 LINE SMOOTH",
"574 233 OFFCURVE",
"650 392 OFFCURVE",
"650 519 CURVE SMOOTH",
"650 651 OFFCURVE",
"562 736 OFFCURVE",
"395 736 CURVE SMOOTH"
);
},
{
closed = 1;
nodes = (
"278 374 LINE",
"305 596 LINE",
"399 596 LINE SMOOTH",
"485 596 OFFCURVE",
"498 531 OFFCURVE",
"498 498 CURVE SMOOTH",
"498 455 OFFCURVE",
"466 374 OFFCURVE",
"371 374 CURVE SMOOTH"
);
}
);
width = 635;
}
);
unicode = 0050;
},
{
glyphname = Thorn;
lastChange = "2016-12-12 22:06:49 +0000";
layers = (
{
hints = (
{
horizontal = 1;
place = "{700, -20}";
target = down;
type = TopGhost;
},
{
horizontal = 1;
place = "{0, 21}";
target = up;
type = BottomGhost;
}
);
layerId = UUID0;
paths = (
{
closed = 1;
nodes = (
"150 535 LINE",
"170 700 LINE",
"156 700 LINE",
"70 0 LINE",
"84 0 LINE",
"103 156 LINE",
"215 156 LINE SMOOTH",
"378 156 OFFCURVE",
"455 266 OFFCURVE",
"455 372 CURVE SMOOTH",
"455 493 OFFCURVE",
"348 535 OFFCURVE",
"276 535 CURVE SMOOTH"
);
},
{
closed = 1;
nodes = (
"105 170 LINE",
"148 521 LINE",
"264 521 LINE SMOOTH",
"367 521 OFFCURVE",
"441 462 OFFCURVE",
"441 371 CURVE SMOOTH",
"441 299 OFFCURVE",
"391 170 OFFCURVE",
"220 170 CURVE SMOOTH"
);
}
);
width = 470;
},
{
hints = (
{
horizontal = 1;
place = "{700, -20}";
target = down;
type = TopGhost;
},
{
horizontal = 1;
place = "{0, 21}";
target = up;
type = BottomGhost;
}
);
layerId = UUID1;
paths = (
{
closed = 1;
nodes = (
"290 616 LINE",
"302 714 LINE",
"152 714 LINE",
"64 0 LINE",
"214 0 LINE",
"228 113 LINE",
"327 113 LINE SMOOTH",
"541 113 OFFCURVE",
"618 272 OFFCURVE",
"618 399 CURVE SMOOTH",
"618 531 OFFCURVE",
"529 616 OFFCURVE",
"363 616 CURVE SMOOTH"
);
},
{
closed = 1;
nodes = (
"245 254 LINE",
"272 476 LINE",
"366 476 LINE SMOOTH",
"452 476 OFFCURVE",
"466 411 OFFCURVE",
"466 378 CURVE SMOOTH",
"466 335 OFFCURVE",
"433 254 OFFCURVE",
"338 254 CURVE SMOOTH"
);
}
);
width = 617;
}
);
leftMetricsKey = H;
rightMetricsKey = P;
unicode = 00DE;
},
{
glyphname = Q;
lastChange = "2016-12-07 15:28:57 +0000";
layers = (
{
hints = (
{
horizontal = 1;
place = "{-8, 21}";
target = up;
type = BottomGhost;
},
{
horizontal = 1;
place = "{708, -20}";
target = down;
type = TopGhost;
}
);
layerId = UUID0;
paths = (
{
closed = 1;
nodes = (
"535 0 LINE",
"842 0 LINE",
"844 14 LINE",
"587 14 LINE"
);
},
{
closed = 1;
nodes = (
"721 -7 OFFCURVE",
"857 202 OFFCURVE",
"857 377 CURVE SMOOTH",
"857 568 OFFCURVE",
"711 707 OFFCURVE",
"520 707 CURVE SMOOTH",
"275 707 OFFCURVE",
"139 498 OFFCURVE",
"139 323 CURVE SMOOTH",
"139 132 OFFCURVE",
"285 -7 OFFCURVE",
"476 -7 CURVE SMOOTH"
);
},
{
closed = 1;
nodes = (
"291 6 OFFCURVE",
"153 151 OFFCURVE",
"153 323 CURVE SMOOTH",
"153 492 OFFCURVE",
"288 694 OFFCURVE",
"519 694 CURVE SMOOTH",
"704 694 OFFCURVE",
"843 549 OFFCURVE",
"843 377 CURVE SMOOTH",
"843 208 OFFCURVE",
"707 6 OFFCURVE",
"476 6 CURVE SMOOTH"
);
}
);
width = 985;
},
{
hints = (
{
horizontal = 1;
place = "{-8, 21}";
target = up;
type = BottomGhost;
},
{
horizontal = 1;
place = "{708, -20}";
target = down;
type = TopGhost;
}
);
layerId = UUID1;
paths = (
{
closed = 1;
nodes = (
"433 0 LINE",
"843 0 LINE",
"860 142 LINE",
"618 105 LINE"
);
},
{
closed = 1;
nodes = (
"687 -7 OFFCURVE",
"817 216 OFFCURVE",
"817 393 CURVE SMOOTH",
"817 639 OFFCURVE",
"632 743 OFFCURVE",
"464 743 CURVE SMOOTH",
"194 743 OFFCURVE",
"64 520 OFFCURVE",
"64 343 CURVE SMOOTH",
"64 97 OFFCURVE",
"249 -7 OFFCURVE",
"417 -7 CURVE SMOOTH"
);
},
{
closed = 1;
nodes = (
"297 133 OFFCURVE",
"214 235 OFFCURVE",
"214 351 CURVE SMOOTH",
"214 460 OFFCURVE",
"276 603 OFFCURVE",
"458 603 CURVE SMOOTH",
"580 603 OFFCURVE",
"667 501 OFFCURVE",
"667 385 CURVE SMOOTH",
"667 276 OFFCURVE",
"601 133 OFFCURVE",
"419 133 CURVE SMOOTH"
);
}
);
width = 870;
}
);
leftMetricsKey = H;
rightMetricsKey = H;
unicode = 0051;
},
{
glyphname = R;
lastChange = "2016-12-11 01:07:23 +0000";
layers = (
{
anchors = (
{
name = bottom;
position = "{284, 0}";
},
{
name = top;
position = "{340, 700}";
}
);
hints = (
{
horizontal = 1;
place = "{0, 21}";
target = up;
type = BottomGhost;
},
{
horizontal = 1;
place = "{700, -20}";
target = down;
type = TopGhost;
}
);
layerId = UUID0;
paths = (
{
closed = 1;
nodes = (
"183 700 LINE",
"97 0 LINE",
"111 0 LINE",
"150 321 LINE",
"262 321 LINE SMOOTH",
"419 321 OFFCURVE",
"488 416 OFFCURVE",
"500 516 CURVE SMOOTH",
"517 654 OFFCURVE",
"400 700 OFFCURVE",
"323 700 CURVE SMOOTH"
);
},
{
closed = 1;
nodes = (
"152 334 LINE",
"195 687 LINE",
"321 687 LINE SMOOTH",
"422 687 OFFCURVE",
"499 619 OFFCURVE",
"486 515 CURVE SMOOTH",
"476 431 OFFCURVE",
"422 334 OFFCURVE",
"261 334 CURVE SMOOTH"
);
},
{
closed = 1;
nodes = (
"334 337 LINE",
"495 0 LINE",
"511 0 LINE",
"350 337 LINE"
);
}
);
width = 614;
},
{
anchors = (
{
name = bottom;
position = "{335, 0}";
},
{
name = top;
position = "{375, 730}";
}
);
hints = (
{
horizontal = 1;
place = "{0, 21}";
target = up;
type = BottomGhost;
},
{
horizontal = 1;
place = "{700, -20}";
target = down;
type = TopGhost;
}
);
layerId = UUID1;
paths = (
{
closed = 1;
nodes = (
"155 736 LINE",
"65 0 LINE",
"210 0 LINE",
"239 234 LINE",
"343 234 LINE",
"539 234 OFFCURVE",
"621 367 OFFCURVE",
"636 488 CURVE",
"654 639 OFFCURVE",
"563 736 OFFCURVE",
"378 736 CURVE"
);
},
{
closed = 1;
nodes = (
"256 374 LINE",
"283 596 LINE",
"387 596 LINE",
"489 596 OFFCURVE",
"489 514 OFFCURVE",
"485 483 CURVE",
"480 441 OFFCURVE",
"447 374 OFFCURVE",
"359 374 CURVE"
);
},
{
closed = 1;
nodes = (
"310 280 LINE",
"462 0 LINE",
"631 0 LINE",
"484 284 LINE"
);
}
);
width = 687;
}
);
leftMetricsKey = H;
unicode = 0052;
},
{
glyphname = S;
lastChange = "2016-12-11 01:10:15 +0000";
layers = (
{
anchors = (
{
name = bottom;
position = "{271, 0}";
},
{
name = top;
position = "{357, 700}";
}
);
hints = (
{
horizontal = 1;
place = "{704, -20}";
target = down;
type = TopGhost;
},
{
horizontal = 1;
place = "{-8, 21}";
target = up;
type = BottomGhost;
}
);
layerId = UUID0;
paths = (
{
closed = 1;
nodes = (
"528 654 LINE",
"477 681 OFFCURVE",
"402 701 OFFCURVE",
"346 701 CURVE SMOOTH",
"243 701 OFFCURVE",
"155 640 OFFCURVE",
"155 542 CURVE SMOOTH",
"155 458 OFFCURVE",
"237 418 OFFCURVE",
"320 381 CURVE SMOOTH",
"406 343 OFFCURVE",
"493 301 OFFCURVE",
"493 200 CURVE SMOOTH",
"493 115 OFFCURVE",
"431 6 OFFCURVE",
"290 6 CURVE SMOOTH",
"197 6 OFFCURVE",
"114 49 OFFCURVE",
"75 89 CURVE",
"66 77 LINE",
"102 42 OFFCURVE",
"175 -7 OFFCURVE",
"288 -7 CURVE SMOOTH",
"453 -7 OFFCURVE",
"507 122 OFFCURVE",
"507 202 CURVE SMOOTH",
"507 310 OFFCURVE",
"416 352 OFFCURVE",
"330 391 CURVE SMOOTH",
"246 430 OFFCURVE",
"169 467 OFFCURVE",
"169 545 CURVE SMOOTH",
"169 585 OFFCURVE",
"201 689 OFFCURVE",
"345 689 CURVE SMOOTH",
"412 689 OFFCURVE",
"483 662 OFFCURVE",
"520 643 CURVE"
);
}
);
width = 587;
},
{
anchors = (
{
name = bottom;
position = "{291, 0}";
},
{
name = top;
position = "{331, 700}";
}
);
hints = (
{
horizontal = 1;
place = "{704, -20}";
target = down;
type = TopGhost;
},
{
horizontal = 1;
place = "{-8, 21}";
target = up;
type = BottomGhost;
}
);
layerId = UUID1;
paths = (
{
closed = 1;
nodes = (
"596 652 LINE",
"541 694 OFFCURVE",
"479 730 OFFCURVE",
"361 737 CURVE",
"223 739 OFFCURVE",
"121 664 OFFCURVE",
"106 536 CURVE",
"88 396 OFFCURVE",
"201 343 OFFCURVE",
"286 303 CURVE SMOOTH",
"341 277 OFFCURVE",
"386 242 OFFCURVE",
"381 198 CURVE",
"373 134 OFFCURVE",
"309 119 OFFCURVE",
"257 122 CURVE",
"205 126 OFFCURVE",
"136 156 OFFCURVE",
"90 197 CURVE",
"12 88 LINE",
"83 29 OFFCURVE",
"170 -1 OFFCURVE",
"254 -6 CURVE",
"418 -16 OFFCURVE",
"518 77 OFFCURVE",
"532 189 CURVE",
"549 328 OFFCURVE",
"466 381 OFFCURVE",
"384 418 CURVE SMOOTH",
"316 448 OFFCURVE",
"250 486 OFFCURVE",
"257 538 CURVE",
"263 589 OFFCURVE",
"304 611 OFFCURVE",
"367 608 CURVE",
"418 605 OFFCURVE",
"475 579 OFFCURVE",
"527 545 CURVE"
);
}
);
width = 587;
}
);
unicode = 0053;
},
{
glyphname = Germandbls;
lastChange = "2016-12-12 20:03:05 +0000";
layers = (
{
layerId = UUID0;
width = 600;
},
{
layerId = UUID1;
paths = (
{
closed = 1;
nodes = (
"690 -8 OFFCURVE",
"784 91 OFFCURVE",
"797 203 CURVE",
"813 333 OFFCURVE",
"729 379 OFFCURVE",
"659 423 CURVE",
"617 452 OFFCURVE",
"569 478 OFFCURVE",
"575 530 CURVE",
"580 568 OFFCURVE",
"604 595 OFFCURVE",
"640 595 CURVE",
"661 595 OFFCURVE",
"675 587 OFFCURVE",
"683 580 CURVE",
"734 687 LINE",
"694 736 OFFCURVE",
"574 786 OFFCURVE",
"468 786 CURVE",
"277 786 OFFCURVE",
"146 637 OFFCURVE",
"120 421 CURVE",
"68 0 LINE",
"214 0 LINE",
"265 417 LINE",
"287 594 OFFCURVE",
"362 671 OFFCURVE",
"468 671 CURVE",
"534 671 OFFCURVE",
"595 649 OFFCURVE",
"638 597 CURVE",
"692 669 LINE",
"679 685 OFFCURVE",
"660 693 OFFCURVE",
"629 693 CURVE",
"520 685 OFFCURVE",
"442 620 OFFCURVE",
"428 506 CURVE",
"415 399 OFFCURVE",
"496 339 OFFCURVE",
"561 302 CURVE",
"609 274 OFFCURVE",
"652 247 OFFCURVE",
"646 203 CURVE",
"638 139 OFFCURVE",
"584 120 OFFCURVE",
"542 120 CURVE",
"490 120 OFFCURVE",
"421 146 OFFCURVE",
"375 184 CURVE",
"297 71 LINE",
"367 16 OFFCURVE",
"455 -8 OFFCURVE",
"539 -8 CURVE"
);
}
);
width = 839;
}
);
unicode = 1E9E;
},
{
glyphname = Schwa;
lastChange = "2016-12-12 21:15:42 +0000";
layers = (
{
background = {
paths = (
{
closed = 1;
nodes = (
"433 708 OFFCURVE",
"426 709 OFFCURVE",
"419 709 CURVE SMOOTH",
"332 709 OFFCURVE",
"247 676 OFFCURVE",
"180 623 CURVE",
"189 612 LINE",
"250 659 OFFCURVE",
"337 695 OFFCURVE",
"419 695 CURVE SMOOTH",
"425 695 OFFCURVE",
"432 694 OFFCURVE",
"438 694 CURVE",
"632 682 OFFCURVE",
"748 530 OFFCURVE",
"748 369 CURVE SMOOTH",
"748 355 OFFCURVE",
"747 341 OFFCURVE",
"745 327 CURVE",
"723 149 OFFCURVE",
"562 7 OFFCURVE",
"376 7 CURVE SMOOTH",
"369 7 OFFCURVE",
"362 8 OFFCURVE",
"354 8 CURVE",
"222 16 OFFCURVE",
"122 105 OFFCURVE",
"84 232 CURVE",
"77 223 LINE",
"744 442 LINE",
"740 456 LINE",
"66 234 LINE",
"103 105 OFFCURVE",
"200 5 OFFCURVE",
"352 -5 CURVE",
"360 -5 OFFCURVE",
"367 -6 OFFCURVE",
"375 -6 CURVE SMOOTH",
"569 -6 OFFCURVE",
"736 137 OFFCURVE",
"759 326 CURVE",
"761 341 OFFCURVE",
"762 356 OFFCURVE",
"762 370 CURVE SMOOTH",
"762 550 OFFCURVE",
"627 697 OFFCURVE",
"440 708 CURVE"
);
}
);
};
layerId = UUID0;
paths = (
{
closed = 1;
nodes = (
"332 709 OFFCURVE",
"247 676 OFFCURVE",
"180 623 CURVE",
"189 612 LINE",
"250 659 OFFCURVE",
"337 695 OFFCURVE",
"419 695 CURVE SMOOTH",
"523 695 OFFCURVE",
"748 623 OFFCURVE",
"748 369 CURVE SMOOTH",
"748 255 OFFCURVE",
"643 7 OFFCURVE",
"376 7 CURVE SMOOTH",
"310 7 OFFCURVE",
"143 34 OFFCURVE",
"84 232 CURVE",
"77 223 LINE",
"744 442 LINE",
"740 456 LINE",
"66 234 LINE",
"124 31 OFFCURVE",
"289 -6 OFFCURVE",
"375 -6 CURVE SMOOTH",
"660 -6 OFFCURVE",
"762 246 OFFCURVE",
"762 370 CURVE SMOOTH",
"762 637 OFFCURVE",
"528 709 OFFCURVE",
"419 709 CURVE SMOOTH"
);
}
);
width = 820;
},
{
layerId = UUID1;
paths = (
{
closed = 1;
nodes = (
"362 748 OFFCURVE",
"230 705 OFFCURVE",
"168 651 CURVE",
"225 529 LINE",
"268 575 OFFCURVE",
"354 606 OFFCURVE",
"421 601 CURVE",
"512 595 OFFCURVE",
"603 517 OFFCURVE",
"603 396 CURVE SMOOTH",
"603 386 OFFCURVE",
"602 376 OFFCURVE",
"601 365 CURVE",
"583 223 OFFCURVE",
"478 123 OFFCURVE",
"374 130 CURVE",
"279 136 OFFCURVE",
"233 210 OFFCURVE",
"221 305 CURVE",
"171 265 LINE",
"662 395 LINE",
"644 502 LINE",
"57 353 LINE",
"65 143 OFFCURVE",
"170 13 OFFCURVE",
"348 2 CURVE",
"355 2 OFFCURVE",
"362 1 OFFCURVE",
"369 1 CURVE SMOOTH",
"556 1 OFFCURVE",
"729 151 OFFCURVE",
"755 364 CURVE",
"757 382 OFFCURVE",
"758 400 OFFCURVE",
"758 418 CURVE SMOOTH",
"758 595 OFFCURVE",
"644 730 OFFCURVE",
"441 743 CURVE"
);
}
);
width = 787;
}
);
rightMetricsKey = O;
unicode = 018F;
},
{
glyphname = T;
lastChange = "2016-12-02 14:44:07 +0000";
layers = (
{
anchors = (
{
name = bottom;
position = "{264, 0}";
},
{
name = center;
position = "{307, 350}";
},
{
name = top;
position = "{350, 700}";
}
);
hints = (
{
horizontal = 1;
place = "{700, -20}";
target = down;
type = TopGhost;
},
{
horizontal = 1;
place = "{0, 21}";
target = up;
type = BottomGhost;
}
);
layerId = UUID0;
paths = (
{
closed = 1;
nodes = (
"121 687 LINE",
"341 687 LINE",
"257 0 LINE",
"271 0 LINE",
"355 687 LINE",
"575 687 LINE",
"577 700 LINE",
"123 700 LINE"
);
}
);
width = 574;
},
{
anchors = (
{
name = bottom;
position = "{259, 0}";
},
{
name = center;
position = "{291, 350}";
},
{
name = top;
position = "{349, 700}";
}
);
hints = (
{
horizontal = 1;
place = "{700, -20}";
target = down;
type = TopGhost;
},
{
horizontal = 1;
place = "{0, 21}";
target = up;
type = BottomGhost;
}
);
layerId = UUID1;
paths = (
{
closed = 1;
nodes = (
"87 593 LINE",
"257 593 LINE",
"184 0 LINE",
"334 0 LINE",
"407 593 LINE",
"583 593 LINE",
"601 736 LINE",
"105 736 LINE"
);
}
);
width = 586;
}
);
unicode = 0054;
},
{
glyphname = U;
lastChange = "2016-12-11 01:12:52 +0000";
layers = (
{
anchors = (
{
name = bottom;
position = "{322, 0}";
},
{
name = ogonek;
position = "{415, 10}";
},
{
name = top;
position = "{408, 700}";
},
{
name = topright;
position = "{733, 700}";
}
);
hints = (
{
horizontal = 1;
place = "{-8, 21}";
target = up;
type = BottomGhost;
},
{
horizontal = 1;
place = "{700, -20}";
target = down;
type = TopGhost;
}
);
layerId = UUID0;
paths = (
{
closed = 1;
nodes = (
"197 700 LINE",
"183 700 LINE",
"125 226 LINE SMOOTH",
"106 73 OFFCURVE",
"193 -8 OFFCURVE",
"322 -8 CURVE SMOOTH",
"322 -8 LINE SMOOTH",
"469 -8 OFFCURVE",
"556 73 OFFCURVE",
"575 226 CURVE SMOOTH",
"633 700 LINE",
"619 700 LINE",
"562 228 LINE SMOOTH",
"544 85 OFFCURVE",
"458 5 OFFCURVE",
"323 5 CURVE SMOOTH",
"200 5 OFFCURVE",
"122 85 OFFCURVE",
"140 228 CURVE SMOOTH"
);
}
);
width = 690;
},
{
anchors = (
{
name = bottom;
position = "{363, 0}";
},
{
name = ogonek;
position = "{528, 10}";
},
{
name = top;
position = "{456, 730}";
},
{
name = topright;
position = "{733, 630}";
}
);
hints = (
{
horizontal = 1;
place = "{-8, 21}";
target = up;
type = BottomGhost;
},
{
horizontal = 1;
place = "{700, -20}";
target = down;
type = TopGhost;
}
);
layerId = UUID1;
paths = (
{
closed = 1;
nodes = (
"305 736 LINE",
"155 736 LINE",
"98 269 LINE SMOOTH",
"78 107 OFFCURVE",
"196 -8 OFFCURVE",
"361 -8 CURVE SMOOTH",
"361 -8 LINE SMOOTH",
"527 -8 OFFCURVE",
"674 107 OFFCURVE",
"694 269 CURVE SMOOTH",
"751 736 LINE",
"601 736 LINE",
"544 272 LINE SMOOTH",
"535 202 OFFCURVE",
"460 133 OFFCURVE",
"378 133 CURVE SMOOTH",
"296 133 OFFCURVE",
"239 202 OFFCURVE",
"248 272 CURVE SMOOTH"
);
}
);
width = 787;
}
);
leftMetricsKey = H;
rightMetricsKey = H;
unicode = 0055;
},
{
glyphname = V;
lastChange = "2016-12-07 15:01:36 +0000";
layers = (
{
anchors = (
{
name = bottom;
position = "{322, 0}";
},
{
name = top;
position = "{408, 700}";
}
);
hints = (
{
horizontal = 1;
place = "{700, -20}";
target = down;
type = TopGhost;
},
{
horizontal = 1;
place = "{-32, 21}";
target = up;
type = BottomGhost;
}
);
layerId = UUID0;
paths = (
{
closed = 1;
nodes = (
"319 -30 LINE",
"698 700 LINE",
"683 700 LINE",
"317 -9 LINE",
"325 -9 LINE",
"133 700 LINE",
"118 700 LINE",
"318 -30 LINE"
);
}
);
width = 690;
},
{
anchors = (
{
name = bottom;
position = "{338, 0}";
},
{
name = top;
position = "{338, 700}";
}
);
hints = (
{
horizontal = 1;
place = "{700, -20}";
target = down;
type = TopGhost;
},
{
horizontal = 1;
place = "{-32, 21}";
target = up;
type = BottomGhost;
}
);
layerId = UUID1;
paths = (
{
closed = 1;
nodes = (
"337 -28 LINE",
"764 736 LINE",
"592 736 LINE",
"334 223 LINE",
"416 206 LINE",
"266 736 LINE",
"92 736 LINE",
"332 -28 LINE"
);
}
);
width = 736;
}
);
unicode = 0056;
},
{
glyphname = W;
lastChange = "2016-12-07 14:33:13 +0000";
layers = (
{
anchors = (
{
name = bottom;
position = "{473, 0}";
},
{
name = top;
position = "{559, 700}";
}
);
hints = (
{
horizontal = 1;
place = "{700, -20}";
target = down;
type = TopGhost;
},
{
horizontal = 1;
place = "{-32, 21}";
target = up;
type = BottomGhost;
}
);
layerId = UUID0;
paths = (
{
closed = 1;
nodes = (
"285 -32 LINE",
"494 400 LINE",
"488 415 LINE",
"285 -2 LINE",
"291 -3 LINE",
"115 700 LINE",
"100 700 LINE"
);
},
{
closed = 1;
nodes = (
"597 -32 LINE",
"972 700 LINE",
"957 700 LINE",
"596 -5 LINE",
"606 -9 LINE",
"427 700 LINE",
"412 700 LINE"
);
}
);
width = 991;
},
{
anchors = (
{
name = bottom;
position = "{489, 0}";
},
{
name = top;
position = "{580, 736}";
}
);
hints = (
{
horizontal = 1;
place = "{700, -20}";
target = down;
type = TopGhost;
},
{
horizontal = 1;
place = "{-32, 21}";
target = up;
type = BottomGhost;
}
);
layerId = UUID1;
paths = (
{
closed = 1;
nodes = (
"281 -34 LINE",
"549 421 LINE",
"506 620 LINE",
"327 279 LINE",
"349 269 LINE",
"249 731 LINE",
"79 731 LINE"
);
},
{
closed = 1;
nodes = (
"660 -32 LINE",
"1038 731 LINE",
"882 731 LINE",
"693 288 LINE",
"718 284 LINE",
"592 731 LINE",
"448 731 LINE"
);
}
);
width = 1032;
}
);
unicode = 0057;
},
{
glyphname = X;
lastChange = "2016-12-07 15:03:41 +0000";
layers = (
{
hints = (
{
horizontal = 1;
place = "{0, 21}";
target = up;
type = BottomGhost;
},
{
horizontal = 1;
place = "{700, -20}";
target = down;
type = TopGhost;
}
);
layerId = UUID0;
paths = (
{
closed = 1;
nodes = (
"492 0 LINE",
"509 0 LINE",
"139 700 LINE",
"123 700 LINE"
);
},
{
closed = 1;
nodes = (
"45 0 LINE",
"314 356 LINE",
"302 362 LINE",
"27 0 LINE"
);
},
{
closed = 1;
nodes = (
"317 356 LINE",
"579 700 LINE",
"561 700 LINE",
"306 364 LINE"
);
}
);
width = 582;
},
{
hints = (
{
horizontal = 1;
place = "{0, 21}";
target = up;
type = BottomGhost;
},
{
horizontal = 1;
place = "{700, -20}";
target = down;
type = TopGhost;
}
);
layerId = UUID1;
paths = (
{
closed = 1;
nodes = (
"468 0 LINE",
"655 0 LINE",
"265 736 LINE",
"80 736 LINE"
);
},
{
closed = 1;
nodes = (
"160 0 LINE",
"343 266 LINE",
"292 412 LINE",
"-20 0 LINE"
);
},
{
closed = 1;
nodes = (
"437 341 LINE",
"738 736 LINE",
"562 736 LINE",
"377 466 LINE"
);
}
);
width = 681;
}
);
unicode = 0058;
},
{
glyphname = Y;
lastChange = "2016-12-07 14:32:46 +0000";
layers = (
{
anchors = (
{
name = bottom;
position = "{307, 0}";
},
{
name = top;
position = "{393, 700}";
},
{
name = topleft;
position = "{103, 700}";
}
);
hints = (
{
horizontal = 1;
place = "{700, -20}";
target = down;
type = TopGhost;
},
{
horizontal = 1;
place = "{0, 21}";
target = up;
type = BottomGhost;
}
);
layerId = UUID0;
paths = (
{
closed = 1;
nodes = (
"288 0 LINE",
"304 0 LINE",
"336 262 LINE",
"652 700 LINE",
"634 700 LINE",
"325 272 LINE",
"333 273 LINE",
"128 700 LINE",
"113 700 LINE",
"320 262 LINE"
);
}
);
width = 639;
},
{
anchors = (
{
name = bottom;
position = "{317, 0}";
},
{
name = top;
position = "{408, 736}";
},
{
name = topleft;
position = "{103, 736}";
}
);
hints = (
{
horizontal = 1;
place = "{700, -20}";
target = down;
type = TopGhost;
},
{
horizontal = 1;
place = "{0, 21}";
target = up;
type = BottomGhost;
}
);
layerId = UUID1;
paths = (
{
closed = 1;
nodes = (
"260 0 LINE",
"405 0 LINE",
"433 229 LINE",
"771 736 LINE",
"592 736 LINE",
"358 351 LINE",
"401 354 LINE",
"258 736 LINE",
"79 736 LINE",
"288 229 LINE"
);
}
);
width = 722;
}
);
unicode = 0059;
},
{
glyphname = Z;
lastChange = "2016-12-07 17:23:07 +0000";
layers = (
{
anchors = (
{
name = bottom;
position = "{292, 0}";
},
{
name = top;
position = "{378, 700}";
}
);
hints = (
{
horizontal = 1;
place = "{735, -20}";
target = down;
type = TopGhost;
},
{
horizontal = 1;
place = "{0, 21}";
target = up;
type = BottomGhost;
}
);
layerId = UUID0;
paths = (
{
closed = 1;
nodes = (
"591 0 LINE",
"593 13 LINE",
"36 13 LINE",
"38 9 LINE",
"644 700 LINE",
"169 700 LINE",
"147 700 OFFCURVE",
"140 711 OFFCURVE",
"141 723 CURVE SMOOTH",
"143 735 LINE",
"127 735 LINE",
"126 731 LINE SMOOTH",
"122 693 OFFCURVE",
"140 687 OFFCURVE",
"176 687 CURVE SMOOTH",
"625 687 LINE",
"619 691 LINE",
"15 0 LINE"
);
}
);
width = 629;
},
{
anchors = (
{
name = bottom;
position = "{314, 0}";
},
{
name = top;
position = "{455, 736}";
}
);
hints = (
{
horizontal = 1;
place = "{735, -20}";
target = down;
type = TopGhost;
},
{
horizontal = 1;
place = "{0, 21}";
target = up;
type = BottomGhost;
}
);
layerId = UUID1;
paths = (
{
closed = 1;
nodes = (
"624 0 LINE",
"641 140 LINE",
"246 140 LINE",
"259 124 LINE",
"715 736 LINE",
"306 736 LINE",
"282 736 OFFCURVE",
"276 742 OFFCURVE",
"277 759 CURVE SMOOTH",
"278 773 LINE",
"145 773 LINE",
"132 668 LINE SMOOTH",
"127 627 OFFCURVE",
"178 596 OFFCURVE",
"221 596 CURVE SMOOTH",
"486 596 LINE",
"469 636 LINE",
"-2 0 LINE"
);
}
);
width = 676;
}
);
unicode = 005A;
},
{
glyphname = a;
lastChange = "2016-12-12 20:13:44 +0000";
layers = (
{
anchors = (
{
name = bottom;
position = "{218, 0}";
},
{
name = ogonek;
position = "{420, 0}";
},
{
name = top;
position = "{264, 375}";
}
);
background = {
paths = (
{
closed = 1;
nodes = (
"317 -5 OFFCURVE",
"389 40 OFFCURVE",
"424 107 CURVE",
"425 121 LINE",
"410 0 LINE",
"424 0 LINE",
"469 375 LINE",
"459 375 LINE",
"440 249 LINE",
"419 327 OFFCURVE",
"349 383 OFFCURVE",
"260 383 CURVE SMOOTH",
"160 383 OFFCURVE",
"71 318 OFFCURVE",
"57 200 CURVE SMOOTH",
"56 192 OFFCURVE",
"56 184 OFFCURVE",
"56 176 CURVE SMOOTH",
"56 76 OFFCURVE",
"132 -5 OFFCURVE",
"239 -5 CURVE SMOOTH"
);
},
{
closed = 1;
nodes = (
"142 8 OFFCURVE",
"70 84 OFFCURVE",
"70 177 CURVE SMOOTH",
"70 185 OFFCURVE",
"70 192 OFFCURVE",
"71 199 CURVE SMOOTH",
"84 305 OFFCURVE",
"166 369 OFFCURVE",
"260 369 CURVE SMOOTH",
"355 369 OFFCURVE",
"430 297 OFFCURVE",
"435 208 CURVE",
"431 170 LINE",
"419 75 OFFCURVE",
"336 8 OFFCURVE",
"241 8 CURVE SMOOTH"
);
}
);
};
hints = (
{
horizontal = 1;
place = "{-6, 21}";
target = up;
type = BottomGhost;
},
{
horizontal = 1;
place = "{383, -20}";
target = down;
type = TopGhost;
}
);
layerId = UUID0;
paths = (
{
closed = 1;
nodes = (
"317 -5 OFFCURVE",
"389 40 OFFCURVE",
"424 107 CURVE",
"425 121 LINE",
"410 0 LINE",
"424 0 LINE",
"469 375 LINE",
"459 375 LINE",
"440 249 LINE",
"419 327 OFFCURVE",
"349 383 OFFCURVE",
"260 383 CURVE SMOOTH",
"107 383 OFFCURVE",
"56 254 OFFCURVE",
"56 176 CURVE SMOOTH",
"56 76 OFFCURVE",
"132 -5 OFFCURVE",
"239 -5 CURVE SMOOTH"
);
},
{
closed = 1;
nodes = (
"142 8 OFFCURVE",
"70 84 OFFCURVE",
"70 177 CURVE SMOOTH",
"70 245 OFFCURVE",
"118 369 OFFCURVE",
"260 369 CURVE SMOOTH",
"355 369 OFFCURVE",
"430 297 OFFCURVE",
"435 208 CURVE",
"431 170 LINE",
"419 75 OFFCURVE",
"336 8 OFFCURVE",
"241 8 CURVE SMOOTH"
);
}
);
width = 542;
},
{
anchors = (
{
name = bottom;
position = "{294, -20}";
},
{
name = ogonek;
position = "{528, 10}";
},
{
name = top;
position = "{354, 470}";
}
);
background = {
paths = (
{
closed = 1;
nodes = (
"331 -12 OFFCURVE",
"390 65 OFFCURVE",
"395 65 CURVE",
"387 95 LINE",
"376 0 LINE",
"516 0 LINE",
"569 437 LINE",
"439 437 LINE",
"424 390 LINE",
"400 425 OFFCURVE",
"368 459 OFFCURVE",
"281 459 CURVE",
"170 459 OFFCURVE",
"56 366 OFFCURVE",
"38 218 CURVE",
"36 203 OFFCURVE",
"35 189 OFFCURVE",
"35 176 CURVE SMOOTH",
"35 46 OFFCURVE",
"117 -12 OFFCURVE",
"228 -12 CURVE"
);
},
{
closed = 1;
nodes = (
"225 102 OFFCURVE",
"180 147 OFFCURVE",
"180 210 CURVE SMOOTH",
"180 215 OFFCURVE",
"180 220 OFFCURVE",
"181 225 CURVE",
"190 295 OFFCURVE",
"247 345 OFFCURVE",
"307 345 CURVE",
"360 345 OFFCURVE",
"399 318 OFFCURVE",
"409 275 CURVE",
"396 168 LINE",
"369 124 OFFCURVE",
"332 102 OFFCURVE",
"282 102 CURVE"
);
}
);
};
hints = (
{
horizontal = 1;
place = "{-9, 21}";
target = up;
type = BottomGhost;
},
{
horizontal = 1;
place = "{382, -20}";
target = down;
type = TopGhost;
}
);
layerId = UUID1;
paths = (
{
closed = 1;
nodes = (
"331 -12 OFFCURVE",
"390 65 OFFCURVE",
"395 65 CURVE",
"387 95 LINE",
"376 0 LINE",
"516 0 LINE",
"569 437 LINE",
"439 437 LINE",
"424 390 LINE",
"400 425 OFFCURVE",
"368 459 OFFCURVE",
"281 459 CURVE",
"137 459 OFFCURVE",
"35 333 OFFCURVE",
"35 203 CURVE SMOOTH",
"35 66 OFFCURVE",
"127 -12 OFFCURVE",
"213 -10 CURVE"
);
},
{
closed = 1;
nodes = (
"225 102 OFFCURVE",
"180 147 OFFCURVE",
"180 220 CURVE SMOOTH",
"180 273 OFFCURVE",
"216 345 OFFCURVE",
"307 345 CURVE",
"360 345 OFFCURVE",
"399 318 OFFCURVE",
"409 275 CURVE",
"396 168 LINE",
"369 124 OFFCURVE",
"332 102 OFFCURVE",
"292 102 CURVE SMOOTH"
);
}
);
width = 619;
}
);
leftMetricsKey = o;
rightMetricsKey = n;
unicode = 0061;
},
{
glyphname = ae;
lastChange = "2016-12-06 18:04:36 +0000";
layers = (
{
anchors = (
{
name = bottom;
position = "{353, 0}";
},
{
name = top;
position = "{399, 375}";
}
);
hints = (
{
horizontal = 1;
place = "{-6, 199}";
},
{
horizontal = 1;
place = "{179, 204}";
},
{
horizontal = 1;
place = "{-8, 21}";
target = up;
type = BottomGhost;
}
);
layerId = UUID0;
paths = (
{
closed = 1;
nodes = (
"571 -9 OFFCURVE",
"620 8 OFFCURVE",
"659 38 CURVE",
"650 48 LINE",
"615 20 OFFCURVE",
"569 4 OFFCURVE",
"521 7 CURVE",
"412 14 OFFCURVE",
"352 107 OFFCURVE",
"363 198 CURVE",
"375 298 OFFCURVE",
"465 374 OFFCURVE",
"565 368 CURVE",
"636 364 OFFCURVE",
"684 311 OFFCURVE",
"704 250 CURVE",
"710 258 LINE",
"358 144 LINE",
"361 129 LINE",
"720 248 LINE",
"700 320 OFFCURVE",
"649 377 OFFCURVE",
"567 382 CURVE",
"459 389 OFFCURVE",
"362 307 OFFCURVE",
"349 199 CURVE",
"336 92 OFFCURVE",
"411 1 OFFCURVE",
"519 -6 CURVE"
);
},
{
closed = 1;
nodes = (
"204 -11 OFFCURVE",
"298 -12 OFFCURVE",
"346 40 CURVE",
"359 148 LINE",
"349 197 LINE",
"331 44 LINE",
"292 8 OFFCURVE",
"218 3 OFFCURVE",
"180 5 CURVE",
"87 11 OFFCURVE",
"55 57 OFFCURVE",
"61 109 CURVE",
"70 179 OFFCURVE",
"137 203 OFFCURVE",
"189 200 CURVE",
"253 196 OFFCURVE",
"309 158 OFFCURVE",
"347 98 CURVE",
"353 107 LINE",
"325 169 OFFCURVE",
"261 210 OFFCURVE",
"190 215 CURVE",
"123 219 OFFCURVE",
"54 184 OFFCURVE",
"45 107 CURVE",
"38 55 OFFCURVE",
"74 -4 OFFCURVE",
"178 -10 CURVE"
);
},
{
closed = 1;
nodes = (
"369 238 LINE",
"372 259 LINE",
"380 328 OFFCURVE",
"358 375 OFFCURVE",
"265 380 CURVE",
"196 384 OFFCURVE",
"141 360 OFFCURVE",
"96 320 CURVE",
"103 308 LINE",
"161 358 OFFCURVE",
"211 369 OFFCURVE",
"263 365 CURVE",
"322 362 OFFCURVE",
"367 342 OFFCURVE",
"356 255 CURVE",
"349 198 LINE"
);
}
);
width = 758;
},
{
anchors = (
{
name = bottom;
position = "{390, 0}";
},
{
name = top;
position = "{444, 437}";
}
);
hints = (
{
horizontal = 1;
place = "{-8, 230}";
},
{
horizontal = 1;
place = "{136, 249}";
},
{
horizontal = 1;
place = "{-8, 21}";
target = up;
type = BottomGhost;
}
);
layerId = UUID1;
paths = (
{
closed = 1;
nodes = (
"588 -15 OFFCURVE",
"647 -1 OFFCURVE",
"697 23 CURVE",
"648 130 LINE",
"618 114 OFFCURVE",
"589 105 OFFCURVE",
"558 107 CURVE",
"494 111 OFFCURVE",
"450 156 OFFCURVE",
"460 237 CURVE",
"470 309 OFFCURVE",
"514 353 OFFCURVE",
"576 349 CURVE",
"631 345 OFFCURVE",
"651 313 OFFCURVE",
"658 278 CURVE",
"688 290 LINE",
"408 250 LINE",
"413 176 LINE",
"806 231 LINE",
"799 369 OFFCURVE",
"725 449 OFFCURVE",
"601 457 CURVE",
"461 466 OFFCURVE",
"337 369 OFFCURVE",
"321 238 CURVE",
"304 95 OFFCURVE",
"380 -2 OFFCURVE",
"540 -12 CURVE"
);
},
{
closed = 1;
nodes = (
"263 -15 OFFCURVE",
"331 11 OFFCURVE",
"377 62 CURVE",
"390 162 LINE",
"338 165 LINE",
"333 127 LINE",
"312 104 OFFCURVE",
"268 81 OFFCURVE",
"231 83 CURVE",
"196 85 OFFCURVE",
"175 103 OFFCURVE",
"179 133 CURVE",
"182 163 OFFCURVE",
"211 174 OFFCURVE",
"254 171 CURVE SMOOTH",
"295 169 OFFCURVE",
"312 163 OFFCURVE",
"346 141 CURVE",
"378 220 LINE",
"350 239 OFFCURVE",
"289 260 OFFCURVE",
"232 263 CURVE SMOOTH",
"132 269 OFFCURVE",
"34 223 OFFCURVE",
"25 139 CURVE",
"15 57 OFFCURVE",
"62 -3 OFFCURVE",
"179 -10 CURVE"
);
},
{
closed = 1;
nodes = (
"446 269 LINE",
"449 289 LINE SMOOTH",
"462 394 OFFCURVE",
"375 451 OFFCURVE",
"268 458 CURVE SMOOTH",
"176 463 OFFCURVE",
"106 424 OFFCURVE",
"56 380 CURVE",
"115 288 LINE",
"138 315 OFFCURVE",
"182 348 OFFCURVE",
"234 345 CURVE SMOOTH",
"255 344 OFFCURVE",
"318 324 OFFCURVE",
"310 259 CURVE",
"306 223 LINE"
);
}
);
width = 833;
}
);
leftMetricsKey = a;
rightMetricsKey = e;
unicode = 00E6;
},
{
glyphname = b;
lastChange = "2016-12-02 14:28:45 +0000";
layers = (
{
anchors = (
{
name = bottom;
position = "{268, 0}";
},
{
name = top;
position = "{314, 375}";
}
);
background = {
paths = (
{
closed = 1;
nodes = (
"382 -5 OFFCURVE",
"471 56 OFFCURVE",
"485 176 CURVE",
"486 184 OFFCURVE",
"486 192 OFFCURVE",
"486 199 CURVE SMOOTH",
"486 301 OFFCURVE",
"409 382 OFFCURVE",
"303 382 CURVE SMOOTH",
"226 382 OFFCURVE",
"155 337 OFFCURVE",
"120 271 CURVE",
"118 256 LINE",
"179 758 LINE",
"165 759 LINE",
"73 0 LINE",
"87 0 LINE",
"105 154 LINE",
"101 134 LINE",
"121 56 OFFCURVE",
"193 -5 OFFCURVE",
"282 -5 CURVE SMOOTH"
);
},
{
closed = 1;
nodes = (
"176 14 OFFCURVE",
"108 90 OFFCURVE",
"108 169 CURVE SMOOTH",
"108 174 OFFCURVE",
"108 180 OFFCURVE",
"109 185 CURVE",
"115 229 LINE",
"138 310 OFFCURVE",
"214 369 OFFCURVE",
"301 369 CURVE SMOOTH",
"410 369 OFFCURVE",
"473 292 OFFCURVE",
"473 201 CURVE SMOOTH",
"473 193 OFFCURVE",
"472 185 OFFCURVE",
"471 177 CURVE",
"458 72 OFFCURVE",
"383 1 OFFCURVE",
"269 8 CURVE SMOOTH"
);
}
);
};
hints = (
{
horizontal = 1;
place = "{750, -20}";
target = down;
type = TopGhost;
},
{
horizontal = 1;
place = "{-6, 21}";
target = up;
type = BottomGhost;
}
);
layerId = UUID0;
paths = (
{
closed = 1;
nodes = (
"434 -5 OFFCURVE",
"486 102 OFFCURVE",
"486 201 CURVE SMOOTH",
"486 307 OFFCURVE",
"415 382 OFFCURVE",
"303 382 CURVE SMOOTH",
"226 382 OFFCURVE",
"155 337 OFFCURVE",
"120 271 CURVE",
"118 256 LINE",
"179 750 LINE",
"165 750 LINE",
"73 0 LINE",
"87 0 LINE",
"105 154 LINE",
"101 134 LINE",
"121 56 OFFCURVE",
"193 -5 OFFCURVE",
"282 -5 CURVE SMOOTH"
);
},
{
closed = 1;
nodes = (
"140 8 OFFCURVE",
"108 131 OFFCURVE",
"108 174 CURVE",
"115 229 LINE",
"138 310 OFFCURVE",
"214 369 OFFCURVE",
"301 369 CURVE SMOOTH",
"412 369 OFFCURVE",
"472 293 OFFCURVE",
"472 201 CURVE SMOOTH",
"472 118 OFFCURVE",
"429 8 OFFCURVE",
"285 8 CURVE SMOOTH"
);
}
);
width = 541;
},
{
anchors = (
{
name = bottom;
position = "{300, 0}";
},
{
name = top;
position = "{361, 500}";
}
);
hints = (
{
horizontal = 1;
place = "{750, -20}";
target = down;
type = TopGhost;
},
{
horizontal = 1;
place = "{-9, 21}";
target = up;
type = BottomGhost;
}
);
layerId = UUID1;
paths = (
{
closed = 1;
nodes = (
"479 -12 OFFCURVE",
"585 107 OFFCURVE",
"585 238 CURVE SMOOTH",
"585 390 OFFCURVE",
"488 459 OFFCURVE",
"382 459 CURVE",
"317 459 OFFCURVE",
"264 436 OFFCURVE",
"230 407 CURVE",
"225 362 LINE",
"277 789 LINE",
"138 789 LINE",
"41 0 LINE",
"181 0 LINE",
"192 85 LINE",
"177 55 LINE",
"209 15 OFFCURVE",
"253 -12 OFFCURVE",
"327 -12 CURVE"
);
},
{
closed = 1;
nodes = (
"255 106 OFFCURVE",
"222 134 OFFCURVE",
"203 178 CURVE",
"216 279 LINE",
"238 322 OFFCURVE",
"278 349 OFFCURVE",
"331 349 CURVE",
"397 349 OFFCURVE",
"442 307 OFFCURVE",
"442 229 CURVE SMOOTH",
"442 178 OFFCURVE",
"402 106 OFFCURVE",
"310 106 CURVE"
);
}
);
width = 626;
}
);
leftMetricsKey = n;
rightMetricsKey = o;
unicode = 0062;
},
{
glyphname = c;
lastChange = "2016-12-11 01:22:00 +0000";
layers = (
{
anchors = (
{
name = bottom;
position = "{187, 0}";
},
{
name = top;
position = "{233, 375}";
}
);
hints = (
{
horizontal = 1;
place = "{383, -20}";
target = down;
type = TopGhost;
},
{
horizontal = 1;
place = "{-6, 21}";
target = up;
type = BottomGhost;
}
);
layerId = UUID0;
paths = (
{
closed = 1;
nodes = (
"346 38 LINE",
"315 18 OFFCURVE",
"280 6 OFFCURVE",
"241 6 CURVE SMOOTH",
"142 6 OFFCURVE",
"70 82 OFFCURVE",
"70 175 CURVE SMOOTH",
"70 281 OFFCURVE",
"159 367 OFFCURVE",
"262 367 CURVE SMOOTH",
"309 367 OFFCURVE",
"352 348 OFFCURVE",
"382 319 CURVE",
"392 330 LINE",
"360 362 OFFCURVE",
"314 380 OFFCURVE",
"261 380 CURVE SMOOTH",
"151 380 OFFCURVE",
"56 288 OFFCURVE",
"56 175 CURVE SMOOTH",
"56 74 OFFCURVE",
"133 -7 OFFCURVE",
"240 -7 CURVE SMOOTH",
"282 -7 OFFCURVE",
"321 6 OFFCURVE",
"355 28 CURVE"
);
}
);
width = 420;
},
{
anchors = (
{
name = bottom;
position = "{201, 0}";
},
{
name = top;
position = "{273, 450}";
}
);
background = {
paths = (
{
closed = 1;
nodes = (
"360 120 LINE",
"341 107 OFFCURVE",
"318 100 OFFCURVE",
"291 100 CURVE SMOOTH",
"219 100 OFFCURVE",
"175 147 OFFCURVE",
"175 207 CURVE SMOOTH",
"175 281 OFFCURVE",
"229 332 OFFCURVE",
"288 332 CURVE SMOOTH",
"336 332 OFFCURVE",
"369 310 OFFCURVE",
"387 293 CURVE",
"466 378 LINE",
"427 417 OFFCURVE",
"368 447 OFFCURVE",
"279 447 CURVE SMOOTH",
"166 447 OFFCURVE",
"53 370 OFFCURVE",
"36 232 CURVE SMOOTH",
"35 220 OFFCURVE",
"34 208 OFFCURVE",
"34 197 CURVE SMOOTH",
"34 72 OFFCURVE",
"118 -5 OFFCURVE",
"255 -13 CURVE SMOOTH",
"311 -16 OFFCURVE",
"376 0 OFFCURVE",
"419 28 CURVE"
);
}
);
};
hints = (
{
horizontal = 1;
place = "{384, -20}";
target = down;
type = TopGhost;
},
{
horizontal = 1;
place = "{-9, 21}";
target = up;
type = BottomGhost;
}
);
layerId = UUID1;
paths = (
{
closed = 1;
nodes = (
"360 120 LINE",
"341 107 OFFCURVE",
"318 100 OFFCURVE",
"291 100 CURVE SMOOTH",
"219 100 OFFCURVE",
"175 147 OFFCURVE",
"175 207 CURVE SMOOTH",
"175 281 OFFCURVE",
"229 332 OFFCURVE",
"288 332 CURVE SMOOTH",
"336 332 OFFCURVE",
"369 310 OFFCURVE",
"387 293 CURVE",
"466 378 LINE",
"427 417 OFFCURVE",
"368 447 OFFCURVE",
"279 447 CURVE SMOOTH",
"112 447 OFFCURVE",
"34 312 OFFCURVE",
"34 197 CURVE SMOOTH",
"34 23 OFFCURVE",
"193 -13 OFFCURVE",
"266 -13 CURVE SMOOTH",
"319 -13 OFFCURVE",
"379 2 OFFCURVE",
"419 28 CURVE"
);
}
);
width = 482;
}
);
leftMetricsKey = o;
unicode = 0063;
},
{
glyphname = ccedilla;
lastChange = "2016-08-26 20:41:54 +0000";
layers = (
{
hints = (
{
horizontal = 1;
place = "{-223, 231}";
},
{
horizontal = 1;
place = "{383, -20}";
target = down;
type = TopGhost;
},
{
horizontal = 1;
place = "{383, -20}";
target = down;
type = TopGhost;
},
{
horizontal = 1;
place = "{-6, 21}";
target = up;
type = BottomGhost;
}
);
layerId = UUID0;
paths = (
{
closed = 1;
nodes = (
"349 47 LINE",
"315 23 OFFCURVE",
"274 8 OFFCURVE",
"231 8 CURVE SMOOTH",
"139 8 OFFCURVE",
"72 79 OFFCURVE",
"72 170 CURVE SMOOTH",
"72 278 OFFCURVE",
"168 369 OFFCURVE",
"276 369 CURVE SMOOTH",
"319 369 OFFCURVE",
"356 354 OFFCURVE",
"384 329 CURVE",
"387 333 OFFCURVE",
"392 336 OFFCURVE",
"395 340 CURVE",
"365 367 OFFCURVE",
"324 383 OFFCURVE",
"277 383 CURVE SMOOTH",
"161 383 OFFCURVE",
"58 285 OFFCURVE",
"58 168 CURVE SMOOTH",
"58 70 OFFCURVE",
"130 -6 OFFCURVE",
"230 -6 CURVE SMOOTH",
"277 -6 OFFCURVE",
"321 10 OFFCURVE",
"358 37 CURVE",
"355 40 OFFCURVE",
"352 44 OFFCURVE",
"349 47 CURVE"
);
},
{
closed = 1;
nodes = (
"228 0 LINE",
"213 0 LINE",
"211 -16 LINE SMOOTH",
"205 -66 OFFCURVE",
"280 -63 OFFCURVE",
"280 -128 CURVE SMOOTH",
"280 -174 OFFCURVE",
"245 -209 OFFCURVE",
"201 -209 CURVE SMOOTH",
"168 -209 OFFCURVE",
"145 -189 OFFCURVE",
"141 -161 CURVE",
"136 -162 OFFCURVE",
"130 -164 OFFCURVE",
"125 -165 CURVE",
"133 -204 OFFCURVE",
"164 -223 OFFCURVE",
"199 -223 CURVE SMOOTH",
"248 -223 OFFCURVE",
"295 -190 OFFCURVE",
"295 -122 CURVE SMOOTH",
"295 -105 OFFCURVE",
"286 -79 OFFCURVE",
"261 -61 CURVE SMOOTH",
"245 -50 OFFCURVE",
"221 -41 OFFCURVE",
"227 -6 CURVE SMOOTH"
);
}
);
width = 379;
},
{
hints = (
{
horizontal = 1;
place = "{-244, 316}";
},
{
horizontal = 1;
place = "{384, -20}";
target = down;
type = TopGhost;
},
{
horizontal = 1;
place = "{384, -20}";
target = down;
type = TopGhost;
},
{
horizontal = 1;
place = "{-9, 21}";
target = up;
type = BottomGhost;
}
);
layerId = UUID1;
paths = (
{
closed = 1;
nodes = (
"370 127 LINE",
"349 111 OFFCURVE",
"322 102 OFFCURVE",
"291 102 CURVE SMOOTH",
"225 102 OFFCURVE",
"186 148 OFFCURVE",
"186 206 CURVE SMOOTH",
"186 280 OFFCURVE",
"241 335 OFFCURVE",
"320 335 CURVE SMOOTH",
"350 335 OFFCURVE",
"376 326 OFFCURVE",
"393 311 CURVE",
"422 341 OFFCURVE",
"450 369 OFFCURVE",
"478 398 CURVE",
"440 429 OFFCURVE",
"392 449 OFFCURVE",
"334 449 CURVE SMOOTH",
"194 449 OFFCURVE",
"69 333 OFFCURVE",
"69 196 CURVE SMOOTH",
"69 82 OFFCURVE",
"157 -12 OFFCURVE",
"277 -12 CURVE SMOOTH",
"333 -12 OFFCURVE",
"387 8 OFFCURVE",
"430 39 CURVE",
"409 69 OFFCURVE",
"392 97 OFFCURVE",
"370 127 CURVE"
);
},
{
closed = 1;
nodes = (
"286 0 LINE",
"212 0 LINE",
"209 -25 LINE SMOOTH",
"201 -95 OFFCURVE",
"259 -89 OFFCURVE",
"259 -128 CURVE SMOOTH",
"259 -154 OFFCURVE",
"245 -180 OFFCURVE",
"213 -180 CURVE SMOOTH",
"191 -180 OFFCURVE",
"177 -166 OFFCURVE",
"174 -148 CURVE",
"151 -160 OFFCURVE",
"127 -172 OFFCURVE",
"104 -184 CURVE",
"117 -243 OFFCURVE",
"162 -271 OFFCURVE",
"213 -271 CURVE SMOOTH",
"305 -271 OFFCURVE",
"349 -195 OFFCURVE",
"349 -133 CURVE SMOOTH",
"349 -103 OFFCURVE",
"340 -79 OFFCURVE",
"321 -62 CURVE SMOOTH",
"306 -48 OFFCURVE",
"280 -48 OFFCURVE",
"285 -8 CURVE SMOOTH"
);
}
);
width = 468;
}
);
unicode = 00E7;
},
{
glyphname = d;
lastChange = "2016-12-07 17:20:25 +0000";
layers = (
{
anchors = (
{
name = bottom;
position = "{228, 0}";
},
{
name = center;
position = "{491, 586}";
},
{
name = top;
position = "{274, 375}";
},
{
name = topright;
position = "{559, 727}";
}
);
hints = (
{
horizontal = 1;
place = "{-6, 21}";
target = up;
type = BottomGhost;
},
{
horizontal = 1;
place = "{750, -20}";
target = down;
type = TopGhost;
}
);
layerId = UUID0;
paths = (
{
closed = 1;
nodes = (
"310 -9 OFFCURVE",
"387 38 OFFCURVE",
"424 108 CURVE",
"424 123 LINE",
"409 0 LINE",
"423 0 LINE",
"516 750 LINE",
"502 750 LINE",
"438 235 LINE",
"442 245 LINE",
"422 318 OFFCURVE",
"356 378 OFFCURVE",
"274 383 CURVE SMOOTH",
"169 390 OFFCURVE",
"71 318 OFFCURVE",
"57 201 CURVE SMOOTH",
"44 94 OFFCURVE",
"119 3 OFFCURVE",
"227 -3 CURVE SMOOTH"
);
},
{
closed = 1;
nodes = (
"129 16 OFFCURVE",
"59 101 OFFCURVE",
"71 200 CURVE SMOOTH",
"84 308 OFFCURVE",
"172 377 OFFCURVE",
"273 370 CURVE SMOOTH",
"363 365 OFFCURVE",
"430 291 OFFCURVE",
"434 204 CURVE",
"431 174 LINE",
"419 75 OFFCURVE",
"328 3 OFFCURVE",
"228 9 CURVE SMOOTH"
);
}
);
width = 542;
},
{
anchors = (
{
name = bottom;
position = "{324, 0}";
},
{
name = center;
position = "{324, 250}";
},
{
name = top;
position = "{324, 500}";
},
{
name = topright;
position = "{661, 500}";
}
);
hints = (
{
horizontal = 1;
place = "{-9, 21}";
target = up;
type = BottomGhost;
},
{
horizontal = 1;
place = "{750, -20}";
target = down;
type = TopGhost;
}
);
layerId = UUID1;
paths = (
{
closed = 1;
nodes = (
"309 -12 OFFCURVE",
"353 17 OFFCURVE",
"402 55 CURVE",
"395 85 LINE",
"384 0 LINE",
"524 0 LINE",
"621 789 LINE",
"482 789 LINE",
"430 362 LINE",
"454 394 LINE",
"424 430 OFFCURVE",
"367 459 OFFCURVE",
"297 459 CURVE",
"125 459 OFFCURVE",
"35 322 OFFCURVE",
"35 200 CURVE SMOOTH",
"35 85 OFFCURVE",
"125 -12 OFFCURVE",
"250 -12 CURVE"
);
},
{
closed = 1;
nodes = (
"224 106 OFFCURVE",
"179 151 OFFCURVE",
"179 221 CURVE SMOOTH",
"179 300 OFFCURVE",
"232 349 OFFCURVE",
"311 349 CURVE",
"367 349 OFFCURVE",
"408 322 OFFCURVE",
"419 279 CURVE",
"406 172 LINE",
"376 128 OFFCURVE",
"337 106 OFFCURVE",
"294 106 CURVE"
);
}
);
width = 627;
}
);
leftMetricsKey = o;
rightMetricsKey = n;
unicode = 0064;
},
{
glyphname = eth;
lastChange = "2016-12-12 21:25:46 +0000";
layers = (
{
background = {
paths = (
{
closed = 1;
nodes = (
"200 -5 OFFCURVE",
"237 -5 CURVE SMOOTH",
"348 -6 OFFCURVE",
"435 74 OFFCURVE",
"448 177 CURVE",
"450 192 OFFCURVE",
"451 207 OFFCURVE",
"451 222 CURVE SMOOTH",
"451 404 OFFCURVE",
"331 624 OFFCURVE",
"207 730 CURVE",
"200 722 LINE",
"317 621 OFFCURVE",
"436 392 OFFCURVE",
"436 241 CURVE",
"439 259 LINE",
"401 357 OFFCURVE",
"314 383 OFFCURVE",
"266 383 CURVE SMOOTH",
"162 385 OFFCURVE",
"72 305 OFFCURVE",
"58 200 CURVE",
"57 192 OFFCURVE",
"57 183 OFFCURVE",
"57 175 CURVE SMOOTH",
"57 21 OFFCURVE"
);
},
{
closed = 1;
nodes = (
"71 35 OFFCURVE",
"71 177 CURVE SMOOTH",
"71 184 OFFCURVE",
"71 192 OFFCURVE",
"72 199 CURVE",
"84 289 OFFCURVE",
"166 372 OFFCURVE",
"266 369 CURVE SMOOTH",
"299 369 OFFCURVE",
"434 342 OFFCURVE",
"434 199 CURVE SMOOTH",
"434 192 OFFCURVE",
"434 184 OFFCURVE",
"433 177 CURVE",
"420 81 OFFCURVE",
"340 6 OFFCURVE",
"238 8 CURVE SMOOTH",
"204 9 OFFCURVE"
);
},
{
closed = 1;
nodes = (
"367 688 LINE",
"190 592 LINE",
"197 583 LINE",
"374 681 LINE"
);
}
);
};
hints = (
{
horizontal = 1;
place = "{-6, 21}";
target = up;
type = BottomGhost;
},
{
horizontal = 1;
place = "{726, -20}";
target = down;
type = TopGhost;
}
);
layerId = UUID0;
paths = (
{
closed = 1;
nodes = (
"379 -5 OFFCURVE",
"451 107 OFFCURVE",
"451 222 CURVE SMOOTH",
"451 404 OFFCURVE",
"331 624 OFFCURVE",
"207 730 CURVE",
"200 722 LINE",
"317 621 OFFCURVE",
"436 392 OFFCURVE",
"436 241 CURVE",
"439 259 LINE",
"401 357 OFFCURVE",
"314 382 OFFCURVE",
"266 383 CURVE SMOOTH",
"122 386 OFFCURVE",
"57 288 OFFCURVE",
"57 185 CURVE SMOOTH",
"57 42 OFFCURVE",
"160 -5 OFFCURVE",
"237 -5 CURVE SMOOTH"
);
},
{
closed = 1;
nodes = (
"164 9 OFFCURVE",
"71 57 OFFCURVE",
"71 187 CURVE SMOOTH",
"71 274 OFFCURVE",
"129 373 OFFCURVE",
"266 369 CURVE SMOOTH",
"299 368 OFFCURVE",
"434 342 OFFCURVE",
"434 199 CURVE SMOOTH",
"434 144 OFFCURVE",
"389 6 OFFCURVE",
"238 8 CURVE SMOOTH"
);
},
{
closed = 1;
nodes = (
"371 690 LINE",
"190 592 LINE",
"197 583 LINE",
"374 681 LINE"
);
}
);
width = 504;
},
{
hints = (
{
horizontal = 1;
place = "{-6, 21}";
target = up;
type = BottomGhost;
},
{
horizontal = 1;
place = "{738, -20}";
target = down;
type = TopGhost;
}
);
layerId = UUID1;
paths = (
{
closed = 1;
nodes = (
"417 -21 OFFCURVE",
"520 120 OFFCURVE",
"542 301 CURVE",
"561 458 OFFCURVE",
"497 644 OFFCURVE",
"327 790 CURVE",
"212 704 LINE",
"355 567 OFFCURVE",
"421 470 OFFCURVE",
"394 248 CURVE",
"443 215 LINE",
"456 318 OFFCURVE",
"404 452 OFFCURVE",
"280 460 CURVE",
"160 467 OFFCURVE",
"55 373 OFFCURVE",
"38 239 CURVE",
"20 92 OFFCURVE",
"113 -2 OFFCURVE",
"243 -10 CURVE"
);
},
{
closed = 1;
nodes = (
"208 106 OFFCURVE",
"170 161 OFFCURVE",
"178 230 CURVE",
"187 299 OFFCURVE",
"238 348 OFFCURVE",
"298 344 CURVE",
"363 340 OFFCURVE",
"399 286 OFFCURVE",
"390 217 CURVE",
"382 148 OFFCURVE",
"334 99 OFFCURVE",
"269 103 CURVE"
);
},
{
closed = 1;
nodes = (
"510 749 LINE",
"213 597 LINE",
"247 501 LINE",
"544 654 LINE"
);
}
);
width = 574;
}
);
leftMetricsKey = o;
rightMetricsKey = o;
unicode = 00F0;
},
{
glyphname = dcroat;
lastChange = "2016-08-26 20:41:54 +0000";
layers = (
{
components = (
{
name = d;
}
);
layerId = UUID0;
paths = (
{
closed = 1;
nodes = (
"287 616 LINE",
"568 616 LINE",
"570 630 LINE",
"289 630 LINE"
);
}
);
width = 505;
},
{
components = (
{
name = d;
}
);
layerId = UUID1;
paths = (
{
closed = 1;
nodes = (
"335 601 LINE",
"643 601 LINE",
"655 700 LINE",
"347 700 LINE"
);
}
);
width = 595;
}
);
unicode = 0111;
},
{
glyphname = e;
lastChange = "2016-12-11 01:22:55 +0000";
layers = (
{
anchors = (
{
name = bottom;
position = "{210, 0}";
},
{
name = ogonek;
position = "{366, 11}";
},
{
name = top;
position = "{256, 375}";
}
);
hints = (
{
horizontal = 1;
place = "{384, -20}";
target = down;
type = TopGhost;
},
{
horizontal = 1;
place = "{-9, 21}";
target = up;
type = BottomGhost;
}
);
layerId = UUID0;
paths = (
{
closed = 1;
nodes = (
"133 7 OFFCURVE",
"69 90 OFFCURVE",
"69 177 CURVE SMOOTH",
"69 283 OFFCURVE",
"158 368 OFFCURVE",
"261 368 CURVE SMOOTH",
"338 368 OFFCURVE",
"390 314 OFFCURVE",
"411 250 CURVE",
"417 258 LINE",
"65 144 LINE",
"68 129 LINE",
"427 248 LINE",
"406 324 OFFCURVE",
"351 382 OFFCURVE",
"260 382 CURVE SMOOTH",
"150 382 OFFCURVE",
"55 290 OFFCURVE",
"55 175 CURVE SMOOTH",
"55 75 OFFCURVE",
"131 -6 OFFCURVE",
"238 -6 CURVE SMOOTH",
"285 -6 OFFCURVE",
"330 10 OFFCURVE",
"366 38 CURVE",
"357 48 LINE",
"325 22 OFFCURVE",
"283 7 OFFCURVE",
"239 7 CURVE SMOOTH"
);
}
);
width = 465;
},
{
anchors = (
{
name = bottom;
position = "{260, -20}";
},
{
name = ogonek;
position = "{389, 33}";
},
{
name = top;
position = "{298, 480}";
}
);
hints = (
{
horizontal = 1;
place = "{384, -20}";
target = down;
type = TopGhost;
},
{
horizontal = 1;
place = "{-9, 21}";
target = up;
type = BottomGhost;
}
);
layerId = UUID1;
paths = (
{
closed = 1;
nodes = (
"242 107 OFFCURVE",
"176 131 OFFCURVE",
"176 231 CURVE SMOOTH",
"176 289 OFFCURVE",
"208 348 OFFCURVE",
"290 348 CURVE SMOOTH",
"331 348 OFFCURVE",
"365 323 OFFCURVE",
"376 278 CURVE",
"425 293 LINE",
"151 222 LINE",
"173 144 LINE",
"525 231 LINE",
"501 417 OFFCURVE",
"397 457 OFFCURVE",
"295 457 CURVE SMOOTH",
"108 457 OFFCURVE",
"36 318 OFFCURVE",
"36 215 CURVE SMOOTH",
"36 62 OFFCURVE",
"131 -11 OFFCURVE",
"275 -11 CURVE",
"320 -11 OFFCURVE",
"371 2 OFFCURVE",
"415 23 CURVE",
"366 131 LINE",
"340 117 OFFCURVE",
"316 107 OFFCURVE",
"290 107 CURVE SMOOTH"
);
}
);
width = 552;
}
);
leftMetricsKey = o;
unicode = 0065;
},
{
glyphname = eogonek;
lastChange = "2016-12-12 21:23:29 +0000";
layers = (
{
hints = (
{
horizontal = 1;
place = "{384, -20}";
target = down;
type = TopGhost;
},
{
horizontal = 1;
place = "{-9, 21}";
target = up;
type = BottomGhost;
}
);
layerId = UUID0;
paths = (
{
closed = 1;
nodes = (
"334 -186 OFFCURVE",
"361 -161 OFFCURVE",
"374 -133 CURVE",
"363 -127 LINE",
"349 -152 OFFCURVE",
"328 -172 OFFCURVE",
"302 -172 CURVE",
"274 -172 OFFCURVE",
"247 -148 OFFCURVE",
"247 -111 CURVE",
"247 -65 OFFCURVE",
"277 -24 OFFCURVE",
"333 16 CURVE SMOOTH",
"344 24 OFFCURVE",
"355 31 OFFCURVE",
"366 38 CURVE",
"357 48 LINE",
"325 22 OFFCURVE",
"283 7 OFFCURVE",
"239 7 CURVE SMOOTH",
"133 7 OFFCURVE",
"69 90 OFFCURVE",
"69 177 CURVE SMOOTH",
"69 283 OFFCURVE",
"158 368 OFFCURVE",
"261 368 CURVE SMOOTH",
"338 368 OFFCURVE",
"390 314 OFFCURVE",
"411 250 CURVE",
"417 258 LINE",
"65 144 LINE",
"68 129 LINE",
"427 248 LINE",
"406 324 OFFCURVE",
"351 382 OFFCURVE",
"260 382 CURVE SMOOTH",
"150 382 OFFCURVE",
"55 290 OFFCURVE",
"55 175 CURVE SMOOTH",
"55 75 OFFCURVE",
"131 -6 OFFCURVE",
"238 -6 CURVE SMOOTH",
"271 -6 OFFCURVE",
"303 2 OFFCURVE",
"331 16 CURVE",
"344 36 LINE",
"287 2 OFFCURVE",
"232 -48 OFFCURVE",
"232 -111 CURVE",
"232 -156 OFFCURVE",
"265 -186 OFFCURVE",
"301 -186 CURVE"
);
}
);
width = 448;
},
{
hints = (
{
horizontal = 1;
place = "{384, -20}";
target = down;
type = TopGhost;
},
{
horizontal = 1;
place = "{-9, 21}";
target = up;
type = BottomGhost;
}
);
layerId = UUID1;
paths = (
{
closed = 1;
nodes = (
"336 -206 OFFCURVE",
"398 -179 OFFCURVE",
"434 -136 CURVE",
"393 -62 LINE",
"367 -93 OFFCURVE",
"342 -108 OFFCURVE",
"315 -106 CURVE",
"292 -105 OFFCURVE",
"272 -90 OFFCURVE",
"276 -61 CURVE SMOOTH",
"279 -37 OFFCURVE",
"303 -19 OFFCURVE",
"340 -3 CURVE SMOOTH",
"361 6 OFFCURVE",
"387 14 OFFCURVE",
"415 23 CURVE",
"366 131 LINE",
"340 117 OFFCURVE",
"316 107 OFFCURVE",
"290 107 CURVE SMOOTH",
"242 107 OFFCURVE",
"176 131 OFFCURVE",
"176 231 CURVE SMOOTH",
"176 289 OFFCURVE",
"208 348 OFFCURVE",
"290 348 CURVE SMOOTH",
"331 348 OFFCURVE",
"365 323 OFFCURVE",
"376 278 CURVE",
"425 293 LINE",
"151 222 LINE",
"173 144 LINE",
"525 231 LINE",
"501 417 OFFCURVE",
"397 457 OFFCURVE",
"295 457 CURVE SMOOTH",
"108 457 OFFCURVE",
"36 318 OFFCURVE",
"36 215 CURVE SMOOTH",
"36 62 OFFCURVE",
"131 -11 OFFCURVE",
"275 -11 CURVE",
"291 -1 OFFCURVE",
"312 10 OFFCURVE",
"328 20 CURVE",
"259 42 LINE",
"180 17 OFFCURVE",
"160 -46 OFFCURVE",
"160 -82 CURVE SMOOTH",
"160 -151 OFFCURVE",
"215 -198 OFFCURVE",
"290 -203 CURVE"
);
}
);
width = 552;
}
);
unicode = 0119;
},
{
glyphname = f;
lastChange = "2016-12-02 14:58:20 +0000";
layers = (
{
anchors = (
{
name = bottom;
position = "{79, 0}";
},
{
name = top;
position = "{289, 765}";
}
);
hints = (
{
horizontal = 1;
place = "{0, 21}";
target = up;
type = BottomGhost;
},
{
horizontal = 1;
place = "{750, -20}";
target = down;
type = TopGhost;
}
);
layerId = UUID0;
paths = (
{
closed = 1;
nodes = (
"107 0 LINE",
"151 359 LINE",
"281 359 LINE",
"282 372 LINE",
"152 372 LINE",
"179 589 LINE SMOOTH",
"193 706 OFFCURVE",
"227 745 OFFCURVE",
"291 745 CURVE SMOOTH",
"304 745 OFFCURVE",
"313 742 OFFCURVE",
"319 739 CURVE",
"327 749 LINE",
"315 753 OFFCURVE",
"303 756 OFFCURVE",
"291 756 CURVE SMOOTH",
"221 756 OFFCURVE",
"180 715 OFFCURVE",
"164 585 CURVE SMOOTH",
"138 372 LINE",
"73 372 LINE",
"72 359 LINE",
"137 359 LINE",
"93 0 LINE"
);
}
);
width = 284;
},
{
anchors = (
{
name = bottom;
position = "{201, 0}";
},
{
name = top;
position = "{201, 500}";
}
);
hints = (
{
horizontal = 1;
place = "{0, 21}";
target = up;
type = BottomGhost;
},
{
horizontal = 1;
place = "{751, -20}";
target = down;
type = TopGhost;
}
);
layerId = UUID1;
paths = (
{
closed = 1;
nodes = (
"224 0 LINE",
"262 315 LINE",
"394 315 LINE",
"410 439 LINE",
"278 439 LINE",
"296 587 LINE",
"303 645 OFFCURVE",
"334 671 OFFCURVE",
"374 671 CURVE",
"390 671 OFFCURVE",
"408 666 OFFCURVE",
"420 649 CURVE",
"492 750 LINE",
"460 775 OFFCURVE",
"410 786 OFFCURVE",
"373 786 CURVE",
"248 786 OFFCURVE",
"170 705 OFFCURVE",
"156 591 CURVE",
"138 439 LINE",
"64 439 LINE",
"48 315 LINE",
"122 315 LINE",
"84 0 LINE"
);
}
);
width = 436;
}
);
unicode = 0066;
},
{
glyphname = g;
lastChange = "2016-12-11 01:22:20 +0000";
layers = (
{
anchors = (
{
name = bottom;
position = "{217, -178}";
},
{
name = top;
position = "{294, 375}";
}
);
hints = (
{
horizontal = 1;
place = "{382, -20}";
target = down;
type = TopGhost;
},
{
horizontal = 1;
place = "{-251, 21}";
target = up;
type = BottomGhost;
}
);
layerId = UUID0;
paths = (
{
closed = 1;
nodes = (
"365 -179 OFFCURVE",
"411 -100 OFFCURVE",
"421 -19 CURVE SMOOTH",
"470 375 LINE",
"460 375 LINE",
"440 249 LINE",
"419 326 OFFCURVE",
"348 382 OFFCURVE",
"260 382 CURVE SMOOTH",
"109 382 OFFCURVE",
"56 247 OFFCURVE",
"56 177 CURVE SMOOTH",
"56 76 OFFCURVE",
"133 -5 OFFCURVE",
"239 -5 CURVE SMOOTH",
"317 -5 OFFCURVE",
"393 43 OFFCURVE",
"429 116 CURVE",
"424 120 LINE",
"406 -18 LINE",
"394 -98 OFFCURVE",
"353 -166 OFFCURVE",
"228 -166 CURVE SMOOTH",
"183 -166 OFFCURVE",
"126 -163 OFFCURVE",
"57 -83 CURVE",
"48 -91 LINE",
"118 -174 OFFCURVE",
"177 -179 OFFCURVE",
"229 -179 CURVE SMOOTH"
);
},
{
closed = 1;
nodes = (
"114 369 OFFCURVE",
"261 369 CURVE SMOOTH",
"356 369 OFFCURVE",
"430 297 OFFCURVE",
"435 207 CURVE",
"430 167 LINE",
"419 81 OFFCURVE",
"335 8 OFFCURVE",
"239 8 CURVE SMOOTH",
"141 8 OFFCURVE",
"70 85 OFFCURVE",
"70 177 CURVE SMOOTH",
"70 240 OFFCURVE"
);
}
);
width = 542;
},
{
anchors = (
{
name = bottom;
position = "{287, 0}";
},
{
name = top;
position = "{337, 500}";
}
);
hints = (
{
horizontal = 1;
place = "{382, -20}";
target = down;
type = TopGhost;
},
{
horizontal = 1;
place = "{-251, 21}";
target = up;
type = BottomGhost;
}
);
layerId = UUID1;
paths = (
{
closed = 1;
nodes = (
"397 -220 OFFCURVE",
"516 -151 OFFCURVE",
"530 -23 CURVE",
"588 437 LINE",
"459 437 LINE",
"444 402 LINE",
"420 434 OFFCURVE",
"367 459 OFFCURVE",
"291 459 CURVE",
"118 459 OFFCURVE",
"36 315 OFFCURVE",
"36 217 CURVE SMOOTH",
"36 69 OFFCURVE",
"129 -12 OFFCURVE",
"250 -12 CURVE",
"331 -12 OFFCURVE",
"384 28 OFFCURVE",
"408 73 CURVE",
"406 98 LINE",
"395 2 LINE",
"388 -64 OFFCURVE",
"334 -98 OFFCURVE",
"277 -98 CURVE",
"200 -98 OFFCURVE",
"161 -66 OFFCURVE",
"131 -38 CURVE",
"37 -134 LINE",
"80 -170 OFFCURVE",
"135 -220 OFFCURVE",
"264 -220 CURVE"
);
},
{
closed = 1;
nodes = (
"217 345 OFFCURVE",
"316 345 CURVE",
"373 345 OFFCURVE",
"414 318 OFFCURVE",
"428 275 CURVE",
"415 168 LINE",
"385 124 OFFCURVE",
"343 102 OFFCURVE",
"299 102 CURVE",
"224 102 OFFCURVE",
"179 143 OFFCURVE",
"179 217 CURVE SMOOTH",
"179 270 OFFCURVE"
);
}
);
width = 637;
}
);
leftMetricsKey = o;
rightMetricsKey = n;
unicode = 0067;
},
{
glyphname = h;
lastChange = "2016-12-06 18:09:14 +0000";
layers = (
{
anchors = (
{
name = bottom;
position = "{218, 0}";
},
{
name = center;
position = "{150, 571}";
},
{
name = top;
position = "{164, 612}";
}
);
hints = (
{
horizontal = 1;
place = "{0, 21}";
target = up;
type = BottomGhost;
},
{
horizontal = 1;
place = "{750, -20}";
target = down;
type = TopGhost;
}
);
layerId = UUID0;
paths = (
{
closed = 1;
nodes = (
"178 750 LINE",
"164 750 LINE",
"72 0 LINE",
"86 0 LINE",
"113 220 LINE SMOOTH",
"124 306 OFFCURVE",
"210 368 OFFCURVE",
"300 368 CURVE",
"358 365 OFFCURVE",
"388 325 OFFCURVE",
"384 277 CURVE",
"350 0 LINE",
"364 0 LINE",
"397 270 LINE",
"403 336 OFFCURVE",
"365 382 OFFCURVE",
"295 382 CURVE SMOOTH",
"220 382 OFFCURVE",
"152 339 OFFCURVE",
"121 283 CURVE"
);
}
);
width = 482;
},
{
anchors = (
{
name = bottom;
position = "{282, 0}";
},
{
name = center;
position = "{182, 626}";
},
{
name = top;
position = "{196, 745}";
}
);
hints = (
{
horizontal = 1;
place = "{0, 21}";
target = up;
type = BottomGhost;
},
{
horizontal = 1;
place = "{750, -20}";
target = down;
type = TopGhost;
}
);
layerId = UUID1;
paths = (
{
closed = 1;
nodes = (
"275 789 LINE",
"138 789 LINE",
"42 0 LINE",
"182 0 LINE",
"204 178 LINE",
"215 271 OFFCURVE",
"264 339 OFFCURVE",
"329 339 CURVE",
"374 339 OFFCURVE",
"388 314 OFFCURVE",
"385 275 CURVE",
"352 0 LINE",
"492 0 LINE",
"532 327 LINE",
"539 404 OFFCURVE",
"484 458 OFFCURVE",
"402 458 CURVE",
"321 458 OFFCURVE",
"261 421 OFFCURVE",
"224 366 CURVE"
);
}
);
width = 595;
}
);
leftMetricsKey = n;
rightMetricsKey = n;
unicode = 0068;
},
{
glyphname = idotless;
lastChange = "2016-12-11 01:27:33 +0000";
layers = (
{
anchors = (
{
name = bottom;
position = "{84, 0}";
},
{
name = ogonek;
position = "{91, 10}";
},
{
name = top;
position = "{136, 375}";
}
);
hints = (
{
horizontal = 1;
place = "{0, 21}";
target = up;
type = BottomGhost;
},
{
horizontal = 1;
place = "{520, -20}";
target = down;
type = TopGhost;
}
);
layerId = UUID0;
paths = (
{
closed = 1;
nodes = (
"80 0 LINE",
"94 0 LINE",
"140 375 LINE",
"126 375 LINE"
);
}
);
width = 174;
},
{
anchors = (
{
name = bottom;
position = "{101, 0}";
},
{
name = ogonek;
position = "{136, 10}";
},
{
name = top;
position = "{161, 437}";
}
);
hints = (
{
horizontal = 1;
place = "{0, 21}";
target = up;
type = BottomGhost;
},
{
horizontal = 1;
place = "{573, -20}";
target = down;
type = TopGhost;
}
);
layerId = UUID1;
paths = (
{
closed = 1;
nodes = (
"41 0 LINE",
"181 0 LINE",
"235 437 LINE",
"95 437 LINE"
);
}
);
width = 284;
}
);
leftMetricsKey = n;
rightMetricsKey = n;
unicode = 0131;
},
{
glyphname = iogonek;
lastChange = "2016-12-12 21:28:07 +0000";
layers = (
{
components = (
{
name = dotaccentcomb;
transform = "{1, 0, 0, 1, 3, 0}";
}
);
hints = (
{
horizontal = 1;
place = "{0, 21}";
target = up;
type = BottomGhost;
},
{
horizontal = 1;
place = "{520, -20}";
target = down;
type = TopGhost;
}
);
layerId = UUID0;
paths = (
{
closed = 1;
nodes = (
"92 -184 OFFCURVE",
"119 -159 OFFCURVE",
"132 -131 CURVE",
"121 -125 LINE",
"107 -150 OFFCURVE",
"86 -170 OFFCURVE",
"60 -170 CURVE",
"32 -170 OFFCURVE",
"5 -146 OFFCURVE",
"5 -109 CURVE",
"5 -70 OFFCURVE",
"37 -33 OFFCURVE",
"95 1 CURVE",
"140 375 LINE",
"126 375 LINE",
"80 0 LINE",
"85 7 LINE",
"89 14 LINE",
"37 -13 OFFCURVE",
"-10 -58 OFFCURVE",
"-10 -109 CURVE",
"-10 -154 OFFCURVE",
"23 -184 OFFCURVE",
"59 -184 CURVE"
);
}
);
width = 174;
},
{
components = (
{
name = dotaccentcomb;
transform = "{1, 0, 0, 1, -32, -40}";
}
);
hints = (
{
horizontal = 1;
place = "{0, 21}";
target = up;
type = BottomGhost;
},
{
horizontal = 1;
place = "{573, -20}";
target = down;
type = TopGhost;
},
{
horizontal = 1;
place = "{0, 21}";
target = up;
type = BottomGhost;
},
{
horizontal = 1;
place = "{573, -20}";
target = down;
type = TopGhost;
}
);
layerId = UUID1;
paths = (
{
closed = 1;
nodes = (
"130 -235 OFFCURVE",
"192 -208 OFFCURVE",
"228 -165 CURVE",
"187 -91 LINE",
"161 -122 OFFCURVE",
"136 -137 OFFCURVE",
"109 -135 CURVE",
"86 -134 OFFCURVE",
"66 -124 OFFCURVE",
"70 -90 CURVE SMOOTH",
"74 -51 OFFCURVE",
"117 -26 OFFCURVE",
"181 0 CURVE",
"235 437 LINE",
"95 437 LINE",
"41 0 LINE",
"171 0 LINE",
"53 13 LINE",
"-26 -12 OFFCURVE",
"-46 -75 OFFCURVE",
"-46 -111 CURVE SMOOTH",
"-46 -180 OFFCURVE",
"9 -227 OFFCURVE",
"84 -232 CURVE"
);
}
);
width = 276;
}
);
unicode = 012F;
},
{
glyphname = jdotless;
lastChange = "2016-12-07 15:44:24 +0000";
layers = (
{
anchors = (
{
name = bottom;
position = "{94, 0}";
},
{
name = top;
position = "{130, 375}";
}
);
hints = (
{
horizontal = 1;
place = "{-180, 21}";
target = up;
type = BottomGhost;
},
{
horizontal = 1;
place = "{520, -20}";
target = down;
type = TopGhost;
}
);
layerId = UUID0;
paths = (
{
closed = 1;
nodes = (
"58 -146 OFFCURVE",
"84 -85 OFFCURVE",
"93 -7 CURVE SMOOTH",
"140 375 LINE",
"126 375 LINE",
"79 -11 LINE SMOOTH",
"71 -79 OFFCURVE",
"42 -134 OFFCURVE",
"4 -171 CURVE",
"15 -180 LINE"
);
}
);
width = 212;
},
{
anchors = (
{
name = bottom;
position = "{123, 0}";
},
{
name = top;
position = "{177, 437}";
}
);
layerId = UUID1;
paths = (
{
closed = 1;
nodes = (
"139 -172 OFFCURVE",
"183 -103 OFFCURVE",
"196 0 CURVE",
"250 437 LINE",
"110 437 LINE",
"57 8 LINE",
"50 -53 OFFCURVE",
"22 -95 OFFCURVE",
"-22 -124 CURVE",
"48 -211 LINE"
);
}
);
width = 299;
}
);
rightMetricsKey = n;
unicode = 0237;
},
{
glyphname = k;
lastChange = "2016-12-07 16:03:59 +0000";
layers = (
{
anchors = (
{
name = bottom;
position = "{186, 0}";
},
{
name = top;
position = "{232, 375}";
}
);
hints = (
{
horizontal = 1;
place = "{750, -20}";
target = down;
type = TopGhost;
},
{
horizontal = 1;
place = "{0, 21}";
target = up;
type = BottomGhost;
}
);
layerId = UUID0;
paths = (
{
closed = 1;
nodes = (
"86 0 LINE",
"178 750 LINE",
"164 750 LINE",
"72 0 LINE"
);
},
{
closed = 1;
nodes = (
"185 232 LINE",
"328 0 LINE",
"344 0 LINE",
"197 239 LINE"
);
},
{
closed = 1;
nodes = (
"364 374 LINE",
"355 382 LINE",
"99 166 LINE",
"97 149 LINE"
);
}
);
width = 417;
},
{
anchors = (
{
name = bottom;
position = "{248, 0}";
},
{
name = top;
position = "{302, 437}";
}
);
hints = (
{
horizontal = 1;
place = "{750, -20}";
target = down;
type = TopGhost;
},
{
horizontal = 1;
place = "{0, 21}";
target = up;
type = BottomGhost;
}
);
layerId = UUID1;
paths = (
{
closed = 1;
nodes = (
"182 0 LINE",
"278 789 LINE",
"138 789 LINE",
"42 0 LINE"
);
},
{
closed = 1;
nodes = (
"227 217 LINE",
"328 0 LINE",
"491 0 LINE",
"329 297 LINE"
);
},
{
closed = 1;
nodes = (
"520 373 LINE",
"445 448 LINE",
"157 254 LINE",
"155 121 LINE"
);
}
);
width = 543;
}
);
leftMetricsKey = n;
unicode = 006B;
},
{
glyphname = kgreenlandic;
lastChange = "2016-12-11 01:29:48 +0000";
layers = (
{
hints = (
{
horizontal = 1;
place = "{0, 21}";
target = up;
type = BottomGhost;
},
{
horizontal = 1;
place = "{701, -20}";
target = down;
type = TopGhost;
},
{
horizontal = 1;
place = "{700, -20}";
target = down;
type = TopGhost;
}
);
layerId = UUID0;
paths = (
{
closed = 1;
nodes = (
"372 375 LINE",
"351 375 LINE",
"95 156 LINE",
"98 142 LINE"
);
},
{
closed = 1;
nodes = (
"132 375 LINE",
"118 375 LINE",
"72 0 LINE",
"86 0 LINE"
);
},
{
closed = 1;
nodes = (
"151 198 LINE",
"317 0 LINE",
"335 0 LINE",
"159 209 LINE"
);
}
);
width = 413;
},
{
layerId = UUID1;
paths = (
{
closed = 1;
nodes = (
"550 437 LINE",
"382 437 LINE",
"181 239 LINE",
"186 116 LINE"
);
},
{
closed = 1;
nodes = (
"235 437 LINE",
"95 437 LINE",
"41 0 LINE",
"181 0 LINE"
);
},
{
closed = 1;
nodes = (
"215 194 LINE",
"331 0 LINE",
"492 0 LINE",
"330 254 LINE"
);
}
);
width = 558;
}
);
leftMetricsKey = n;
unicode = 0138;
},
{
glyphname = l;
lastChange = "2016-12-12 22:08:26 +0000";
layers = (
{
anchors = (
{
name = bottom;
position = "{79, 0}";
},
{
name = center;
position = "{102, 188}";
},
{
name = top;
position = "{164, 750}";
},
{
name = topright;
position = "{251, 750}";
}
);
hints = (
{
horizontal = 1;
place = "{750, -20}";
target = down;
type = TopGhost;
},
{
horizontal = 1;
place = "{0, 21}";
target = up;
type = BottomGhost;
}
);
layerId = UUID0;
paths = (
{
closed = 1;
nodes = (
"72 0 LINE",
"86 0 LINE",
"178 750 LINE",
"164 750 LINE"
);
}
);
width = 204;
},
{
anchors = (
{
name = bottom;
position = "{116, 0}";
},
{
name = center;
position = "{143, 309}";
},
{
name = top;
position = "{199, 776}";
},
{
name = topright;
position = "{346, 736}";
}
);
hints = (
{
horizontal = 1;
place = "{750, -20}";
target = down;
type = TopGhost;
},
{
horizontal = 1;
place = "{0, 21}";
target = up;
type = BottomGhost;
}
);
layerId = UUID1;
paths = (
{
closed = 1;
nodes = (
"42 0 LINE",
"182 0 LINE",
"278 789 LINE",
"138 789 LINE"
);
}
);
width = 285;
}
);
leftMetricsKey = n;
rightMetricsKey = n;
unicode = 006C;
},
{
glyphname = lslash;
lastChange = "2016-12-12 20:15:57 +0000";
layers = (
{
components = (
{
name = l;
}
);
layerId = UUID0;
paths = (
{
closed = 1;
nodes = (
"59 293 LINE",
"57 279 LINE",
"215 335 LINE",
"217 349 LINE"
);
}
);
width = 174;
},
{
components = (
{
name = l;
transform = "{1, 0, 0, 1, 13, 0}";
}
);
layerId = UUID1;
paths = (
{
closed = 1;
nodes = (
"31 346 LINE",
"17 225 LINE",
"310 292 LINE",
"324 413 LINE"
);
}
);
width = 316;
}
);
unicode = 0142;
},
{
glyphname = m;
lastChange = "2016-12-02 14:28:49 +0000";
layers = (
{
anchors = (
{
name = bottom;
position = "{357, 0}";
},
{
name = top;
position = "{403, 375}";
}
);
hints = (
{
horizontal = 1;
place = "{0, 21}";
target = up;
type = BottomGhost;
},
{
horizontal = 1;
place = "{382, -20}";
target = down;
type = TopGhost;
}
);
layerId = UUID0;
paths = (
{
closed = 1;
nodes = (
"118 375 LINE",
"72 0 LINE",
"86 0 LINE",
"113 220 LINE SMOOTH",
"124 306 OFFCURVE",
"210 368 OFFCURVE",
"300 368 CURVE",
"358 365 OFFCURVE",
"388 325 OFFCURVE",
"384 277 CURVE",
"350 0 LINE",
"364 0 LINE",
"392 226 LINE",
"406 309 OFFCURVE",
"490 368 OFFCURVE",
"578 368 CURVE",
"636 365 OFFCURVE",
"666 325 OFFCURVE",
"662 277 CURVE",
"628 0 LINE",
"642 0 LINE",
"675 270 LINE",
"681 336 OFFCURVE",
"643 382 OFFCURVE",
"573 382 CURVE SMOOTH",
"500 382 OFFCURVE",
"433 341 OFFCURVE",
"398 282 CURVE",
"398 341 OFFCURVE",
"360 382 OFFCURVE",
"295 382 CURVE SMOOTH",
"220 382 OFFCURVE",
"152 339 OFFCURVE",
"117 277 CURVE",
"128 375 LINE"
);
}
);
width = 760;
},
{
anchors = (
{
name = bottom;
position = "{461, 0}";
},
{
name = top;
position = "{461, 500}";
}
);
hints = (
{
horizontal = 1;
place = "{0, 21}";
target = up;
type = BottomGhost;
},
{
horizontal = 1;
place = "{384, -20}";
target = down;
type = TopGhost;
}
);
layerId = UUID1;
paths = (
{
closed = 1;
nodes = (
"95 437 LINE",
"42 0 LINE",
"182 0 LINE",
"204 181 LINE",
"213 257 OFFCURVE",
"258 338 OFFCURVE",
"324 338 CURVE",
"363 335 OFFCURVE",
"368 309 OFFCURVE",
"365 270 CURVE",
"332 0 LINE",
"472 0 LINE",
"494 179 LINE",
"503 257 OFFCURVE",
"548 338 OFFCURVE",
"617 338 CURVE",
"655 335 OFFCURVE",
"658 309 OFFCURVE",
"655 270 CURVE",
"622 0 LINE",
"761 0 LINE",
"801 328 LINE",
"809 405 OFFCURVE",
"761 459 OFFCURVE",
"674 459 CURVE",
"615 459 OFFCURVE",
"560 429 OFFCURVE",
"516 372 CURVE",
"509 433 OFFCURVE",
"464 459 OFFCURVE",
"393 459 CURVE",
"320 459 OFFCURVE",
"265 425 OFFCURVE",
"224 366 CURVE",
"222 437 LINE"
);
}
);
width = 864;
}
);
leftMetricsKey = n;
rightMetricsKey = n;
unicode = 006D;
},
{
glyphname = n;
lastChange = "2016-12-02 14:27:53 +0000";
layers = (
{
anchors = (
{
name = bottom;
position = "{218, 0}";
},
{
name = top;
position = "{264, 375}";
}
);
hints = (
{
horizontal = 1;
place = "{0, 21}";
target = up;
type = BottomGhost;
},
{
horizontal = 1;
place = "{382, -20}";
target = down;
type = TopGhost;
}
);
layerId = UUID0;
paths = (
{
closed = 1;
nodes = (
"118 375 LINE",
"72 0 LINE",
"86 0 LINE",
"113 220 LINE SMOOTH",
"123 306 OFFCURVE",
"202 368 OFFCURVE",
"289 368 CURVE SMOOTH",
"354 368 OFFCURVE",
"391 328 OFFCURVE",
"383 272 CURVE SMOOTH",
"350 0 LINE",
"364 0 LINE",
"397 270 LINE SMOOTH",
"406 337 OFFCURVE",
"365 382 OFFCURVE",
"289 382 CURVE SMOOTH",
"212 382 OFFCURVE",
"148 339 OFFCURVE",
"116 277 CURVE",
"120 270 LINE",
"128 375 LINE"
);
}
);
width = 482;
},
{
anchors = (
{
name = bottom;
position = "{267, 0}";
},
{
name = top;
position = "{329, 500}";
}
);
hints = (
{
horizontal = 1;
place = "{0, 21}";
target = up;
type = BottomGhost;
},
{
horizontal = 1;
place = "{384, -20}";
target = down;
type = TopGhost;
}
);
layerId = UUID1;
paths = (
{
closed = 1;
nodes = (
"95 437 LINE",
"42 0 LINE",
"182 0 LINE",
"204 178 LINE",
"215 271 OFFCURVE",
"264 339 OFFCURVE",
"329 339 CURVE",
"374 339 OFFCURVE",
"388 314 OFFCURVE",
"386 275 CURVE",
"352 0 LINE",
"492 0 LINE",
"532 327 LINE",
"539 404 OFFCURVE",
"484 458 OFFCURVE",
"402 458 CURVE",
"321 458 OFFCURVE",
"257 421 OFFCURVE",
"220 366 CURVE",
"225 350 LINE",
"222 437 LINE"
);
}
);
width = 595;
}
);
unicode = 006E;
},
{
glyphname = eng;
lastChange = "2016-12-12 20:02:20 +0000";
layers = (
{
layerId = UUID0;
width = 600;
},
{
layerId = UUID1;
paths = (
{
closed = 1;
nodes = (
"532 327 LINE",
"539 404 OFFCURVE",
"484 458 OFFCURVE",
"402 458 CURVE",
"321 458 OFFCURVE",
"261 421 OFFCURVE",
"224 366 CURVE",
"222 437 LINE",
"95 437 LINE",
"42 0 LINE",
"182 0 LINE",
"204 178 LINE",
"215 271 OFFCURVE",
"264 339 OFFCURVE",
"329 339 CURVE",
"374 339 OFFCURVE",
"388 314 OFFCURVE",
"386 275 CURVE",
"353 8 LINE SMOOTH",
"345 -53 OFFCURVE",
"318 -95 OFFCURVE",
"275 -124 CURVE",
"344 -211 LINE",
"344 -211 LINE",
"433 -167 OFFCURVE",
"481 -89 OFFCURVE",
"493 7 CURVE SMOOTH"
);
}
);
width = 595;
}
);
leftMetricsKey = n;
rightMetricsKey = n;
unicode = 014B;
},
{
glyphname = o;
lastChange = "2016-12-11 01:30:37 +0000";
layers = (
{
anchors = (
{
name = bottom;
position = "{217, 0}";
},
{
name = center;
position = "{240, 188}";
},
{
name = ogonek;
position = "{270, -5}";
},
{
name = top;
position = "{263, 375}";
},
{
name = topright;
position = "{330, 373}";
}
);
background = {
paths = (
{
closed = 1;
nodes = (
"341 -5 OFFCURVE",
"431 75 OFFCURVE",
"443 178 CURVE",
"444 186 OFFCURVE",
"444 194 OFFCURVE",
"444 202 CURVE SMOOTH",
"444 305 OFFCURVE",
"368 383 OFFCURVE",
"262 383 CURVE SMOOTH",
"159 383 OFFCURVE",
"69 303 OFFCURVE",
"57 200 CURVE",
"56 192 OFFCURVE",
"56 184 OFFCURVE",
"56 176 CURVE SMOOTH",
"56 73 OFFCURVE",
"132 -5 OFFCURVE",
"238 -5 CURVE SMOOTH"
);
},
{
closed = 1;
nodes = (
"141 8 OFFCURVE",
"70 85 OFFCURVE",
"70 177 CURVE SMOOTH",
"70 184 OFFCURVE",
"70 192 OFFCURVE",
"71 199 CURVE",
"82 288 OFFCURVE",
"163 370 OFFCURVE",
"262 370 CURVE SMOOTH",
"361 370 OFFCURVE",
"430 293 OFFCURVE",
"430 201 CURVE SMOOTH",
"430 194 OFFCURVE",
"430 186 OFFCURVE",
"429 179 CURVE",
"418 90 OFFCURVE",
"339 8 OFFCURVE",
"240 8 CURVE SMOOTH"
);
}
);
};
hints = (
{
horizontal = 1;
place = "{-6, 21}";
target = up;
type = BottomGhost;
},
{
horizontal = 1;
place = "{384, -20}";
target = down;
type = TopGhost;
}
);
layerId = UUID0;
paths = (
{
closed = 1;
nodes = (
"378 -6 OFFCURVE",
"444 103 OFFCURVE",
"444 201 CURVE SMOOTH",
"444 304 OFFCURVE",
"368 382 OFFCURVE",
"262 382 CURVE SMOOTH",
"122 382 OFFCURVE",
"56 273 OFFCURVE",
"56 175 CURVE SMOOTH",
"56 72 OFFCURVE",
"132 -6 OFFCURVE",
"238 -6 CURVE SMOOTH"
);
},
{
closed = 1;
nodes = (
"140 7 OFFCURVE",
"70 84 OFFCURVE",
"70 176 CURVE SMOOTH",
"70 270 OFFCURVE",
"131 369 OFFCURVE",
"261 369 CURVE SMOOTH",
"360 369 OFFCURVE",
"430 292 OFFCURVE",
"430 200 CURVE SMOOTH",
"430 106 OFFCURVE",
"369 7 OFFCURVE",
"239 7 CURVE SMOOTH"
);
}
);
width = 499;
},
{
anchors = (
{
name = bottom;
position = "{275, 0}";
},
{
name = center;
position = "{275, 250}";
},
{
name = ogonek;
position = "{406, 10}";
},
{
name = top;
position = "{295, 450}";
},
{
name = topright;
position = "{438, 343}";
}
);
hints = (
{
horizontal = 1;
place = "{-9, 21}";
target = up;
type = BottomGhost;
},
{
horizontal = 1;
place = "{384, -20}";
target = down;
type = TopGhost;
}
);
layerId = UUID1;
paths = (
{
closed = 1;
nodes = (
"483 -12 OFFCURVE",
"533 156 OFFCURVE",
"533 241 CURVE SMOOTH",
"533 382 OFFCURVE",
"411 457 OFFCURVE",
"294 457 CURVE SMOOTH",
"101 457 OFFCURVE",
"35 311 OFFCURVE",
"35 204 CURVE SMOOTH",
"35 51 OFFCURVE",
"173 -12 OFFCURVE",
"276 -12 CURVE SMOOTH"
);
},
{
closed = 1;
nodes = (
"243 103 OFFCURVE",
"176 121 OFFCURVE",
"176 211 CURVE SMOOTH",
"176 265 OFFCURVE",
"207 343 OFFCURVE",
"289 343 CURVE SMOOTH",
"319 343 OFFCURVE",
"391 329 OFFCURVE",
"391 235 CURVE SMOOTH",
"391 183 OFFCURVE",
"365 103 OFFCURVE",
"280 103 CURVE SMOOTH"
);
}
);
width = 574;
}
);
unicode = 006F;
},
{
glyphname = ohorn;
lastChange = "2016-12-12 21:29:25 +0000";
layers = (
{
anchors = (
{
name = bottom;
position = "{217, 0}";
},
{
name = center;
position = "{240, 188}";
},
{
name = ogonek;
position = "{270, -5}";
},
{
name = top;
position = "{263, 375}";
},
{
name = topright;
position = "{330, 373}";
}
);
components = (
{
name = horncomb;
transform = "{1, 0, 0, 1, 177, -327}";
}
);
hints = (
{
horizontal = 1;
place = "{-6, 21}";
target = up;
type = BottomGhost;
},
{
horizontal = 1;
place = "{384, -20}";
target = down;
type = TopGhost;
}
);
layerId = UUID0;
paths = (
{
closed = 1;
nodes = (
"378 -6 OFFCURVE",
"444 103 OFFCURVE",
"444 201 CURVE SMOOTH",
"444 304 OFFCURVE",
"368 382 OFFCURVE",
"262 382 CURVE SMOOTH",
"122 382 OFFCURVE",
"56 273 OFFCURVE",
"56 175 CURVE SMOOTH",
"56 72 OFFCURVE",
"132 -6 OFFCURVE",
"238 -6 CURVE SMOOTH"
);
},
{
closed = 1;
nodes = (
"140 7 OFFCURVE",
"70 84 OFFCURVE",
"70 176 CURVE SMOOTH",
"70 270 OFFCURVE",
"131 369 OFFCURVE",
"261 369 CURVE SMOOTH",
"360 369 OFFCURVE",
"430 292 OFFCURVE",
"430 200 CURVE SMOOTH",
"430 106 OFFCURVE",
"369 7 OFFCURVE",
"239 7 CURVE SMOOTH"
);
}
);
width = 499;
},
{
anchors = (
{
name = _topright;
position = "{438, 343}";
},
{
name = bottom;
position = "{275, 0}";
},
{
name = center;
position = "{275, 250}";
},
{
name = ogonek;
position = "{406, 10}";
},
{
name = top;
position = "{295, 450}";
},
{
name = topright;
position = "{437, 209}";
}
);
hints = (
{
horizontal = 1;
place = "{-9, 21}";
target = up;
type = BottomGhost;
},
{
horizontal = 1;
place = "{384, -20}";
target = down;
type = TopGhost;
}
);
layerId = UUID1;
paths = (
{
closed = 1;
nodes = (
"483 -12 OFFCURVE",
"533 156 OFFCURVE",
"533 241 CURVE SMOOTH",
"533 382 OFFCURVE",
"411 457 OFFCURVE",
"294 457 CURVE SMOOTH",
"101 457 OFFCURVE",
"35 311 OFFCURVE",
"35 204 CURVE SMOOTH",
"35 51 OFFCURVE",
"173 -12 OFFCURVE",
"276 -12 CURVE SMOOTH"
);
},
{
closed = 1;
nodes = (
"432 298 LINE",
"525 292 OFFCURVE",
"602 327 OFFCURVE",
"640 461 CURVE",
"537 461 LINE",
"518 405 OFFCURVE",
"489 378 OFFCURVE",
"442 381 CURVE"
);
},
{
closed = 1;
nodes = (
"243 103 OFFCURVE",
"176 121 OFFCURVE",
"176 211 CURVE SMOOTH",
"176 265 OFFCURVE",
"207 343 OFFCURVE",
"289 343 CURVE SMOOTH",
"319 343 OFFCURVE",
"391 329 OFFCURVE",
"391 235 CURVE SMOOTH",
"391 183 OFFCURVE",
"365 103 OFFCURVE",
"280 103 CURVE SMOOTH"
);
}
);
width = 615;
}
);
unicode = 01A1;
},
{
glyphname = oogonek;
lastChange = "2016-12-12 21:28:19 +0000";
layers = (
{
components = (
{
name = o;
},
{
name = ogonekcomb;
transform = "{1, 0, 0, 1, 96, -13}";
}
);
layerId = UUID0;
width = 499;
},
{
anchors = (
{
name = _ogonek;
position = "{406, 10}";
},
{
name = bottom;
position = "{275, 0}";
},
{
name = center;
position = "{275, 250}";
},
{
name = ogonek;
position = "{406, 10}";
},
{
name = top;
position = "{295, 450}";
},
{
name = topright;
position = "{438, 343}";
}
);
hints = (
{
horizontal = 1;
place = "{-9, 21}";
target = up;
type = BottomGhost;
},
{
horizontal = 1;
place = "{384, -20}";
target = down;
type = TopGhost;
}
);
layerId = UUID1;
paths = (
{
closed = 1;
nodes = (
"288 35 LINE",
"209 4 OFFCURVE",
"177 -60 OFFCURVE",
"177 -105 CURVE SMOOTH",
"177 -174 OFFCURVE",
"232 -221 OFFCURVE",
"307 -226 CURVE",
"353 -229 OFFCURVE",
"415 -202 OFFCURVE",
"451 -159 CURVE",
"410 -85 LINE",
"384 -116 OFFCURVE",
"359 -131 OFFCURVE",
"332 -129 CURVE",
"309 -128 OFFCURVE",
"289 -113 OFFCURVE",
"293 -84 CURVE SMOOTH",
"300 -32 OFFCURVE",
"365 -17 OFFCURVE",
"434 33 CURVE SMOOTH",
"512 89 OFFCURVE",
"533 184 OFFCURVE",
"533 241 CURVE SMOOTH",
"533 382 OFFCURVE",
"411 457 OFFCURVE",
"294 457 CURVE SMOOTH",
"101 457 OFFCURVE",
"35 311 OFFCURVE",
"35 204 CURVE SMOOTH",
"35 51 OFFCURVE",
"173 -12 OFFCURVE",
"276 -12 CURVE SMOOTH",
"344 -12 OFFCURVE",
"374 8 OFFCURVE",
"411 35 CURVE"
);
},
{
closed = 1;
nodes = (
"243 103 OFFCURVE",
"176 121 OFFCURVE",
"176 211 CURVE SMOOTH",
"176 265 OFFCURVE",
"207 343 OFFCURVE",
"289 343 CURVE SMOOTH",
"319 343 OFFCURVE",
"391 329 OFFCURVE",
"391 235 CURVE SMOOTH",
"391 183 OFFCURVE",
"365 103 OFFCURVE",
"280 103 CURVE SMOOTH"
);
}
);
width = 574;
}
);
unicode = 01EB;
},
{
glyphname = oslash;
lastChange = "2016-08-26 20:41:54 +0000";
layers = (
{
components = (
{
name = o;
}
);
hints = (
{
horizontal = 1;
place = "{-8, 21}";
target = up;
type = BottomGhost;
},
{
horizontal = 1;
place = "{383, -20}";
target = down;
type = TopGhost;
}
);
layerId = UUID0;
paths = (
{
closed = 1;
nodes = (
"415 375 LINE",
"336 293 OFFCURVE",
"143 92 OFFCURVE",
"64 10 CURVE",
"71 0 LINE",
"150 83 OFFCURVE",
"344 283 OFFCURVE",
"423 366 CURVE"
);
}
);
width = 468;
},
{
components = (
{
name = o;
}
);
hints = (
{
horizontal = 1;
place = "{-26, 21}";
target = up;
type = BottomGhost;
},
{
horizontal = 1;
place = "{401, -20}";
target = down;
type = TopGhost;
}
);
layerId = UUID1;
paths = (
{
closed = 1;
nodes = (
"500 474 LINE",
"450 423 OFFCURVE",
"88 65 OFFCURVE",
"38 14 CURVE",
"89 -37 LINE",
"140 15 OFFCURVE",
"503 374 OFFCURVE",
"555 426 CURVE"
);
}
);
width = 546;
}
);
unicode = 00F8;
},
{
glyphname = oe;
lastChange = "2016-12-12 21:30:57 +0000";
layers = (
{
anchors = (
{
name = bottom;
position = "{321, 0}";
},
{
name = top;
position = "{367, 375}";
}
);
components = (
{
alignment = -1;
name = e;
transform = "{1, 0, 0, 1, 223, 0}";
}
);
hints = (
{
horizontal = 1;
place = "{384, -20}";
target = down;
type = TopGhost;
},
{
horizontal = 1;
place = "{-9, 21}";
target = up;
type = BottomGhost;
},
{
horizontal = 1;
place = "{-6, 21}";
target = up;
type = BottomGhost;
},
{
horizontal = 1;
place = "{384, -20}";
target = down;
type = TopGhost;
},
{
horizontal = 1;
place = "{383, -20}";
target = down;
type = TopGhost;
},
{
horizontal = 1;
place = "{-6, 21}";
target = up;
type = BottomGhost;
}
);
layerId = UUID0;
paths = (
{
closed = 1;
nodes = (
"282 -7 OFFCURVE",
"321 6 OFFCURVE",
"355 28 CURVE",
"346 38 LINE",
"315 18 OFFCURVE",
"280 6 OFFCURVE",
"241 6 CURVE SMOOTH",
"142 6 OFFCURVE",
"70 82 OFFCURVE",
"70 175 CURVE SMOOTH",
"70 281 OFFCURVE",
"159 367 OFFCURVE",
"262 367 CURVE SMOOTH",
"301 367 OFFCURVE",
"337 354 OFFCURVE",
"365 333 CURVE",
"379 342 LINE",
"348 366 OFFCURVE",
"307 380 OFFCURVE",
"261 380 CURVE SMOOTH",
"151 380 OFFCURVE",
"56 288 OFFCURVE",
"56 175 CURVE SMOOTH",
"56 74 OFFCURVE",
"133 -7 OFFCURVE",
"240 -7 CURVE SMOOTH"
);
}
);
width = 688;
},
{
anchors = (
{
name = bottom;
position = "{370, 0}";
},
{
name = top;
position = "{424, 437}";
}
);
components = (
{
alignment = -1;
name = e;
transform = "{1, 0, 0, 1, 292, 0}";
}
);
hints = (
{
horizontal = 1;
place = "{384, -20}";
target = down;
type = TopGhost;
},
{
horizontal = 1;
place = "{-9, 21}";
target = up;
type = BottomGhost;
},
{
horizontal = 1;
place = "{-9, 21}";
target = up;
type = BottomGhost;
},
{
horizontal = 1;
place = "{384, -20}";
target = down;
type = TopGhost;
},
{
horizontal = 1;
place = "{384, -20}";
target = down;
type = TopGhost;
},
{
horizontal = 1;
place = "{-9, 21}";
target = up;
type = BottomGhost;
}
);
layerId = UUID1;
paths = (
{
closed = 1;
nodes = (
"319 -13 OFFCURVE",
"379 2 OFFCURVE",
"419 28 CURVE",
"360 120 LINE",
"341 107 OFFCURVE",
"318 100 OFFCURVE",
"291 100 CURVE SMOOTH",
"219 100 OFFCURVE",
"175 147 OFFCURVE",
"175 207 CURVE SMOOTH",
"175 281 OFFCURVE",
"229 332 OFFCURVE",
"288 332 CURVE SMOOTH",
"336 332 OFFCURVE",
"369 310 OFFCURVE",
"387 293 CURVE",
"466 378 LINE",
"427 417 OFFCURVE",
"368 447 OFFCURVE",
"279 447 CURVE SMOOTH",
"112 447 OFFCURVE",
"34 312 OFFCURVE",
"34 197 CURVE SMOOTH",
"34 23 OFFCURVE",
"193 -13 OFFCURVE",
"266 -13 CURVE SMOOTH"
);
}
);
width = 844;
}
);
leftMetricsKey = c;
rightMetricsKey = e;
unicode = 0153;
},
{
glyphname = p;
lastChange = "2016-12-07 17:18:22 +0000";
layers = (
{
anchors = (
{
name = bottom;
position = "{247, 0}";
},
{
name = top;
position = "{293, 375}";
}
);
hints = (
{
horizontal = 1;
place = "{381, -20}";
target = down;
type = TopGhost;
},
{
horizontal = 1;
place = "{-250, 21}";
target = up;
type = BottomGhost;
}
);
layerId = UUID0;
paths = (
{
closed = 1;
nodes = (
"383 -6 OFFCURVE",
"486 92 OFFCURVE",
"486 212 CURVE SMOOTH",
"486 309 OFFCURVE",
"414 383 OFFCURVE",
"314 383 CURVE SMOOTH",
"232 383 OFFCURVE",
"152 332 OFFCURVE",
"118 260 CURVE",
"115 231 LINE",
"132 375 LINE",
"118 375 LINE",
"51 -180 LINE",
"65 -180 LINE",
"93 54 LINE",
"100 117 LINE",
"119 45 OFFCURVE",
"184 -6 OFFCURVE",
"267 -6 CURVE SMOOTH"
);
},
{
closed = 1;
nodes = (
"134 7 OFFCURVE",
"100 125 OFFCURVE",
"108 175 CURVE",
"111 195 LINE",
"123 295 OFFCURVE",
"213 370 OFFCURVE",
"313 370 CURVE SMOOTH",
"406 370 OFFCURVE",
"472 301 OFFCURVE",
"472 210 CURVE SMOOTH",
"472 100 OFFCURVE",
"375 7 OFFCURVE",
"268 7 CURVE SMOOTH"
);
}
);
width = 540;
},
{
anchors = (
{
name = bottom;
position = "{258, 0}";
},
{
name = top;
position = "{312, 437}";
}
);
hints = (
{
horizontal = 1;
place = "{382, -20}";
target = down;
type = TopGhost;
},
{
horizontal = 1;
place = "{-250, 21}";
target = up;
type = BottomGhost;
}
);
layerId = UUID1;
paths = (
{
closed = 1;
nodes = (
"470 -12 OFFCURVE",
"573 116 OFFCURVE",
"573 261 CURVE SMOOTH",
"573 382 OFFCURVE",
"481 459 OFFCURVE",
"371 459 CURVE",
"318 459 OFFCURVE",
"256 432 OFFCURVE",
"192 392 CURVE",
"222 362 LINE",
"218 447 LINE",
"98 447 LINE",
"15 -210 LINE",
"154 -210 LINE",
"187 85 LINE",
"155 49 LINE",
"181 13 OFFCURVE",
"246 -12 OFFCURVE",
"298 -12 CURVE"
);
},
{
closed = 1;
nodes = (
"243 105 OFFCURVE",
"212 132 OFFCURVE",
"195 175 CURVE",
"208 282 LINE",
"240 326 OFFCURVE",
"275 348 OFFCURVE",
"321 348 CURVE",
"377 348 OFFCURVE",
"431 305 OFFCURVE",
"431 239 CURVE SMOOTH",
"431 170 OFFCURVE",
"381 105 OFFCURVE",
"294 105 CURVE"
);
}
);
width = 612;
}
);
leftMetricsKey = n;
rightMetricsKey = o;
unicode = 0070;
},
{
glyphname = thorn;
lastChange = "2016-08-26 20:41:54 +0000";
layers = (
{
hints = (
{
horizontal = 1;
place = "{750, -20}";
target = down;
type = TopGhost;
},
{
horizontal = 1;
place = "{-250, 21}";
target = up;
type = BottomGhost;
},
{
horizontal = 1;
place = "{381, -20}";
target = down;
type = TopGhost;
},
{
horizontal = 1;
place = "{-250, 21}";
target = up;
type = BottomGhost;
}
);
layerId = UUID0;
paths = (
{
closed = 1;
nodes = (
"172 750 LINE",
"58 -180 LINE",
"72 -180 LINE",
"101 54 LINE SMOOTH",
"103 75 OFFCURVE",
"105 96 OFFCURVE",
"107 117 CURVE",
"127 45 OFFCURVE",
"191 -6 OFFCURVE",
"274 -6 CURVE SMOOTH",
"391 -6 OFFCURVE",
"494 90 OFFCURVE",
"494 208 CURVE SMOOTH",
"494 208 LINE SMOOTH",
"494 306 OFFCURVE",
"422 383 OFFCURVE",
"322 383 CURVE SMOOTH",
"240 383 OFFCURVE",
"164 332 OFFCURVE",
"126 260 CURVE",
"131 298 OFFCURVE",
"186 750 OFFCURVE",
"186 750 CURVE"
);
},
{
closed = 1;
nodes = (
"480 207 LINE SMOOTH",
"480 98 OFFCURVE",
"384 8 OFFCURVE",
"276 8 CURVE SMOOTH",
"184 8 OFFCURVE",
"116 79 OFFCURVE",
"116 170 CURVE SMOOTH",
"116 278 OFFCURVE",
"212 369 OFFCURVE",
"320 369 CURVE SMOOTH",
"412 369 OFFCURVE",
"480 297 OFFCURVE",
"480 207 CURVE SMOOTH"
);
}
);
width = 505;
},
{
hints = (
{
horizontal = 1;
place = "{750, -20}";
target = down;
type = TopGhost;
},
{
horizontal = 1;
place = "{-250, 21}";
target = up;
type = BottomGhost;
},
{
horizontal = 1;
place = "{382, -20}";
target = down;
type = TopGhost;
},
{
horizontal = 1;
place = "{-250, 21}";
target = up;
type = BottomGhost;
}
);
layerId = UUID1;
paths = (
{
closed = 1;
nodes = (
"177 789 LINE",
"54 -210 LINE",
"171 -210 LINE",
"200 25 LINE SMOOTH",
"200 27 OFFCURVE",
"199 28 OFFCURVE",
"199 29 CURVE",
"213 13 OFFCURVE",
"260 -12 OFFCURVE",
"320 -12 CURVE SMOOTH",
"471 -12 OFFCURVE",
"581 98 OFFCURVE",
"581 250 CURVE SMOOTH",
"581 250 LINE SMOOTH",
"581 376 OFFCURVE",
"505 449 OFFCURVE",
"383 449 CURVE SMOOTH",
"312 449 OFFCURVE",
"266 414 OFFCURVE",
"246 399 CURVE",
"247 409 OFFCURVE",
"291 766 OFFCURVE",
"294 789 CURVE"
);
},
{
closed = 1;
nodes = (
"453 236 LINE SMOOTH",
"453 163 OFFCURVE",
"408 102 OFFCURVE",
"328 102 CURVE SMOOTH",
"263 102 OFFCURVE",
"223 147 OFFCURVE",
"223 206 CURVE SMOOTH",
"223 280 OFFCURVE",
"280 335 OFFCURVE",
"357 335 CURVE SMOOTH",
"421 335 OFFCURVE",
"453 294 OFFCURVE",
"453 236 CURVE SMOOTH"
);
}
);
width = 625;
}
);
unicode = 00FE;
},
{
glyphname = q;
lastChange = "2016-12-07 17:18:50 +0000";
layers = (
{
anchors = (
{
name = bottom;
position = "{230, 0}";
},
{
name = top;
position = "{276, 375}";
}
);
hints = (
{
horizontal = 1;
place = "{-250, 21}";
target = up;
type = BottomGhost;
},
{
horizontal = 1;
place = "{381, -20}";
target = down;
type = TopGhost;
}
);
layerId = UUID0;
paths = (
{
closed = 1;
nodes = (
"319 -6 OFFCURVE",
"396 45 OFFCURVE",
"433 117 CURVE",
"432 123 LINE",
"396 -180 LINE",
"410 -180 LINE",
"477 375 LINE",
"463 375 LINE",
"446 232 LINE",
"451 257 LINE",
"431 329 OFFCURVE",
"365 383 OFFCURVE",
"283 383 CURVE SMOOTH",
"167 383 OFFCURVE",
"64 283 OFFCURVE",
"64 163 CURVE SMOOTH",
"64 67 OFFCURVE",
"137 -6 OFFCURVE",
"236 -6 CURVE SMOOTH"
);
},
{
closed = 1;
nodes = (
"145 7 OFFCURVE",
"78 76 OFFCURVE",
"78 164 CURVE SMOOTH",
"78 276 OFFCURVE",
"174 370 OFFCURVE",
"282 370 CURVE SMOOTH",
"417 370 OFFCURVE",
"450 255 OFFCURVE",
"442 198 CURVE",
"440 180 LINE",
"424 84 OFFCURVE",
"334 7 OFFCURVE",
"237 7 CURVE SMOOTH"
);
}
);
width = 505;
},
{
anchors = (
{
name = bottom;
position = "{273, 0}";
},
{
name = top;
position = "{327, 437}";
}
);
background = {
paths = (
{
closed = 1;
nodes = (
"225 102 OFFCURVE",
"180 147 OFFCURVE",
"180 220 CURVE SMOOTH",
"180 273 OFFCURVE",
"216 345 OFFCURVE",
"307 345 CURVE",
"360 345 OFFCURVE",
"399 318 OFFCURVE",
"409 275 CURVE",
"396 168 LINE",
"369 124 OFFCURVE",
"332 102 OFFCURVE",
"292 102 CURVE SMOOTH"
);
}
);
};
hints = (
{
horizontal = 1;
place = "{-250, 21}";
target = up;
type = BottomGhost;
},
{
horizontal = 1;
place = "{382, -20}";
target = down;
type = TopGhost;
}
);
layerId = UUID1;
paths = (
{
closed = 1;
nodes = (
"357 -12 OFFCURVE",
"416 65 OFFCURVE",
"421 65 CURVE",
"387 95 LINE",
"349 -210 LINE",
"489 -210 LINE",
"569 437 LINE",
"439 437 LINE",
"420 378 LINE",
"430 390 LINE",
"406 425 OFFCURVE",
"368 459 OFFCURVE",
"281 459 CURVE",
"137 459 OFFCURVE",
"35 333 OFFCURVE",
"35 203 CURVE SMOOTH",
"35 66 OFFCURVE",
"143 -12 OFFCURVE",
"239 -10 CURVE"
);
},
{
closed = 1;
nodes = (
"224 100 OFFCURVE",
"170 143 OFFCURVE",
"170 209 CURVE SMOOTH",
"170 278 OFFCURVE",
"220 343 OFFCURVE",
"307 343 CURVE",
"358 343 OFFCURVE",
"393 316 OFFCURVE",
"410 273 CURVE",
"394 166 LINE",
"362 122 OFFCURVE",
"326 100 OFFCURVE",
"280 100 CURVE"
);
}
);
width = 618;
}
);
leftMetricsKey = o;
rightMetricsKey = n;
unicode = 0071;
},
{
glyphname = r;
lastChange = "2016-12-02 15:00:45 +0000";
layers = (
{
anchors = (
{
name = bottom;
position = "{76, 0}";
},
{
name = top;
position = "{182, 375}";
}
);
hints = (
{
horizontal = 1;
place = "{382, -20}";
target = down;
type = TopGhost;
},
{
horizontal = 1;
place = "{0, 21}";
target = up;
type = BottomGhost;
}
);
layerId = UUID0;
paths = (
{
closed = 1;
nodes = (
"118 375 LINE",
"72 0 LINE",
"86 0 LINE",
"113 220 LINE SMOOTH",
"123 307 OFFCURVE",
"206 366 OFFCURVE",
"294 369 CURVE",
"295 382 LINE",
"220 380 OFFCURVE",
"146 339 OFFCURVE",
"115 268 CURVE",
"128 375 LINE"
);
}
);
width = 317;
},
{
anchors = (
{
name = bottom;
position = "{186, 0}";
},
{
name = top;
position = "{186, 500}";
}
);
hints = (
{
horizontal = 1;
place = "{383, -20}";
target = down;
type = TopGhost;
},
{
horizontal = 1;
place = "{0, 21}";
target = up;
type = BottomGhost;
}
);
layerId = UUID1;
paths = (
{
closed = 1;
nodes = (
"95 437 LINE",
"42 0 LINE",
"181 0 LINE",
"202 171 LINE",
"211 247 OFFCURVE",
"280 330 OFFCURVE",
"377 319 CURVE",
"401 459 LINE",
"352 459 OFFCURVE",
"264 417 OFFCURVE",
"217 340 CURVE",
"221 437 LINE"
);
}
);
width = 410;
}
);
leftMetricsKey = n;
unicode = 0072;
},
{
glyphname = s;
lastChange = "2016-12-02 14:58:02 +0000";
layers = (
{
anchors = (
{
name = bottom;
position = "{148, 0}";
},
{
name = top;
position = "{194, 375}";
}
);
hints = (
{
place = "{99, 215}";
},
{
horizontal = 1;
place = "{379, -20}";
target = down;
type = TopGhost;
},
{
horizontal = 1;
place = "{-8, 21}";
target = up;
type = BottomGhost;
}
);
layerId = UUID0;
paths = (
{
closed = 1;
nodes = (
"221 -12 OFFCURVE",
"266 28 OFFCURVE",
"274 93 CURVE SMOOTH",
"283 162 OFFCURVE",
"223 181 OFFCURVE",
"170 204 CURVE SMOOTH",
"128 222 OFFCURVE",
"91 243 OFFCURVE",
"97 291 CURVE SMOOTH",
"103 347 OFFCURVE",
"157 367 OFFCURVE",
"192 365 CURVE SMOOTH",
"219 363 OFFCURVE",
"259 348 OFFCURVE",
"278 320 CURVE",
"288 329 LINE",
"264 362 OFFCURVE",
"223 376 OFFCURVE",
"194 378 CURVE SMOOTH",
"145 381 OFFCURVE",
"90 354 OFFCURVE",
"82 291 CURVE SMOOTH",
"75 232 OFFCURVE",
"118 210 OFFCURVE",
"164 191 CURVE SMOOTH",
"214 170 OFFCURVE",
"267 152 OFFCURVE",
"260 90 CURVE SMOOTH",
"251 21 OFFCURVE",
"197 3 OFFCURVE",
"149 6 CURVE SMOOTH",
"103 8 OFFCURVE",
"65 29 OFFCURVE",
"49 54 CURVE",
"38 46 LINE",
"62 10 OFFCURVE",
"110 -5 OFFCURVE",
"146 -7 CURVE SMOOTH"
);
}
);
width = 341;
},
{
anchors = (
{
name = bottom;
position = "{174, 0}";
},
{
name = top;
position = "{270, 500}";
}
);
hints = (
{
place = "{62, 243}";
},
{
horizontal = 1;
place = "{384, -20}";
target = down;
type = TopGhost;
},
{
horizontal = 1;
place = "{-8, 21}";
target = up;
type = BottomGhost;
}
);
layerId = UUID1;
paths = (
{
closed = 1;
nodes = (
"310 -16 OFFCURVE",
"380 54 OFFCURVE",
"389 135 CURVE",
"397 200 OFFCURVE",
"362 240 OFFCURVE",
"302 265 CURVE",
"257 283 OFFCURVE",
"202 293 OFFCURVE",
"209 332 CURVE",
"211 350 OFFCURVE",
"234 366 OFFCURVE",
"270 363 CURVE",
"297 360 OFFCURVE",
"329 342 OFFCURVE",
"351 320 CURVE",
"414 399 LINE",
"372 435 OFFCURVE",
"328 451 OFFCURVE",
"255 456 CURVE",
"133 463 OFFCURVE",
"74 388 OFFCURVE",
"66 322 CURVE",
"59 264 OFFCURVE",
"85 210 OFFCURVE",
"162 180 CURVE",
"207 163 OFFCURVE",
"251 151 OFFCURVE",
"247 118 CURVE",
"244 94 OFFCURVE",
"217 85 OFFCURVE",
"183 87 CURVE",
"154 89 OFFCURVE",
"118 106 OFFCURVE",
"81 148 CURVE",
"14 75 LINE",
"51 26 OFFCURVE",
"112 -4 OFFCURVE",
"184 -8 CURVE"
);
}
);
width = 448;
}
);
unicode = 0073;
},
{
glyphname = germandbls;
lastChange = "2016-12-06 18:29:20 +0000";
layers = (
{
hints = (
{
place = "{407, 78}";
},
{
horizontal = 1;
place = "{-8, 21}";
target = up;
type = BottomGhost;
},
{
horizontal = 1;
place = "{658, -20}";
target = down;
type = TopGhost;
}
);
layerId = UUID0;
paths = (
{
closed = 1;
nodes = (
"143 384 LINE",
"78 384 LINE",
"76 370 LINE",
"141 370 LINE",
"96 0 LINE",
"109 0 LINE",
"162 430 LINE SMOOTH",
"178 559 OFFCURVE",
"244 644 OFFCURVE",
"350 644 CURVE SMOOTH",
"433 644 OFFCURVE",
"471 588 OFFCURVE",
"471 529 CURVE SMOOTH",
"471 448 OFFCURVE",
"404 396 OFFCURVE",
"329 396 CURVE",
"328 388 LINE SMOOTH",
"328 385 OFFCURVE",
"328 383 OFFCURVE",
"327 381 CURVE",
"327 381 LINE",
"425 381 OFFCURVE",
"496 305 OFFCURVE",
"496 213 CURVE SMOOTH",
"496 103 OFFCURVE",
"392 5 OFFCURVE",
"278 5 CURVE SMOOTH",
"242 5 OFFCURVE",
"209 15 OFFCURVE",
"184 33 CURVE",
"181 29 OFFCURVE",
"179 26 OFFCURVE",
"176 22 CURVE",
"176 22 LINE",
"205 3 OFFCURVE",
"240 -8 OFFCURVE",
"279 -8 CURVE SMOOTH",
"399 -8 OFFCURVE",
"510 94 OFFCURVE",
"510 215 CURVE SMOOTH",
"510 300 OFFCURVE",
"455 370 OFFCURVE",
"376 389 CURVE",
"442 413 OFFCURVE",
"486 461 OFFCURVE",
"486 538 CURVE SMOOTH",
"486 598 OFFCURVE",
"453 656 OFFCURVE",
"341 658 CURVE",
"240 654 OFFCURVE",
"166 574 OFFCURVE",
"148 426 CURVE SMOOTH"
);
}
);
width = 530;
},
{
hints = (
{
place = "{360, 142}";
},
{
horizontal = 1;
place = "{-9, 21}";
target = up;
type = BottomGhost;
},
{
horizontal = 1;
place = "{657, -20}";
target = down;
type = TopGhost;
}
);
layerId = UUID1;
paths = (
{
closed = 1;
nodes = (
"136 441 LINE",
"71 441 LINE",
"49 327 LINE",
"114 327 LINE",
"51 0 LINE",
"191 0 LINE",
"272 419 LINE SMOOTH",
"289 506 OFFCURVE",
"317 556 OFFCURVE",
"384 556 CURVE SMOOTH",
"428 556 OFFCURVE",
"445 537 OFFCURVE",
"440 497 CURVE SMOOTH",
"437 468 OFFCURVE",
"413 449 OFFCURVE",
"380 452 CURVE",
"366 331 LINE",
"372 330 LINE",
"429 329 OFFCURVE",
"455 286 OFFCURVE",
"445 204 CURVE SMOOTH",
"437 141 OFFCURVE",
"416 94 OFFCURVE",
"363 98 CURVE SMOOTH",
"346 99 OFFCURVE",
"332 102 OFFCURVE",
"316 120 CURVE",
"252 39 LINE",
"263 22 OFFCURVE",
"301 -3 OFFCURVE",
"365 -7 CURVE SMOOTH",
"481 -14 OFFCURVE",
"566 45 OFFCURVE",
"584 188 CURVE SMOOTH",
"598 306 OFFCURVE",
"563 361 OFFCURVE",
"505 395 CURVE",
"553 417 OFFCURVE",
"578 467 OFFCURVE",
"584 519 CURVE SMOOTH",
"584 599 OFFCURVE",
"541 670 OFFCURVE",
"405 670 CURVE",
"272 670 OFFCURVE",
"164 611 OFFCURVE",
"143 484 CURVE SMOOTH"
);
}
);
width = 637;
}
);
leftMetricsKey = f;
rightMetricsKey = s;
unicode = 00DF;
},
{
glyphname = t;
lastChange = "2016-12-06 18:20:54 +0000";
layers = (
{
anchors = (
{
name = bottom;
position = "{120, 0}";
},
{
name = center;
position = "{144, 188}";
},
{
name = top;
position = "{177, 539}";
},
{
name = topright;
position = "{269, 502}";
}
);
hints = (
{
horizontal = 1;
place = "{0, 21}";
target = up;
type = BottomGhost;
},
{
horizontal = 1;
place = "{619, -20}";
target = down;
type = TopGhost;
}
);
layerId = UUID0;
paths = (
{
closed = 1;
nodes = (
"156 367 LINE",
"67 367 LINE",
"65 353 LINE",
"154 353 LINE",
"111 0 LINE",
"125 0 LINE",
"168 353 LINE",
"295 353 LINE",
"297 367 LINE",
"170 367 LINE",
"191 539 LINE",
"177 539 LINE"
);
}
);
width = 300;
},
{
anchors = (
{
name = bottom;
position = "{174, 0}";
},
{
name = center;
position = "{181, 200}";
},
{
name = top;
position = "{248, 612}";
},
{
name = topright;
position = "{367, 500}";
}
);
hints = (
{
horizontal = 1;
place = "{0, 21}";
target = up;
type = BottomGhost;
},
{
horizontal = 1;
place = "{619, -20}";
target = down;
type = TopGhost;
}
);
layerId = UUID1;
paths = (
{
closed = 1;
nodes = (
"136 439 LINE",
"68 439 LINE",
"55 330 LINE",
"123 330 LINE",
"83 0 LINE",
"223 0 LINE",
"263 330 LINE",
"369 330 LINE",
"382 439 LINE",
"276 439 LINE",
"299 629 LINE",
"159 629 LINE"
);
}
);
width = 394;
}
);
unicode = 0074;
},
{
glyphname = u;
lastChange = "2016-12-12 20:26:30 +0000";
layers = (
{
anchors = (
{
name = bottom;
position = "{208, 0}";
},
{
name = ogonek;
position = "{364, 0}";
},
{
name = top;
position = "{264, 375}";
},
{
name = topright;
position = "{429, 375}";
}
);
hints = (
{
horizontal = 1;
place = "{375, -20}";
target = down;
type = TopGhost;
},
{
horizontal = 1;
place = "{-7, 21}";
target = up;
type = BottomGhost;
}
);
layerId = UUID0;
paths = (
{
closed = 1;
nodes = (
"262 -7 OFFCURVE",
"340 46 OFFCURVE",
"365 109 CURVE",
"353 0 LINE",
"364 0 LINE",
"410 375 LINE",
"396 375 LINE",
"369 155 LINE SMOOTH",
"359 69 OFFCURVE",
"272 6 OFFCURVE",
"190 6 CURVE",
"125 9 OFFCURVE",
"92 49 OFFCURVE",
"98 98 CURVE SMOOTH",
"132 375 LINE",
"118 375 LINE",
"85 101 LINE SMOOTH",
"77 35 OFFCURVE",
"118 -7 OFFCURVE",
"188 -7 CURVE SMOOTH"
);
}
);
width = 482;
},
{
anchors = (
{
name = bottom;
position = "{293, -20}";
},
{
name = ogonek;
position = "{456, 11}";
},
{
name = top;
position = "{323, 500}";
},
{
name = topright;
position = "{497, 321}";
}
);
hints = (
{
horizontal = 1;
place = "{375, -20}";
target = down;
type = TopGhost;
},
{
horizontal = 1;
place = "{-9, 21}";
target = up;
type = BottomGhost;
}
);
layerId = UUID1;
paths = (
{
closed = 1;
nodes = (
"258 -21 OFFCURVE",
"316 16 OFFCURVE",
"353 71 CURVE",
"354 0 LINE",
"481 0 LINE",
"535 437 LINE",
"395 437 LINE",
"373 259 LINE",
"362 166 OFFCURVE",
"314 98 OFFCURVE",
"252 98 CURVE",
"211 98 OFFCURVE",
"199 123 OFFCURVE",
"201 162 CURVE",
"235 437 LINE",
"95 437 LINE",
"55 110 LINE",
"48 33 OFFCURVE",
"101 -21 OFFCURVE",
"180 -21 CURVE"
);
}
);
width = 584;
}
);
leftMetricsKey = n;
rightMetricsKey = n;
unicode = 0075;
},
{
glyphname = uogonek;
lastChange = "2016-12-12 21:31:35 +0000";
layers = (
{
components = (
{
name = u;
},
{
name = ogonekcomb;
transform = "{1, 0, 0, 1, 190, -8}";
}
);
layerId = UUID0;
width = 482;
},
{
anchors = (
{
name = _ogonek;
position = "{456, 11}";
},
{
name = bottom;
position = "{293, 0}";
},
{
name = ogonek;
position = "{456, 11}";
},
{
name = top;
position = "{323, 500}";
},
{
name = topright;
position = "{497, 321}";
}
);
hints = (
{
horizontal = 1;
place = "{375, -20}";
target = down;
type = TopGhost;
},
{
horizontal = 1;
place = "{-9, 21}";
target = up;
type = BottomGhost;
}
);
layerId = UUID1;
paths = (
{
closed = 1;
nodes = (
"376 20 LINE",
"297 -9 OFFCURVE",
"277 -62 OFFCURVE",
"277 -104 CURVE SMOOTH",
"277 -173 OFFCURVE",
"332 -220 OFFCURVE",
"407 -225 CURVE",
"453 -228 OFFCURVE",
"515 -201 OFFCURVE",
"551 -158 CURVE",
"510 -84 LINE",
"484 -115 OFFCURVE",
"459 -130 OFFCURVE",
"432 -128 CURVE",
"409 -127 OFFCURVE",
"389 -117 OFFCURVE",
"393 -83 CURVE SMOOTH",
"396 -48 OFFCURVE",
"432 -22 OFFCURVE",
"481 0 CURVE",
"535 437 LINE",
"395 437 LINE",
"373 259 LINE",
"362 166 OFFCURVE",
"314 98 OFFCURVE",
"252 98 CURVE",
"211 98 OFFCURVE",
"199 123 OFFCURVE",
"201 162 CURVE",
"235 437 LINE",
"95 437 LINE",
"55 110 LINE",
"48 33 OFFCURVE",
"101 -21 OFFCURVE",
"180 -21 CURVE",
"258 -21 OFFCURVE",
"316 16 OFFCURVE",
"353 71 CURVE",
"354 0 LINE",
"477 0 LINE"
);
}
);
width = 584;
}
);
unicode = 0173;
},
{
glyphname = uring;
lastChange = "2016-08-26 20:41:54 +0000";
layers = (
{
components = (
{
name = u;
}
);
layerId = UUID0;
paths = (
{
closed = 1;
nodes = (
"225 462 LINE SMOOTH",
"225 430 OFFCURVE",
"248 406 OFFCURVE",
"281 406 CURVE SMOOTH",
"320 406 OFFCURVE",
"352 437 OFFCURVE",
"352 476 CURVE SMOOTH",
"352 508 OFFCURVE",
"329 532 OFFCURVE",
"296 532 CURVE SMOOTH",
"257 532 OFFCURVE",
"225 501 OFFCURVE",
"225 462 CURVE SMOOTH"
);
},
{
closed = 1;
nodes = (
"239 465 LINE SMOOTH",
"239 493 OFFCURVE",
"267 518 OFFCURVE",
"295 518 CURVE SMOOTH",
"319 518 OFFCURVE",
"338 497 OFFCURVE",
"338 473 CURVE SMOOTH",
"338 445 OFFCURVE",
"311 420 OFFCURVE",
"283 420 CURVE SMOOTH",
"259 420 OFFCURVE",
"239 441 OFFCURVE",
"239 465 CURVE SMOOTH"
);
}
);
width = 452;
},
{
components = (
{
name = u;
}
);
layerId = UUID1;
paths = (
{
closed = 1;
nodes = (
"274 567 LINE SMOOTH",
"274 520 OFFCURVE",
"311 481 OFFCURVE",
"358 481 CURVE SMOOTH",
"412 481 OFFCURVE",
"464 530 OFFCURVE",
"464 585 CURVE SMOOTH",
"464 631 OFFCURVE",
"428 670 OFFCURVE",
"381 670 CURVE SMOOTH",
"327 670 OFFCURVE",
"274 621 OFFCURVE",
"274 567 CURVE SMOOTH"
);
},
{
closed = 1;
nodes = (
"340 571 LINE SMOOTH",
"340 590 OFFCURVE",
"355 604 OFFCURVE",
"373 604 CURVE SMOOTH",
"389 604 OFFCURVE",
"399 594 OFFCURVE",
"399 578 CURVE SMOOTH",
"399 560 OFFCURVE",
"384 546 OFFCURVE",
"366 546 CURVE SMOOTH",
"350 546 OFFCURVE",
"340 557 OFFCURVE",
"340 571 CURVE SMOOTH"
);
}
);
width = 596;
}
);
unicode = 016F;
},
{
glyphname = v;
lastChange = "2016-12-02 14:51:03 +0000";
layers = (
{
anchors = (
{
name = bottom;
position = "{190, 0}";
},
{
name = top;
position = "{236, 375}";
}
);
hints = (
{
horizontal = 1;
place = "{-23, 21}";
target = up;
type = BottomGhost;
},
{
horizontal = 1;
place = "{375, -20}";
target = down;
type = TopGhost;
}
);
layerId = UUID0;
paths = (
{
closed = 1;
nodes = (
"191 -17 LINE",
"414 375 LINE",
"398 375 LINE",
"185 0 LINE",
"193 0 LINE",
"72 375 LINE",
"58 375 LINE",
"185 -17 LINE"
);
}
);
width = 426;
},
{
anchors = (
{
name = bottom;
position = "{211, 0}";
},
{
name = top;
position = "{273, 500}";
}
);
hints = (
{
horizontal = 1;
place = "{-23, 21}";
target = up;
type = BottomGhost;
},
{
horizontal = 1;
place = "{375, -20}";
target = down;
type = TopGhost;
}
);
layerId = UUID1;
paths = (
{
closed = 1;
nodes = (
"245 -9 LINE",
"547 437 LINE",
"391 437 LINE",
"226 138 LINE",
"311 135 LINE",
"199 437 LINE",
"33 437 LINE",
"241 -9 LINE"
);
}
);
width = 534;
}
);
unicode = 0076;
},
{
glyphname = w;
lastChange = "2016-12-07 17:02:06 +0000";
layers = (
{
anchors = (
{
name = bottom;
position = "{299, 0}";
},
{
name = top;
position = "{345, 375}";
}
);
hints = (
{
horizontal = 1;
place = "{375, -20}";
target = down;
type = TopGhost;
},
{
horizontal = 1;
place = "{-23, 21}";
target = up;
type = BottomGhost;
}
);
layerId = UUID0;
paths = (
{
closed = 1;
nodes = (
"422 -23 LINE",
"646 375 LINE",
"631 375 LINE",
"421 -1 LINE",
"427 -1 LINE",
"305 375 LINE",
"290 375 LINE",
"326 266 LINE",
"189 2 LINE",
"194 -2 LINE",
"73 375 LINE",
"58 375 LINE",
"187 -23 LINE",
"189 -23 LINE",
"332 251 LINE",
"419 -23 LINE"
);
}
);
width = 658;
},
{
anchors = (
{
name = bottom;
position = "{315, 0}";
},
{
name = top;
position = "{369, 437}";
}
);
hints = (
{
horizontal = 1;
place = "{375, -20}";
target = down;
type = TopGhost;
},
{
horizontal = 1;
place = "{-23, 21}";
target = up;
type = BottomGhost;
}
);
layerId = UUID1;
paths = (
{
closed = 1;
nodes = (
"449 -10 LINE",
"697 437 LINE",
"561 437 LINE",
"450 218 LINE",
"476 220 LINE",
"407 437 LINE",
"288 437 LINE",
"305 387 LINE",
"198 209 LINE",
"246 202 LINE",
"169 437 LINE",
"33 437 LINE",
"173 -9 LINE",
"181 -9 LINE",
"339 272 LINE",
"441 -10 LINE"
);
}
);
width = 684;
}
);
leftMetricsKey = v;
rightMetricsKey = v;
unicode = 0077;
},
{
glyphname = x;
lastChange = "2016-12-12 21:53:06 +0000";
layers = (
{
hints = (
{
horizontal = 1;
place = "{0, 21}";
target = up;
type = BottomGhost;
},
{
horizontal = 1;
place = "{374, -20}";
target = down;
type = TopGhost;
},
{
horizontal = 1;
place = "{375, -20}";
target = down;
type = TopGhost;
}
);
layerId = UUID0;
paths = (
{
closed = 1;
nodes = (
"94 375 LINE",
"76 375 LINE",
"306 0 LINE",
"322 0 LINE"
);
},
{
closed = 1;
nodes = (
"208 186 LINE",
"366 374 LINE",
"349 374 LINE",
"201 198 LINE"
);
},
{
closed = 1;
nodes = (
"193 189 LINE",
"34 0 LINE",
"52 0 LINE",
"200 178 LINE"
);
}
);
width = 352;
},
{
hints = (
{
horizontal = 1;
place = "{0, 21}";
target = up;
type = BottomGhost;
},
{
horizontal = 1;
place = "{375, -20}";
target = down;
type = TopGhost;
},
{
horizontal = 1;
place = "{375, -20}";
target = down;
type = TopGhost;
}
);
layerId = UUID1;
paths = (
{
closed = 1;
nodes = (
"209 437 LINE",
"37 437 LINE",
"320 0 LINE",
"489 0 LINE"
);
},
{
closed = 1;
nodes = (
"316 197 LINE",
"519 437 LINE",
"380 437 LINE",
"280 298 LINE"
);
},
{
closed = 1;
nodes = (
"190 234 LINE",
"-12 0 LINE",
"127 0 LINE",
"242 140 LINE"
);
}
);
width = 517;
}
);
unicode = 0078;
},
{
glyphname = y;
lastChange = "2016-12-11 01:33:53 +0000";
layers = (
{
anchors = (
{
name = bottom;
position = "{298, -9}";
},
{
name = top;
position = "{241, 375}";
}
);
hints = (
{
horizontal = 1;
place = "{-250, 21}";
target = up;
type = BottomGhost;
},
{
horizontal = 1;
place = "{375, -20}";
target = down;
type = TopGhost;
}
);
layerId = UUID0;
paths = (
{
closed = 1;
nodes = (
"116 -180 LINE",
"425 375 LINE",
"408 375 LINE",
"99 -180 LINE"
);
},
{
closed = 1;
nodes = (
"209 4 LINE",
"85 375 LINE",
"69 375 LINE",
"196 -5 LINE"
);
}
);
width = 416;
},
{
anchors = (
{
name = bottom;
position = "{444, 0}";
},
{
name = top;
position = "{317, 437}";
}
);
hints = (
{
horizontal = 1;
place = "{-250, 21}";
target = up;
type = BottomGhost;
},
{
horizontal = 1;
place = "{375, -20}";
target = down;
type = TopGhost;
}
);
layerId = UUID1;
paths = (
{
closed = 1;
nodes = (
"202 -210 LINE",
"564 437 LINE",
"438 437 LINE",
"67 -210 LINE"
);
},
{
closed = 1;
nodes = (
"326 68 LINE",
"207 437 LINE",
"50 437 LINE",
"210 -2 LINE"
);
}
);
width = 540;
}
);
unicode = 0079;
},
{
glyphname = z;
lastChange = "2016-12-07 17:03:48 +0000";
layers = (
{
anchors = (
{
name = bottom;
position = "{123, 0}";
},
{
name = top;
position = "{169, 375}";
}
);
hints = (
{
horizontal = 1;
place = "{405, -20}";
target = down;
type = TopGhost;
},
{
horizontal = 1;
place = "{0, 21}";
target = up;
type = BottomGhost;
}
);
layerId = UUID0;
paths = (
{
closed = 1;
nodes = (
"328 361 LINE",
"324 367 LINE",
"19 0 LINE",
"298 0 LINE",
"300 14 LINE",
"37 14 LINE",
"45 10 LINE",
"349 375 LINE",
"104 375 LINE SMOOTH",
"82 375 OFFCURVE",
"75 386 OFFCURVE",
"75 398 CURVE SMOOTH",
"75 410 LINE",
"62 410 LINE",
"62 406 LINE SMOOTH",
"60 368 OFFCURVE",
"75 361 OFFCURVE",
"116 361 CURVE SMOOTH"
);
}
);
width = 361;
},
{
anchors = (
{
name = bottom;
position = "{234, 0}";
},
{
name = top;
position = "{288, 437}";
}
);
hints = (
{
horizontal = 1;
place = "{405, -20}";
target = down;
type = TopGhost;
},
{
horizontal = 1;
place = "{0, 21}";
target = up;
type = BottomGhost;
}
);
layerId = UUID1;
paths = (
{
closed = 1;
nodes = (
"300 323 LINE",
"284 363 LINE",
"-9 0 LINE",
"434 0 LINE",
"448 114 LINE",
"183 114 LINE",
"205 85 LINE",
"490 437 LINE",
"213 437 LINE SMOOTH",
"188 437 OFFCURVE",
"179 437 OFFCURVE",
"183 465 CURVE SMOOTH",
"184 479 LINE",
"79 479 LINE",
"72 419 LINE SMOOTH",
"65 360 OFFCURVE",
"102 323 OFFCURVE",
"150 323 CURVE SMOOTH"
);
}
);
width = 522;
}
);
unicode = 007A;
},
{
glyphname = fi;
lastChange = "2016-12-12 21:32:53 +0000";
layers = (
{
components = (
{
name = i;
transform = "{1, 0, 0, 1, 284, 0}";
}
);
hints = (
{
horizontal = 1;
place = "{0, 21}";
target = up;
type = BottomGhost;
},
{
horizontal = 1;
place = "{520, -20}";
target = down;
type = TopGhost;
},
{
horizontal = 1;
place = "{0, 21}";
target = up;
type = BottomGhost;
},
{
horizontal = 1;
place = "{750, -20}";
target = down;
type = TopGhost;
},
{
horizontal = 1;
place = "{0, 21}";
target = up;
type = BottomGhost;
},
{
horizontal = 1;
place = "{520, -20}";
target = down;
type = TopGhost;
},
{
horizontal = 1;
place = "{0, 21}";
target = up;
type = BottomGhost;
},
{
horizontal = 1;
place = "{750, -20}";
target = down;
type = TopGhost;
}
);
layerId = UUID0;
paths = (
{
closed = 1;
nodes = (
"107 0 LINE",
"151 359 LINE",
"281 359 LINE",
"282 372 LINE",
"152 372 LINE",
"179 589 LINE SMOOTH",
"193 706 OFFCURVE",
"227 745 OFFCURVE",
"291 745 CURVE SMOOTH",
"304 745 OFFCURVE",
"313 742 OFFCURVE",
"319 739 CURVE",
"327 749 LINE",
"315 753 OFFCURVE",
"303 756 OFFCURVE",
"291 756 CURVE SMOOTH",
"221 756 OFFCURVE",
"180 715 OFFCURVE",
"164 585 CURVE SMOOTH",
"138 372 LINE",
"73 372 LINE",
"72 359 LINE",
"137 359 LINE",
"93 0 LINE"
);
}
);
width = 513;
},
{
components = (
{
name = i;
transform = "{1, 0, 0, 1, 335, 0}";
}
);
hints = (
{
horizontal = 1;
place = "{0, 21}";
target = up;
type = BottomGhost;
},
{
horizontal = 1;
place = "{573, -20}";
target = down;
type = TopGhost;
},
{
horizontal = 1;
place = "{0, 21}";
target = up;
type = BottomGhost;
},
{
horizontal = 1;
place = "{751, -20}";
target = down;
type = TopGhost;
}
);
layerId = UUID1;
paths = (
{
closed = 1;
nodes = (
"224 0 LINE",
"262 315 LINE",
"374 315 LINE",
"390 439 LINE",
"278 439 LINE",
"296 587 LINE",
"303 645 OFFCURVE",
"334 671 OFFCURVE",
"374 671 CURVE",
"390 671 OFFCURVE",
"408 666 OFFCURVE",
"420 649 CURVE",
"492 750 LINE",
"460 775 OFFCURVE",
"410 786 OFFCURVE",
"373 786 CURVE",
"248 786 OFFCURVE",
"170 705 OFFCURVE",
"156 591 CURVE",
"138 439 LINE",
"64 439 LINE",
"48 315 LINE",
"122 315 LINE",
"84 0 LINE"
);
}
);
width = 621;
}
);
leftMetricsKey = f;
rightMetricsKey = n;
unicode = FB01;
},
{
glyphname = fl;
lastChange = "2016-12-12 21:34:22 +0000";
layers = (
{
components = (
{
name = l;
transform = "{1, 0, 0, 1, 277, 0}";
}
);
hints = (
{
horizontal = 1;
place = "{750, -20}";
target = down;
type = TopGhost;
},
{
horizontal = 1;
place = "{0, 21}";
target = up;
type = BottomGhost;
},
{
horizontal = 1;
place = "{0, 21}";
target = up;
type = BottomGhost;
},
{
horizontal = 1;
place = "{750, -20}";
target = down;
type = TopGhost;
},
{
horizontal = 1;
place = "{0, 21}";
target = up;
type = BottomGhost;
},
{
horizontal = 1;
place = "{750, -20}";
target = down;
type = TopGhost;
}
);
layerId = UUID0;
paths = (
{
closed = 1;
nodes = (
"107 0 LINE",
"151 359 LINE",
"281 359 LINE",
"282 372 LINE",
"152 372 LINE",
"179 589 LINE SMOOTH",
"193 706 OFFCURVE",
"227 745 OFFCURVE",
"291 745 CURVE SMOOTH",
"304 745 OFFCURVE",
"313 742 OFFCURVE",
"319 739 CURVE",
"327 749 LINE",
"315 753 OFFCURVE",
"303 756 OFFCURVE",
"291 756 CURVE SMOOTH",
"221 756 OFFCURVE",
"180 715 OFFCURVE",
"164 585 CURVE SMOOTH",
"138 372 LINE",
"73 372 LINE",
"72 359 LINE",
"137 359 LINE",
"93 0 LINE"
);
}
);
width = 481;
},
{
components = (
{
name = l;
transform = "{1, 0, 0, 1, 366, 0}";
}
);
hints = (
{
horizontal = 1;
place = "{750, -20}";
target = down;
type = TopGhost;
},
{
horizontal = 1;
place = "{0, 21}";
target = up;
type = BottomGhost;
},
{
horizontal = 1;
place = "{0, 21}";
target = up;
type = BottomGhost;
},
{
horizontal = 1;
place = "{751, -20}";
target = down;
type = TopGhost;
}
);
layerId = UUID1;
paths = (
{
closed = 1;
nodes = (
"224 0 LINE",
"262 315 LINE",
"374 315 LINE",
"390 439 LINE",
"278 439 LINE",
"296 587 LINE",
"303 645 OFFCURVE",
"334 671 OFFCURVE",
"374 671 CURVE",
"390 671 OFFCURVE",
"408 666 OFFCURVE",
"420 649 CURVE",
"492 750 LINE",
"460 775 OFFCURVE",
"410 786 OFFCURVE",
"373 786 CURVE",
"248 786 OFFCURVE",
"170 705 OFFCURVE",
"156 591 CURVE",
"138 439 LINE",
"64 439 LINE",
"48 315 LINE",
"122 315 LINE",
"84 0 LINE"
);
}
);
width = 651;
}
);
leftMetricsKey = f;
rightMetricsKey = n;
unicode = FB02;
},
{
glyphname = ordfeminine;
lastChange = "2016-12-06 18:23:16 +0000";
layers = (
{
components = (
{
name = a;
transform = "{0.7213, 0, 0, 0.7212, 0, 0}";
}
);
layerId = UUID0;
width = 391;
},
{
layerId = UUID1;
paths = (
{
closed = 1;
nodes = (
"233 427 OFFCURVE",
"266 471 OFFCURVE",
"269 471 CURVE",
"266 488 LINE",
"259 434 LINE",
"365 434 LINE",
"400 724 LINE",
"300 724 LINE",
"292 697 LINE",
"278 717 OFFCURVE",
"259 736 OFFCURVE",
"210 736 CURVE",
"146 736 OFFCURVE",
"80 675 OFFCURVE",
"69 579 CURVE",
"56 474 OFFCURVE",
"105 427 OFFCURVE",
"175 427 CURVE"
);
},
{
closed = 1;
nodes = (
"190 512 OFFCURVE",
"171 543 OFFCURVE",
"176 583 CURVE",
"181 623 OFFCURVE",
"207 651 OFFCURVE",
"236 651 CURVE",
"261 651 OFFCURVE",
"276 636 OFFCURVE",
"281 611 CURVE",
"273 550 LINE",
"259 526 OFFCURVE",
"244 512 OFFCURVE",
"220 512 CURVE"
);
}
);
width = 389;
}
);
unicode = 00AA;
},
{
glyphname = ordmasculine;
lastChange = "2016-12-06 18:23:04 +0000";
layers = (
{
components = (
{
name = o;
transform = "{0.7212, 0, 0, 0.7212, 0, 0}";
}
);
layerId = UUID0;
width = 360;
},
{
layerId = UUID1;
paths = (
{
closed = 1;
nodes = (
"59 494 OFFCURVE",
"119 432 OFFCURVE",
"213 426 CURVE",
"313 420 OFFCURVE",
"381 482 OFFCURVE",
"392 571 CURVE",
"403 660 OFFCURVE",
"349 729 OFFCURVE",
"252 735 CURVE",
"155 741 OFFCURVE",
"82 680 OFFCURVE",
"71 591 CURVE"
);
},
{
closed = 1;
nodes = (
"183 619 OFFCURVE",
"209 645 OFFCURVE",
"239 643 CURVE",
"271 641 OFFCURVE",
"289 613 OFFCURVE",
"285 577 CURVE",
"280 542 OFFCURVE",
"256 516 OFFCURVE",
"223 518 CURVE",
"194 520 OFFCURVE",
"174 548 OFFCURVE",
"178 583 CURVE"
);
}
);
width = 374;
}
);
unicode = 00BA;
},
{
glyphname = pi;
lastChange = "2016-08-26 20:41:54 +0000";
layers = (
{
hints = (
{
horizontal = 1;
place = "{0, 21}";
target = up;
type = BottomGhost;
},
{
horizontal = 1;
place = "{573, -20}";
target = down;
type = TopGhost;
},
{
horizontal = 1;
place = "{478, 21}";
target = up;
type = BottomGhost;
},
{
horizontal = 1;
place = "{531, -20}";
target = down;
type = TopGhost;
},
{
horizontal = 1;
place = "{0, 21}";
target = up;
type = BottomGhost;
},
{
horizontal = 1;
place = "{573, -20}";
target = down;
type = TopGhost;
}
);
layerId = UUID0;
paths = (
{
closed = 1;
nodes = (
"38 306 LINE",
"89 306 LINE",
"51 0 LINE",
"65 0 LINE",
"103 306 LINE",
"252 306 LINE",
"214 0 LINE",
"228 0 LINE",
"266 306 LINE",
"304 306 LINE",
"306 320 LINE",
"40 320 LINE"
);
}
);
width = 266;
},
{
hints = (
{
horizontal = 1;
place = "{0, 21}";
target = up;
type = BottomGhost;
},
{
horizontal = 1;
place = "{573, -20}";
target = down;
type = TopGhost;
},
{
horizontal = 1;
place = "{478, 21}";
target = up;
type = BottomGhost;
},
{
horizontal = 1;
place = "{531, -20}";
target = down;
type = TopGhost;
},
{
horizontal = 1;
place = "{0, 21}";
target = up;
type = BottomGhost;
},
{
horizontal = 1;
place = "{573, -20}";
target = down;
type = TopGhost;
}
);
layerId = UUID1;
paths = (
{
closed = 1;
nodes = (
"39 247 LINE",
"97 247 LINE",
"67 0 LINE",
"192 0 LINE",
"222 247 LINE",
"274 247 LINE",
"244 0 LINE",
"368 0 LINE",
"398 247 LINE",
"461 247 LINE",
"476 368 LINE",
"54 368 LINE"
);
}
);
width = 444;
}
);
unicode = 03C0;
},
{
glyphname = zero;
lastChange = "2016-12-09 19:56:42 +0000";
layers = (
{
layerId = UUID0;
paths = (
{
closed = 1;
nodes = (
"76 327 LINE",
"52 141 OFFCURVE",
"154 -6 OFFCURVE",
"300 -7 CURVE SMOOTH",
"447 -8 OFFCURVE",
"589 139 OFFCURVE",
"613 324 CURVE SMOOTH",
"630 452 OFFCURVE",
"587 657 OFFCURVE",
"389 658 CURVE SMOOTH",
"188 659 OFFCURVE",
"92 454 OFFCURVE",
"76 327 CURVE SMOOTH"
);
},
{
closed = 1;
nodes = (
"91 328 LINE",
"116 523 OFFCURVE",
"243 645 OFFCURVE",
"386 644 CURVE SMOOTH",
"529 643 OFFCURVE",
"624 519 OFFCURVE",
"599 323 CURVE SMOOTH",
"574 130 OFFCURVE",
"432 6 OFFCURVE",
"304 7 CURVE SMOOTH",
"175 8 OFFCURVE",
"66 134 OFFCURVE",
"91 328 CURVE SMOOTH"
);
}
);
width = 616;
},
{
layerId = UUID1;
paths = (
{
closed = 1;
nodes = (
"513 1 OFFCURVE",
"612 166 OFFCURVE",
"624 369 CURVE SMOOTH",
"646 582 OFFCURVE",
"500 669 OFFCURVE",
"377 669 CURVE SMOOTH",
"77 669 OFFCURVE",
"60 334 OFFCURVE",
"60 272 CURVE SMOOTH",
"60 69 OFFCURVE",
"186 1 OFFCURVE",
"314 1 CURVE SMOOTH"
);
},
{
closed = 1;
nodes = (
"274 139 OFFCURVE",
"214 163 OFFCURVE",
"214 284 CURVE SMOOTH",
"214 386 OFFCURVE",
"251 531 OFFCURVE",
"354 531 CURVE SMOOTH",
"412 531 OFFCURVE",
"471 507 OFFCURVE",
"471 386 CURVE SMOOTH",
"471 284 OFFCURVE",
"435 139 OFFCURVE",
"332 139 CURVE SMOOTH"
);
}
);
width = 657;
}
);
unicode = 0030;
},
{
glyphname = one;
lastChange = "2016-12-09 19:54:23 +0000";
layers = (
{
hints = (
{
horizontal = 1;
place = "{0, 21}";
target = up;
type = BottomGhost;
},
{
horizontal = 1;
place = "{650, -20}";
target = down;
type = TopGhost;
}
);
layerId = UUID0;
paths = (
{
closed = 1;
nodes = (
"112 636 LINE",
"225 636 LINE",
"147 0 LINE",
"161 0 LINE",
"241 650 LINE",
"114 650 LINE"
);
}
);
width = 249;
},
{
hints = (
{
horizontal = 1;
place = "{0, 21}";
target = up;
type = BottomGhost;
},
{
horizontal = 1;
place = "{650, -20}";
target = down;
type = TopGhost;
}
);
layerId = UUID1;
paths = (
{
closed = 1;
nodes = (
"112 523 LINE",
"165 523 LINE",
"101 0 LINE",
"247 0 LINE",
"329 663 LINE",
"130 663 LINE"
);
}
);
width = 373;
}
);
rightMetricsKey = H;
unicode = 0031;
},
{
glyphname = two;
lastChange = "2016-12-09 19:56:56 +0000";
layers = (
{
hints = (
{
horizontal = 1;
place = "{658, -20}";
target = down;
type = TopGhost;
},
{
horizontal = 1;
place = "{0, 21}";
target = up;
type = BottomGhost;
}
);
layerId = UUID0;
paths = (
{
closed = 1;
nodes = (
"449 0 LINE",
"451 14 LINE",
"91 14 LINE",
"91 14 LINE",
"256 166 OFFCURVE",
"462 321 OFFCURVE",
"462 489 CURVE SMOOTH",
"462 587 OFFCURVE",
"403 658 OFFCURVE",
"309 658 CURVE SMOOTH",
"182 658 OFFCURVE",
"106 562 OFFCURVE",
"106 447 CURVE SMOOTH",
"106 405 OFFCURVE",
"118 373 OFFCURVE",
"138 347 CURVE",
"141 350 OFFCURVE",
"144 352 OFFCURVE",
"148 355 CURVE",
"129 378 OFFCURVE",
"120 410 OFFCURVE",
"120 447 CURVE SMOOTH",
"120 516 OFFCURVE",
"158 644 OFFCURVE",
"307 644 CURVE SMOOTH",
"367 644 OFFCURVE",
"447 607 OFFCURVE",
"447 483 CURVE SMOOTH",
"447 337 OFFCURVE",
"254 172 OFFCURVE",
"53 0 CURVE"
);
}
);
width = 495;
},
{
hints = (
{
horizontal = 1;
place = "{658, -20}";
target = down;
type = TopGhost;
},
{
horizontal = 1;
place = "{0, 21}";
target = up;
type = BottomGhost;
}
);
layerId = UUID1;
paths = (
{
closed = 1;
nodes = (
"509 0 LINE",
"526 140 LINE",
"280 140 LINE",
"348 121 LINE",
"506 276 OFFCURVE",
"558 356 OFFCURVE",
"558 472 CURVE SMOOTH",
"558 588 OFFCURVE",
"483 671 OFFCURVE",
"326 671 CURVE SMOOTH",
"146 671 OFFCURVE",
"65 551 OFFCURVE",
"65 453 CURVE SMOOTH",
"65 382 OFFCURVE",
"103 308 OFFCURVE",
"136 275 CURVE",
"235 356 LINE",
"217 378 OFFCURVE",
"207 405 OFFCURVE",
"207 440 CURVE SMOOTH",
"207 490 OFFCURVE",
"245 531 OFFCURVE",
"308 531 CURVE SMOOTH",
"367 531 OFFCURVE",
"405 500 OFFCURVE",
"405 437 CURVE SMOOTH",
"405 361 OFFCURVE",
"359 299 OFFCURVE",
"30 0 CURVE"
);
}
);
width = 586;
}
);
unicode = 0032;
},
{
glyphname = three;
lastChange = "2016-12-09 19:57:21 +0000";
layers = (
{
hints = (
{
horizontal = 1;
place = "{-8, 21}";
target = up;
type = BottomGhost;
},
{
horizontal = 1;
place = "{650, -20}";
target = down;
type = TopGhost;
}
);
layerId = UUID0;
paths = (
{
closed = 1;
nodes = (
"183 650 LINE",
"181 636 LINE",
"468 636 LINE",
"386 544 OFFCURVE",
"304 453 OFFCURVE",
"222 361 CURVE",
"222 361 LINE",
"242 375 OFFCURVE",
"265 384 OFFCURVE",
"286 384 CURVE SMOOTH",
"383 384 OFFCURVE",
"457 309 OFFCURVE",
"457 214 CURVE SMOOTH",
"457 103 OFFCURVE",
"352 6 OFFCURVE",
"240 6 CURVE SMOOTH",
"185 6 OFFCURVE",
"139 33 OFFCURVE",
"112 71 CURVE",
"108 67 OFFCURVE",
"103 62 OFFCURVE",
"100 58 CURVE",
"132 18 OFFCURVE",
"181 -8 OFFCURVE",
"241 -8 CURVE SMOOTH",
"361 -8 OFFCURVE",
"471 94 OFFCURVE",
"471 216 CURVE SMOOTH",
"471 325 OFFCURVE",
"385 404 OFFCURVE",
"272 398 CURVE",
"348 482 OFFCURVE",
"425 566 OFFCURVE",
"502 650 CURVE"
);
}
);
width = 515;
},
{
hints = (
{
horizontal = 1;
place = "{-8, 21}";
target = up;
type = BottomGhost;
},
{
horizontal = 1;
place = "{650, -20}";
target = down;
type = TopGhost;
}
);
layerId = UUID1;
paths = (
{
closed = 1;
nodes = (
"125 663 LINE",
"108 523 LINE",
"317 523 LINE",
"277 540 LINE",
"133 321 LINE",
"136 317 LINE",
"148 322 OFFCURVE",
"176 330 OFFCURVE",
"206 330 CURVE SMOOTH",
"275 330 OFFCURVE",
"328 295 OFFCURVE",
"328 232 CURVE SMOOTH",
"328 174 OFFCURVE",
"290 132 OFFCURVE",
"231 132 CURVE SMOOTH",
"190 132 OFFCURVE",
"144 159 OFFCURVE",
"121 196 CURVE",
"33 80 LINE",
"78 22 OFFCURVE",
"169 -7 OFFCURVE",
"231 -7 CURVE SMOOTH",
"405 -7 OFFCURVE",
"478 117 OFFCURVE",
"478 239 CURVE SMOOTH",
"478 349 OFFCURVE",
"392 419 OFFCURVE",
"305 425 CURVE SMOOTH",
"292 425 OFFCURVE",
"266 424 OFFCURVE",
"227 418 CURVE",
"301 375 LINE",
"486 663 LINE"
);
}
);
width = 513;
}
);
unicode = 0033;
},
{
glyphname = four;
lastChange = "2016-12-09 18:35:04 +0000";
layers = (
{
hints = (
{
horizontal = 1;
place = "{0, 21}";
target = up;
type = BottomGhost;
},
{
horizontal = 1;
place = "{658, -20}";
target = down;
type = TopGhost;
}
);
layerId = UUID0;
paths = (
{
closed = 1;
nodes = (
"411 183 LINE",
"389 0 LINE",
"403 0 LINE",
"425 183 LINE",
"522 183 LINE",
"524 197 LINE",
"427 197 LINE",
"483 658 LINE",
"342 500 OFFCURVE",
"200 341 OFFCURVE",
"59 183 CURVE"
);
},
{
closed = 1;
nodes = (
"413 197 LINE",
"91 197 LINE",
"215 337 OFFCURVE",
"340 477 OFFCURVE",
"464 617 CURVE"
);
}
);
width = 505;
},
{
hints = (
{
horizontal = 1;
place = "{0, 21}";
target = up;
type = BottomGhost;
},
{
horizontal = 1;
place = "{658, -20}";
target = down;
type = TopGhost;
}
);
layerId = UUID1;
paths = (
{
closed = 1;
nodes = (
"262 145 LINE",
"244 0 LINE",
"390 0 LINE",
"408 145 LINE",
"487 145 LINE",
"500 255 LINE",
"421 255 LINE",
"472 671 LINE",
"471 671 LINE",
"-16 146 LINE",
"-16 145 LINE"
);
},
{
closed = 1;
nodes = (
"275 255 LINE",
"209 255 LINE",
"286 343 LINE"
);
}
);
width = 522;
}
);
unicode = 0034;
},
{
glyphname = five;
lastChange = "2016-12-09 19:58:22 +0000";
layers = (
{
hints = (
{
horizontal = 1;
place = "{-8, 21}";
target = up;
type = BottomGhost;
},
{
horizontal = 1;
place = "{650, -20}";
target = down;
type = TopGhost;
}
);
layerId = UUID0;
paths = (
{
closed = 1;
nodes = (
"374 -8 OFFCURVE",
"486 94 OFFCURVE",
"486 215 CURVE SMOOTH",
"486 316 OFFCURVE",
"408 395 OFFCURVE",
"304 395 CURVE SMOOTH",
"269 395 OFFCURVE",
"229 384 OFFCURVE",
"198 365 CURVE",
"202 366 LINE",
"235 636 LINE",
"508 636 LINE",
"510 650 LINE",
"223 650 LINE",
"185 341 LINE",
"186 341 LINE",
"212 363 OFFCURVE",
"254 381 OFFCURVE",
"300 381 CURVE SMOOTH",
"398 381 OFFCURVE",
"471 307 OFFCURVE",
"471 213 CURVE SMOOTH",
"471 103 OFFCURVE",
"368 6 OFFCURVE",
"254 6 CURVE SMOOTH",
"204 6 OFFCURVE",
"161 25 OFFCURVE",
"133 58 CURVE",
"121 48 LINE",
"154 13 OFFCURVE",
"200 -8 OFFCURVE",
"254 -8 CURVE SMOOTH"
);
}
);
width = 543;
},
{
background = {
paths = (
{
closed = 1;
nodes = (
"312 542 LINE",
"498 542 LINE",
"512 663 LINE",
"219 663 LINE",
"173 289 LINE",
"173 289 LINE",
"215 328 OFFCURVE",
"258 328 OFFCURVE",
"290 328 CURVE SMOOTH",
"343 328 OFFCURVE",
"384 285 OFFCURVE",
"384 232 CURVE SMOOTH",
"384 168 OFFCURVE",
"325 113 OFFCURVE",
"265 113 CURVE SMOOTH",
"237 113 OFFCURVE",
"214 125 OFFCURVE",
"198 141 CURVE",
"166 112 OFFCURVE",
"131 86 OFFCURVE",
"97 57 CURVE",
"133 16 OFFCURVE",
"186 -8 OFFCURVE",
"247 -8 CURVE SMOOTH",
"383 -8 OFFCURVE",
"510 105 OFFCURVE",
"510 250 CURVE SMOOTH",
"510 359 OFFCURVE",
"436 449 OFFCURVE",
"304 449 CURVE SMOOTH",
"298 449 OFFCURVE",
"302 449 OFFCURVE",
"300 449 CURVE"
);
}
);
};
hints = (
{
horizontal = 1;
place = "{-8, 21}";
target = up;
type = BottomGhost;
},
{
horizontal = 1;
place = "{650, -20}";
target = down;
type = TopGhost;
}
);
layerId = UUID1;
paths = (
{
closed = 1;
nodes = (
"177 -8 OFFCURVE",
"235 -8 CURVE SMOOTH",
"403 -8 OFFCURVE",
"480 117 OFFCURVE",
"480 239 CURVE SMOOTH",
"480 403 OFFCURVE",
"350 449 OFFCURVE",
"270 449 CURVE SMOOTH",
"246 449 OFFCURVE",
"225 447 OFFCURVE",
"213 444 CURVE",
"221 416 LINE",
"248 523 LINE",
"463 523 LINE",
"479 663 LINE",
"157 663 LINE",
"76 291 LINE",
"77 291 LINE",
"128 323 OFFCURVE",
"172 331 OFFCURVE",
"207 331 CURVE SMOOTH",
"248 331 OFFCURVE",
"330 324 OFFCURVE",
"330 232 CURVE SMOOTH",
"330 181 OFFCURVE",
"298 134 OFFCURVE",
"230 134 CURVE SMOOTH",
"193 134 OFFCURVE",
"147 153 OFFCURVE",
"122 192 CURVE",
"33 80 LINE",
"81 23 OFFCURVE"
);
}
);
width = 515;
}
);
unicode = 0035;
},
{
glyphname = six;
lastChange = "2016-12-09 19:58:51 +0000";
layers = (
{
hints = (
{
horizontal = 1;
place = "{-8, 21}";
target = up;
type = BottomGhost;
},
{
horizontal = 1;
place = "{633, -20}";
target = down;
type = TopGhost;
}
);
layerId = UUID0;
paths = (
{
closed = 1;
nodes = (
"72 173 LINE SMOOTH",
"72 72 OFFCURVE",
"148 -8 OFFCURVE",
"253 -8 CURVE SMOOTH",
"374 -8 OFFCURVE",
"483 93 OFFCURVE",
"483 213 CURVE SMOOTH",
"483 314 OFFCURVE",
"407 395 OFFCURVE",
"302 395 CURVE SMOOTH",
"235 395 OFFCURVE",
"173 363 OFFCURVE",
"130 314 CURVE",
"170 388 OFFCURVE",
"276 502 OFFCURVE",
"468 620 CURVE",
"466 624 OFFCURVE",
"462 629 OFFCURVE",
"460 633 CURVE",
"287 517 OFFCURVE",
"72 373 OFFCURVE",
"72 173 CURVE SMOOTH"
);
},
{
closed = 1;
nodes = (
"85 174 LINE SMOOTH",
"85 287 OFFCURVE",
"187 381 OFFCURVE",
"300 381 CURVE SMOOTH",
"397 381 OFFCURVE",
"469 306 OFFCURVE",
"469 212 CURVE SMOOTH",
"469 99 OFFCURVE",
"367 6 OFFCURVE",
"254 6 CURVE SMOOTH",
"157 6 OFFCURVE",
"85 80 OFFCURVE",
"85 174 CURVE SMOOTH"
);
}
);
width = 520;
},
{
hints = (
{
horizontal = 1;
place = "{-8, 21}";
target = up;
type = BottomGhost;
},
{
horizontal = 1;
place = "{637, -20}";
target = down;
type = TopGhost;
}
);
layerId = UUID1;
paths = (
{
closed = 1;
nodes = (
"478 -8 OFFCURVE",
"552 139 OFFCURVE",
"552 236 CURVE SMOOTH",
"552 388 OFFCURVE",
"434 434 OFFCURVE",
"374 434 CURVE SMOOTH",
"274 434 OFFCURVE",
"222 389 OFFCURVE",
"179 312 CURVE",
"214 306 LINE",
"225 394 OFFCURVE",
"310 515 OFFCURVE",
"477 568 CURVE",
"393 679 LINE",
"142 554 OFFCURVE",
"56 391 OFFCURVE",
"56 248 CURVE SMOOTH",
"56 84 OFFCURVE",
"156 -8 OFFCURVE",
"294 -8 CURVE SMOOTH"
);
},
{
closed = 1;
nodes = (
"239 122 OFFCURVE",
"199 164 OFFCURVE",
"199 216 CURVE SMOOTH",
"199 258 OFFCURVE",
"222 315 OFFCURVE",
"304 315 CURVE SMOOTH",
"360 315 OFFCURVE",
"401 285 OFFCURVE",
"401 230 CURVE SMOOTH",
"401 190 OFFCURVE",
"377 122 OFFCURVE",
"295 122 CURVE SMOOTH"
);
}
);
width = 586;
}
);
unicode = 0036;
},
{
glyphname = seven;
lastChange = "2016-12-09 19:32:36 +0000";
layers = (
{
hints = (
{
horizontal = 1;
place = "{0, 21}";
target = up;
type = BottomGhost;
},
{
horizontal = 1;
place = "{650, -20}";
target = down;
type = TopGhost;
}
);
layerId = UUID0;
paths = (
{
closed = 1;
nodes = (
"94 650 LINE",
"92 636 LINE",
"470 636 LINE",
"348 424 OFFCURVE",
"227 212 OFFCURVE",
"105 0 CURVE",
"123 0 LINE",
"247 217 OFFCURVE",
"371 433 OFFCURVE",
"495 650 CURVE"
);
}
);
width = 469;
},
{
hints = (
{
horizontal = 1;
place = "{0, 21}";
target = up;
type = BottomGhost;
},
{
horizontal = 1;
place = "{650, -20}";
target = down;
type = TopGhost;
}
);
layerId = UUID1;
paths = (
{
closed = 1;
nodes = (
"95 663 LINE",
"77 523 LINE",
"368 523 LINE",
"321 540 LINE",
"52 0 LINE",
"218 0 LINE",
"543 663 LINE"
);
}
);
width = 503;
}
);
unicode = 0037;
},
{
glyphname = eight;
lastChange = "2016-12-09 19:59:08 +0000";
layers = (
{
hints = (
{
place = "{53, 69}";
},
{
place = "{382, 78}";
},
{
horizontal = 1;
place = "{-8, 21}";
target = up;
type = BottomGhost;
},
{
horizontal = 1;
place = "{658, -20}";
target = down;
type = TopGhost;
}
);
layerId = UUID0;
paths = (
{
closed = 1;
nodes = (
"75 175 LINE SMOOTH",
"75 73 OFFCURVE",
"151 -8 OFFCURVE",
"254 -8 CURVE SMOOTH",
"374 -8 OFFCURVE",
"485 94 OFFCURVE",
"485 215 CURVE SMOOTH",
"485 300 OFFCURVE",
"431 370 OFFCURVE",
"352 389 CURVE",
"413 410 OFFCURVE",
"460 463 OFFCURVE",
"460 528 CURVE SMOOTH",
"460 600 OFFCURVE",
"407 658 OFFCURVE",
"333 658 CURVE SMOOTH",
"248 658 OFFCURVE",
"171 588 OFFCURVE",
"171 504 CURVE SMOOTH",
"171 450 OFFCURVE",
"203 405 OFFCURVE",
"252 389 CURVE",
"154 365 OFFCURVE",
"75 278 OFFCURVE",
"75 175 CURVE SMOOTH"
);
},
{
closed = 1;
nodes = (
"90 176 LINE SMOOTH",
"90 288 OFFCURVE",
"188 381 OFFCURVE",
"300 381 CURVE SMOOTH",
"398 381 OFFCURVE",
"471 307 OFFCURVE",
"471 213 CURVE SMOOTH",
"471 103 OFFCURVE",
"367 5 OFFCURVE",
"254 5 CURVE SMOOTH",
"158 5 OFFCURVE",
"90 83 OFFCURVE",
"90 176 CURVE SMOOTH"
);
},
{
closed = 1;
nodes = (
"184 500 LINE SMOOTH",
"184 575 OFFCURVE",
"254 644 OFFCURVE",
"333 644 CURVE SMOOTH",
"400 644 OFFCURVE",
"446 589 OFFCURVE",
"446 525 CURVE SMOOTH",
"446 451 OFFCURVE",
"381 396 OFFCURVE",
"303 396 CURVE SMOOTH",
"234 396 OFFCURVE",
"184 440 OFFCURVE",
"184 500 CURVE SMOOTH"
);
}
);
width = 510;
},
{
hints = (
{
place = "{36, 144}";
},
{
place = "{330, 142}";
},
{
horizontal = 1;
place = "{-8, 21}";
target = up;
type = BottomGhost;
},
{
horizontal = 1;
place = "{658, -20}";
target = down;
type = TopGhost;
}
);
layerId = UUID1;
paths = (
{
closed = 1;
nodes = (
"37 231 LINE SMOOTH",
"36 223 OFFCURVE",
"36 215 OFFCURVE",
"36 207 CURVE SMOOTH",
"36 95 OFFCURVE",
"131 -8 OFFCURVE",
"277 -8 CURVE SMOOTH",
"475 -8 OFFCURVE",
"538 158 OFFCURVE",
"538 227 CURVE SMOOTH",
"538 311 OFFCURVE",
"484 361 OFFCURVE",
"445 392 CURVE",
"490 431 OFFCURVE",
"517 463 OFFCURVE",
"517 528 CURVE SMOOTH",
"517 607 OFFCURVE",
"431 671 OFFCURVE",
"326 671 CURVE SMOOTH",
"185 671 OFFCURVE",
"135 570 OFFCURVE",
"135 503 CURVE SMOOTH",
"135 460 OFFCURVE",
"153 436 OFFCURVE",
"175 408 CURVE",
"125 383 OFFCURVE",
"50 333 OFFCURVE",
"37 231 CURVE SMOOTH"
);
},
{
closed = 1;
nodes = (
"218 328 OFFCURVE",
"298 328 CURVE SMOOTH",
"354 328 OFFCURVE",
"394 283 OFFCURVE",
"394 228 CURVE SMOOTH",
"394 165 OFFCURVE",
"348 114 OFFCURVE",
"279 114 CURVE SMOOTH",
"216 114 OFFCURVE",
"185 159 OFFCURVE",
"185 214 CURVE SMOOTH",
"185 261 OFFCURVE"
);
},
{
closed = 1;
nodes = (
"293 549 OFFCURVE",
"329 549 CURVE SMOOTH",
"353 549 OFFCURVE",
"375 529 OFFCURVE",
"375 500 CURVE SMOOTH",
"375 472 OFFCURVE",
"353 449 OFFCURVE",
"322 449 CURVE SMOOTH",
"299 449 OFFCURVE",
"275 470 OFFCURVE",
"275 496 CURVE SMOOTH",
"275 525 OFFCURVE"
);
}
);
width = 573;
}
);
unicode = 0038;
},
{
glyphname = nine;
lastChange = "2016-12-09 19:59:40 +0000";
layers = (
{
hints = (
{
horizontal = 1;
place = "{633, -20}";
target = down;
type = TopGhost;
},
{
horizontal = 1;
place = "{-8, 21}";
target = up;
type = BottomGhost;
}
);
layerId = UUID0;
paths = (
{
closed = 1;
nodes = (
"512 432 LINE",
"525 543 OFFCURVE",
"445 633 OFFCURVE",
"332 633 CURVE SMOOTH",
"211 633 OFFCURVE",
"102 532 OFFCURVE",
"102 412 CURVE SMOOTH",
"102 311 OFFCURVE",
"178 230 OFFCURVE",
"283 230 CURVE SMOOTH",
"350 230 OFFCURVE",
"413 262 OFFCURVE",
"456 311 CURVE",
"416 237 OFFCURVE",
"310 123 OFFCURVE",
"117 5 CURVE",
"120 1 OFFCURVE",
"123 -4 OFFCURVE",
"125 -8 CURVE",
"288 101 OFFCURVE",
"488 238 OFFCURVE",
"512 432 CURVE"
);
},
{
closed = 1;
nodes = (
"499 432 LINE",
"486 328 OFFCURVE",
"390 244 OFFCURVE",
"285 244 CURVE SMOOTH",
"188 244 OFFCURVE",
"116 319 OFFCURVE",
"116 413 CURVE SMOOTH",
"116 526 OFFCURVE",
"219 619 OFFCURVE",
"331 619 CURVE SMOOTH",
"436 619 OFFCURVE",
"511 536 OFFCURVE",
"499 432 CURVE"
);
}
);
width = 525;
},
{
hints = (
{
horizontal = 1;
place = "{636, -20}";
target = down;
type = TopGhost;
},
{
horizontal = 1;
place = "{-9, 21}";
target = up;
type = BottomGhost;
}
);
layerId = UUID1;
paths = (
{
closed = 1;
nodes = (
"168 210 OFFCURVE",
"250 210 CURVE SMOOTH",
"339 210 OFFCURVE",
"390 255 OFFCURVE",
"433 332 CURVE",
"398 338 LINE",
"387 250 OFFCURVE",
"266 159 OFFCURVE",
"99 106 CURVE",
"183 -5 LINE",
"470 138 OFFCURVE",
"561 269 OFFCURVE",
"561 427 CURVE SMOOTH",
"561 553 OFFCURVE",
"459 652 OFFCURVE",
"318 652 CURVE SMOOTH",
"134 652 OFFCURVE",
"60 504 OFFCURVE",
"60 408 CURVE SMOOTH",
"60 276 OFFCURVE"
);
},
{
closed = 1;
nodes = (
"253 329 OFFCURVE",
"212 358 OFFCURVE",
"212 413 CURVE SMOOTH",
"212 454 OFFCURVE",
"235 522 OFFCURVE",
"317 522 CURVE SMOOTH",
"378 522 OFFCURVE",
"418 473 OFFCURVE",
"412 423 CURVE SMOOTH",
"405 358 OFFCURVE",
"371 329 OFFCURVE",
"308 329 CURVE SMOOTH"
);
}
);
width = 573;
}
);
unicode = 0039;
},
{
glyphname = onesuperior;
lastChange = "2016-12-11 00:47:32 +0000";
layers = (
{
components = (
{
name = one;
transform = "{0.4575, 0, 0, 0.46, 103, 401}";
}
);
layerId = UUID0;
width = 249;
},
{
layerId = UUID1;
paths = (
{
closed = 1;
nodes = (
"67 555 LINE",
"135 555 LINE",
"100 265 LINE",
"230 265 LINE",
"280 680 LINE",
"82 680 LINE"
);
}
);
width = 284;
}
);
unicode = 00B9;
},
{
glyphname = twosuperior;
lastChange = "2016-12-11 00:48:06 +0000";
layers = (
{
components = (
{
name = two;
transform = "{0.4954, 0, 0, 0.4939, 122, 375}";
}
);
layerId = UUID0;
width = 398;
},
{
layerId = UUID1;
paths = (
{
closed = 1;
nodes = (
"123 531 LINE",
"140 553 OFFCURVE",
"181 575 OFFCURVE",
"210 575 CURVE SMOOTH",
"246 575 OFFCURVE",
"259 554 OFFCURVE",
"254 509 CURVE SMOOTH",
"245 437 OFFCURVE",
"136 373 OFFCURVE",
"78 346 CURVE",
"68 265 LINE",
"384 265 LINE",
"398 381 LINE",
"185 381 LINE",
"151 287 LINE",
"227 341 OFFCURVE",
"389 424 OFFCURVE",
"405 548 CURVE SMOOTH",
"415 634 OFFCURVE",
"357 689 OFFCURVE",
"263 691 CURVE SMOOTH",
"199 692 OFFCURVE",
"126 663 OFFCURVE",
"95 623 CURVE"
);
}
);
width = 408;
}
);
unicode = 00B2;
},
{
glyphname = threesuperior;
lastChange = "2016-12-11 00:48:29 +0000";
layers = (
{
components = (
{
name = three;
transform = "{0.4929, 0, 0, 0.4924, 97, 380}";
}
);
layerId = UUID0;
width = 419;
},
{
layerId = UUID1;
paths = (
{
closed = 1;
nodes = (
"266 260 OFFCURVE",
"338 324 OFFCURVE",
"348 403 CURVE SMOOTH",
"357 474 OFFCURVE",
"282 533 OFFCURVE",
"237 533 CURVE",
"201 533 OFFCURVE",
"176 519 OFFCURVE",
"156 503 CURVE",
"243 476 LINE",
"371 680 LINE",
"113 680 LINE",
"100 580 LINE",
"239 580 LINE",
"213 600 LINE",
"122 474 LINE",
"128 462 LINE",
"135 466 OFFCURVE",
"155 470 OFFCURVE",
"164 470 CURVE SMOOTH",
"200 470 OFFCURVE",
"227 445 OFFCURVE",
"222 407 CURVE SMOOTH",
"217 371 OFFCURVE",
"194 356 OFFCURVE",
"160 350 CURVE SMOOTH",
"132 345 OFFCURVE",
"108 380 OFFCURVE",
"99 392 CURVE",
"51 311 LINE",
"69 289 OFFCURVE",
"106 260 OFFCURVE",
"167 260 CURVE SMOOTH"
);
}
);
width = 375;
}
);
unicode = 00B3;
},
{
glyphname = foursuperior;
lastChange = "2016-12-11 00:48:53 +0000";
layers = (
{
components = (
{
name = four;
}
);
layerId = UUID0;
width = 600;
},
{
layerId = UUID1;
paths = (
{
closed = 1;
nodes = (
"137 437 LINE",
"149 387 LINE",
"281 551 LINE",
"250 543 LINE",
"216 265 LINE",
"336 265 LINE",
"388 687 LINE",
"300 687 LINE",
"51 393 LINE",
"49 359 LINE",
"396 359 LINE",
"405 437 LINE"
);
}
);
width = 409;
}
);
unicode = 2074;
},
{
glyphname = fraction;
lastChange = "2016-08-26 20:41:54 +0000";
layers = (
{
hints = (
{
horizontal = 1;
place = "{306, 21}";
target = up;
type = BottomGhost;
},
{
horizontal = 1;
place = "{1061, -20}";
target = down;
type = TopGhost;
}
);
layerId = UUID0;
paths = (
{
closed = 1;
nodes = (
"375 755 LINE",
"251 503 OFFCURVE",
"128 252 OFFCURVE",
"4 0 CURVE",
"18 0 LINE",
"142 252 OFFCURVE",
"265 503 OFFCURVE",
"389 755 CURVE"
);
}
);
width = 300;
},
{
hints = (
{
horizontal = 1;
place = "{181, 21}";
target = up;
type = BottomGhost;
},
{
horizontal = 1;
place = "{936, -20}";
target = down;
type = TopGhost;
}
);
layerId = UUID1;
paths = (
{
closed = 1;
nodes = (
"324 770 LINE",
"197 513 OFFCURVE",
"72 257 OFFCURVE",
"-55 0 CURVE",
"71 0 LINE",
"198 257 OFFCURVE",
"323 513 OFFCURVE",
"450 770 CURVE"
);
}
);
width = 300;
}
);
unicode = 2044;
},
{
glyphname = asterisk;
lastChange = "2016-08-26 20:41:54 +0000";
layers = (
{
hints = (
{
horizontal = 1;
place = "{720, -20}";
target = down;
type = TopGhost;
},
{
horizontal = 1;
place = "{434, 21}";
target = up;
type = BottomGhost;
}
);
layerId = UUID0;
paths = (
{
closed = 1;
nodes = (
"211 434 LINE",
"225 434 LINE",
"232 477 OFFCURVE",
"237 519 OFFCURVE",
"243 562 CURVE",
"277 540 OFFCURVE",
"312 518 OFFCURVE",
"346 496 CURVE",
"350 501 OFFCURVE",
"353 506 OFFCURVE",
"357 511 CURVE",
"322 532 OFFCURVE",
"287 554 OFFCURVE",
"253 575 CURVE",
"253 575 LINE",
"293 597 OFFCURVE",
"333 619 OFFCURVE",
"374 641 CURVE",
"372 645 OFFCURVE",
"370 649 OFFCURVE",
"368 653 CURVE",
"328 632 OFFCURVE",
"287 610 OFFCURVE",
"246 589 CURVE",
"253 633 OFFCURVE",
"258 676 OFFCURVE",
"264 720 CURVE",
"246 720 LINE",
"230 589 LINE",
"196 611 OFFCURVE",
"161 632 OFFCURVE",
"126 654 CURVE",
"124 650 OFFCURVE",
"120 646 OFFCURVE",
"118 642 CURVE",
"152 620 OFFCURVE",
"186 598 OFFCURVE",
"221 576 CURVE",
"181 555 OFFCURVE",
"142 534 OFFCURVE",
"102 513 CURVE",
"104 508 OFFCURVE",
"107 503 OFFCURVE",
"109 498 CURVE",
"149 519 OFFCURVE",
"187 540 OFFCURVE",
"227 561 CURVE"
);
}
);
width = 335;
},
{
hints = (
{
horizontal = 1;
place = "{720, -20}";
target = down;
type = TopGhost;
},
{
horizontal = 1;
place = "{434, 21}";
target = up;
type = BottomGhost;
}
);
layerId = UUID1;
paths = (
{
closed = 1;
nodes = (
"182 434 LINE",
"262 434 LINE",
"265 457 OFFCURVE",
"268 480 OFFCURVE",
"271 503 CURVE",
"291 491 OFFCURVE",
"309 478 OFFCURVE",
"329 466 CURVE",
"346 490 OFFCURVE",
"363 515 OFFCURVE",
"380 539 CURVE",
"360 551 OFFCURVE",
"341 563 OFFCURVE",
"321 575 CURVE",
"321 575 LINE",
"345 587 OFFCURVE",
"367 600 OFFCURVE",
"391 612 CURVE",
"380 635 OFFCURVE",
"369 658 OFFCURVE",
"359 681 CURVE",
"337 669 OFFCURVE",
"313 657 OFFCURVE",
"291 645 CURVE",
"294 670 OFFCURVE",
"298 695 OFFCURVE",
"301 720 CURVE",
"217 720 LINE",
"208 645 LINE",
"188 657 OFFCURVE",
"169 670 OFFCURVE",
"149 682 CURVE",
"133 659 OFFCURVE",
"118 636 OFFCURVE",
"102 613 CURVE",
"120 601 OFFCURVE",
"140 588 OFFCURVE",
"158 576 CURVE",
"136 565 OFFCURVE",
"114 553 OFFCURVE",
"92 542 CURVE",
"103 518 OFFCURVE",
"114 493 OFFCURVE",
"125 469 CURVE",
"147 481 OFFCURVE",
"169 492 OFFCURVE",
"190 504 CURVE"
);
}
);
width = 335;
}
);
unicode = 002A;
},
{
glyphname = backslash;
lastChange = "2016-08-26 20:41:54 +0000";
layers = (
{
hints = (
{
horizontal = 1;
place = "{736, -20}";
target = down;
type = TopGhost;
},
{
horizontal = 1;
place = "{-19, 21}";
target = up;
type = BottomGhost;
}
);
layerId = UUID0;
paths = (
{
closed = 1;
nodes = (
"107 736 LINE",
"169 484 OFFCURVE",
"230 233 OFFCURVE",
"292 -19 CURVE",
"306 -19 LINE",
"244 233 OFFCURVE",
"183 484 OFFCURVE",
"121 736 CURVE"
);
}
);
width = 320;
},
{
hints = (
{
horizontal = 1;
place = "{736, -20}";
target = down;
type = TopGhost;
},
{
horizontal = 1;
place = "{-19, 21}";
target = up;
type = BottomGhost;
}
);
layerId = UUID1;
paths = (
{
closed = 1;
nodes = (
"82 751 LINE",
"145 494 OFFCURVE",
"208 238 OFFCURVE",
"271 -19 CURVE",
"413 -19 LINE",
"350 238 OFFCURVE",
"287 494 OFFCURVE",
"224 751 CURVE"
);
}
);
width = 430;
}
);
unicode = 005C;
},
{
glyphname = bullet;
lastChange = "2016-08-26 20:41:54 +0000";
layers = (
{
hints = (
{
place = "{174, 131}";
},
{
horizontal = 1;
place = "{235, 131}";
}
);
layerId = UUID0;
paths = (
{
closed = 1;
nodes = (
"210 293 LINE SMOOTH",
"210 261 OFFCURVE",
"235 235 OFFCURVE",
"268 235 CURVE SMOOTH",
"308 235 OFFCURVE",
"342 267 OFFCURVE",
"342 307 CURVE SMOOTH",
"342 340 OFFCURVE",
"318 366 OFFCURVE",
"284 366 CURVE SMOOTH",
"245 366 OFFCURVE",
"210 333 OFFCURVE",
"210 293 CURVE SMOOTH"
);
}
);
width = 479;
},
{
hints = (
{
place = "{113, 254}";
},
{
horizontal = 1;
place = "{174, 254}";
}
);
layerId = UUID1;
paths = (
{
closed = 1;
nodes = (
"116 289 LINE SMOOTH",
"116 205 OFFCURVE",
"177 142 OFFCURVE",
"261 142 CURVE SMOOTH",
"360 142 OFFCURVE",
"449 222 OFFCURVE",
"449 323 CURVE SMOOTH",
"449 406 OFFCURVE",
"387 473 OFFCURVE",
"302 473 CURVE SMOOTH",
"204 473 OFFCURVE",
"116 389 OFFCURVE",
"116 289 CURVE SMOOTH"
);
}
);
width = 488;
}
);
unicode = 2022;
},
{
glyphname = colon;
lastChange = "2016-08-26 20:41:54 +0000";
layers = (
{
hints = (
{
place = "{65, 40}";
},
{
horizontal = 1;
place = "{0, 21}";
target = up;
type = BottomGhost;
},
{
horizontal = 1;
place = "{290, -20}";
target = down;
type = TopGhost;
}
);
layerId = UUID0;
paths = (
{
closed = 1;
nodes = (
"67 18 LINE SMOOTH",
"67 8 OFFCURVE",
"75 0 OFFCURVE",
"85 0 CURVE SMOOTH",
"97 0 OFFCURVE",
"108 10 OFFCURVE",
"108 22 CURVE SMOOTH",
"108 32 OFFCURVE",
"100 40 OFFCURVE",
"90 40 CURVE SMOOTH",
"78 40 OFFCURVE",
"67 30 OFFCURVE",
"67 18 CURVE SMOOTH"
);
},
{
closed = 1;
nodes = (
"98 268 LINE SMOOTH",
"98 258 OFFCURVE",
"106 250 OFFCURVE",
"116 250 CURVE SMOOTH",
"128 250 OFFCURVE",
"138 260 OFFCURVE",
"138 272 CURVE SMOOTH",
"138 282 OFFCURVE",
"131 290 OFFCURVE",
"121 290 CURVE SMOOTH",
"109 290 OFFCURVE",
"98 280 OFFCURVE",
"98 268 CURVE SMOOTH"
);
}
);
width = 175;
},
{
hints = (
{
place = "{33, 103}";
},
{
horizontal = 1;
place = "{0, 21}";
target = up;
type = BottomGhost;
},
{
horizontal = 1;
place = "{355, -20}";
target = down;
type = TopGhost;
}
);
layerId = UUID1;
paths = (
{
closed = 1;
nodes = (
"23 64 LINE SMOOTH",
"23 25 OFFCURVE",
"54 0 OFFCURVE",
"87 0 CURVE SMOOTH",
"122 0 OFFCURVE",
"166 31 OFFCURVE",
"166 79 CURVE SMOOTH",
"166 116 OFFCURVE",
"136 145 OFFCURVE",
"105 145 CURVE SMOOTH",
"66 145 OFFCURVE",
"23 110 OFFCURVE",
"23 64 CURVE SMOOTH"
);
},
{
closed = 1;
nodes = (
"58 349 LINE SMOOTH",
"58 310 OFFCURVE",
"89 285 OFFCURVE",
"122 285 CURVE SMOOTH",
"157 285 OFFCURVE",
"201 316 OFFCURVE",
"201 364 CURVE SMOOTH",
"201 401 OFFCURVE",
"171 430 OFFCURVE",
"140 430 CURVE SMOOTH",
"101 430 OFFCURVE",
"58 395 OFFCURVE",
"58 349 CURVE SMOOTH"
);
}
);
width = 179;
}
);
unicode = 003A;
},
{
glyphname = comma;
lastChange = "2016-12-12 20:49:13 +0000";
layers = (
{
hints = (
{
horizontal = 1;
place = "{86, -20}";
target = down;
type = TopGhost;
},
{
horizontal = 1;
place = "{-120, 21}";
target = up;
type = BottomGhost;
}
);
layerId = UUID0;
paths = (
{
closed = 1;
nodes = (
"73 -155 OFFCURVE",
"88 -100 OFFCURVE",
"89 -48 CURVE",
"72 -47 LINE",
"72 -104 OFFCURVE",
"52 -148 OFFCURVE",
"11 -172 CURVE",
"17 -180 LINE"
);
}
);
width = 200;
},
{
hints = (
{
horizontal = 1;
place = "{86, -20}";
target = down;
type = TopGhost;
},
{
horizontal = 1;
place = "{-120, 21}";
target = up;
type = BottomGhost;
}
);
layerId = UUID1;
paths = (
{
closed = 1;
nodes = (
"111 -175 OFFCURVE",
"147 -87 OFFCURVE",
"136 -30 CURVE",
"14 -29 LINE",
"23 -76 OFFCURVE",
"9 -138 OFFCURVE",
"-20 -166 CURVE",
"52 -214 LINE"
);
}
);
width = 205;
}
);
unicode = 002C;
},
{
glyphname = ellipsis;
lastChange = "2016-08-26 20:41:54 +0000";
layers = (
{
hints = (
{
horizontal = 1;
place = "{0, 21}";
target = up;
type = BottomGhost;
},
{
horizontal = 1;
place = "{40, -20}";
target = down;
type = TopGhost;
},
{
horizontal = 1;
place = "{0, 21}";
target = up;
type = BottomGhost;
},
{
horizontal = 1;
place = "{40, -20}";
target = down;
type = TopGhost;
},
{
horizontal = 1;
place = "{0, 21}";
target = up;
type = BottomGhost;
},
{
horizontal = 1;
place = "{40, -20}";
target = down;
type = TopGhost;
}
);
layerId = UUID0;
paths = (
{
closed = 1;
nodes = (
"68 18 LINE SMOOTH",
"68 8 OFFCURVE",
"76 0 OFFCURVE",
"86 0 CURVE SMOOTH",
"98 0 OFFCURVE",
"109 10 OFFCURVE",
"109 22 CURVE SMOOTH",
"109 32 OFFCURVE",
"101 40 OFFCURVE",
"91 40 CURVE SMOOTH",
"79 40 OFFCURVE",
"68 30 OFFCURVE",
"68 18 CURVE SMOOTH"
);
},
{
closed = 1;
nodes = (
"231 18 LINE SMOOTH",
"231 8 OFFCURVE",
"239 0 OFFCURVE",
"249 0 CURVE SMOOTH",
"261 0 OFFCURVE",
"272 10 OFFCURVE",
"272 22 CURVE SMOOTH",
"272 32 OFFCURVE",
"264 40 OFFCURVE",
"254 40 CURVE SMOOTH",
"242 40 OFFCURVE",
"231 30 OFFCURVE",
"231 18 CURVE SMOOTH"
);
},
{
closed = 1;
nodes = (
"394 18 LINE SMOOTH",
"394 8 OFFCURVE",
"402 0 OFFCURVE",
"412 0 CURVE SMOOTH",
"424 0 OFFCURVE",
"435 10 OFFCURVE",
"435 22 CURVE SMOOTH",
"435 32 OFFCURVE",
"427 40 OFFCURVE",
"417 40 CURVE SMOOTH",
"405 40 OFFCURVE",
"394 30 OFFCURVE",
"394 18 CURVE SMOOTH"
);
}
);
width = 489;
},
{
hints = (
{
horizontal = 1;
place = "{0, 21}";
target = up;
type = BottomGhost;
},
{
horizontal = 1;
place = "{105, -20}";
target = down;
type = TopGhost;
},
{
horizontal = 1;
place = "{0, 21}";
target = up;
type = BottomGhost;
},
{
horizontal = 1;
place = "{105, -20}";
target = down;
type = TopGhost;
},
{
horizontal = 1;
place = "{0, 21}";
target = up;
type = BottomGhost;
},
{
horizontal = 1;
place = "{105, -20}";
target = down;
type = TopGhost;
}
);
layerId = UUID1;
paths = (
{
closed = 1;
nodes = (
"23 64 LINE SMOOTH",
"23 25 OFFCURVE",
"54 0 OFFCURVE",
"87 0 CURVE SMOOTH",
"122 0 OFFCURVE",
"166 31 OFFCURVE",
"166 79 CURVE SMOOTH",
"166 116 OFFCURVE",
"136 145 OFFCURVE",
"105 145 CURVE SMOOTH",
"66 145 OFFCURVE",
"23 110 OFFCURVE",
"23 64 CURVE SMOOTH"
);
},
{
closed = 1;
nodes = (
"190 64 LINE SMOOTH",
"190 25 OFFCURVE",
"221 0 OFFCURVE",
"254 0 CURVE SMOOTH",
"289 0 OFFCURVE",
"333 31 OFFCURVE",
"333 79 CURVE SMOOTH",
"333 116 OFFCURVE",
"303 145 OFFCURVE",
"272 145 CURVE SMOOTH",
"233 145 OFFCURVE",
"190 110 OFFCURVE",
"190 64 CURVE SMOOTH"
);
},
{
closed = 1;
nodes = (
"357 64 LINE SMOOTH",
"357 25 OFFCURVE",
"388 0 OFFCURVE",
"421 0 CURVE SMOOTH",
"456 0 OFFCURVE",
"500 31 OFFCURVE",
"500 79 CURVE SMOOTH",
"500 116 OFFCURVE",
"470 145 OFFCURVE",
"439 145 CURVE SMOOTH",
"400 145 OFFCURVE",
"357 110 OFFCURVE",
"357 64 CURVE SMOOTH"
);
}
);
width = 501;
}
);
unicode = 2026;
},
{
glyphname = exclam;
lastChange = "2016-12-12 22:21:16 +0000";
layers = (
{
hints = (
{
horizontal = 1;
place = "{750, -20}";
target = down;
type = TopGhost;
},
{
horizontal = 1;
place = "{36, 21}";
target = up;
type = BottomGhost;
}
);
layerId = UUID0;
paths = (
{
closed = 1;
nodes = (
"65 65 LINE",
"64 56 LINE",
"63 48 LINE",
"74 36 LINE",
"81 36 LINE",
"81 36 LINE",
"89 36 LINE",
"102 48 LINE",
"103 56 LINE",
"104 65 LINE",
"93 76 LINE",
"85 76 LINE",
"78 76 LINE"
);
},
{
closed = 1;
nodes = (
"89 166 LINE",
"103 166 LINE",
"175 750 LINE",
"161 750 LINE"
);
}
);
width = 199;
},
{
hints = (
{
horizontal = 1;
place = "{750, -20}";
target = down;
type = TopGhost;
},
{
horizontal = 1;
place = "{0, 21}";
target = up;
type = BottomGhost;
}
);
layerId = UUID1;
paths = (
{
closed = 1;
nodes = (
"42 199 LINE",
"167 199 LINE",
"237 765 LINE",
"112 765 LINE"
);
},
{
closed = 1;
nodes = (
"122 -17 OFFCURVE",
"157 9 OFFCURVE",
"162 52 CURVE",
"167 93 OFFCURVE",
"139 127 OFFCURVE",
"92 130 CURVE",
"45 133 OFFCURVE",
"6 103 OFFCURVE",
"1 62 CURVE",
"-4 19 OFFCURVE",
"26 -11 OFFCURVE",
"74 -14 CURVE"
);
}
);
width = 202;
}
);
unicode = 0021;
},
{
glyphname = numbersign;
lastChange = "2016-08-26 20:41:54 +0000";
layers = (
{
hints = (
{
horizontal = 1;
place = "{225, 196}";
},
{
horizontal = 1;
place = "{0, 21}";
target = up;
type = BottomGhost;
},
{
horizontal = 1;
place = "{643, -20}";
target = down;
type = TopGhost;
}
);
layerId = UUID0;
paths = (
{
closed = 1;
nodes = (
"276 643 LINE",
"258 569 OFFCURVE",
"240 495 OFFCURVE",
"222 421 CURVE",
"105 421 LINE",
"104 416 OFFCURVE",
"103 412 OFFCURVE",
"102 407 CURVE",
"218 407 LINE",
"204 351 OFFCURVE",
"192 295 OFFCURVE",
"178 239 CURVE",
"60 239 LINE",
"59 234 OFFCURVE",
"58 230 OFFCURVE",
"57 225 CURVE",
"174 225 LINE",
"156 150 OFFCURVE",
"139 75 OFFCURVE",
"120 0 CURVE",
"134 0 LINE",
"153 75 OFFCURVE",
"170 150 OFFCURVE",
"188 225 CURVE",
"358 225 LINE",
"340 150 OFFCURVE",
"323 75 OFFCURVE",
"304 0 CURVE",
"318 0 LINE",
"337 75 OFFCURVE",
"354 150 OFFCURVE",
"372 225 CURVE",
"508 225 LINE",
"509 230 OFFCURVE",
"510 234 OFFCURVE",
"511 239 CURVE",
"376 239 LINE",
"390 295 OFFCURVE",
"402 351 OFFCURVE",
"416 407 CURVE",
"553 407 LINE",
"554 412 OFFCURVE",
"555 416 OFFCURVE",
"556 421 CURVE",
"420 421 LINE",
"438 495 OFFCURVE",
"456 569 OFFCURVE",
"474 643 CURVE",
"460 643 LINE",
"442 569 OFFCURVE",
"424 495 OFFCURVE",
"406 421 CURVE",
"236 421 LINE",
"254 495 OFFCURVE",
"272 569 OFFCURVE",
"290 643 CURVE"
);
},
{
closed = 1;
nodes = (
"402 407 LINE",
"388 351 OFFCURVE",
"376 295 OFFCURVE",
"362 239 CURVE",
"192 239 LINE",
"206 295 OFFCURVE",
"218 351 OFFCURVE",
"232 407 CURVE"
);
}
);
width = 571;
},
{
hints = (
{
horizontal = 1;
place = "{188, 264}";
},
{
horizontal = 1;
place = "{0, 21}";
target = up;
type = BottomGhost;
},
{
horizontal = 1;
place = "{643, -20}";
target = down;
type = TopGhost;
}
);
layerId = UUID1;
paths = (
{
closed = 1;
nodes = (
"242 656 LINE",
"226 596 OFFCURVE",
"212 539 OFFCURVE",
"197 479 CURVE",
"118 479 LINE",
"108 439 OFFCURVE",
"100 398 OFFCURVE",
"90 358 CURVE",
"169 358 LINE",
"163 336 OFFCURVE",
"159 314 OFFCURVE",
"153 292 CURVE",
"74 292 LINE",
"65 251 OFFCURVE",
"54 211 OFFCURVE",
"44 170 CURVE",
"123 170 LINE",
"110 113 OFFCURVE",
"95 57 OFFCURVE",
"82 0 CURVE",
"209 0 LINE",
"221 57 OFFCURVE",
"237 113 OFFCURVE",
"250 170 CURVE",
"311 170 LINE",
"298 113 OFFCURVE",
"283 57 OFFCURVE",
"270 0 CURVE",
"396 0 LINE",
"409 57 OFFCURVE",
"424 113 OFFCURVE",
"437 170 CURVE",
"522 170 LINE",
"531 211 OFFCURVE",
"542 251 OFFCURVE",
"552 292 CURVE",
"467 292 LINE",
"472 314 OFFCURVE",
"477 336 OFFCURVE",
"483 358 CURVE",
"568 358 LINE",
"578 398 OFFCURVE",
"586 439 OFFCURVE",
"595 479 CURVE",
"511 479 LINE",
"526 539 OFFCURVE",
"540 596 OFFCURVE",
"556 656 CURVE",
"429 656 LINE",
"414 596 OFFCURVE",
"399 539 OFFCURVE",
"385 479 CURVE",
"323 479 LINE",
"338 539 OFFCURVE",
"352 596 OFFCURVE",
"368 656 CURVE"
);
},
{
closed = 1;
nodes = (
"356 358 LINE",
"351 336 OFFCURVE",
"346 314 OFFCURVE",
"341 292 CURVE",
"279 292 LINE",
"285 314 OFFCURVE",
"290 336 OFFCURVE",
"295 358 CURVE"
);
}
);
width = 582;
}
);
unicode = 0023;
},
{
glyphname = period;
lastChange = "2016-08-26 20:41:54 +0000";
layers = (
{
hints = (
{
horizontal = 1;
place = "{0, 21}";
target = up;
type = BottomGhost;
},
{
horizontal = 1;
place = "{40, -20}";
target = down;
type = TopGhost;
}
);
layerId = UUID0;
paths = (
{
closed = 1;
nodes = (
"68 18 LINE SMOOTH",
"68 8 OFFCURVE",
"76 0 OFFCURVE",
"86 0 CURVE SMOOTH",
"98 0 OFFCURVE",
"109 10 OFFCURVE",
"109 22 CURVE SMOOTH",
"109 32 OFFCURVE",
"101 40 OFFCURVE",
"91 40 CURVE SMOOTH",
"79 40 OFFCURVE",
"68 30 OFFCURVE",
"68 18 CURVE SMOOTH"
);
}
);
width = 163;
},
{
hints = (
{
horizontal = 1;
place = "{0, 21}";
target = up;
type = BottomGhost;
},
{
horizontal = 1;
place = "{105, -20}";
target = down;
type = TopGhost;
}
);
layerId = UUID1;
paths = (
{
closed = 1;
nodes = (
"23 64 LINE SMOOTH",
"23 25 OFFCURVE",
"54 0 OFFCURVE",
"87 0 CURVE SMOOTH",
"122 0 OFFCURVE",
"166 31 OFFCURVE",
"166 79 CURVE SMOOTH",
"166 116 OFFCURVE",
"136 145 OFFCURVE",
"105 145 CURVE SMOOTH",
"66 145 OFFCURVE",
"23 110 OFFCURVE",
"23 64 CURVE SMOOTH"
);
}
);
width = 167;
}
);
unicode = 002E;
},
{
glyphname = question;
lastChange = "2016-12-12 22:21:41 +0000";
layers = (
{
hints = (
{
horizontal = 1;
place = "{25, 21}";
target = up;
type = BottomGhost;
},
{
horizontal = 1;
place = "{732, -20}";
target = down;
type = TopGhost;
}
);
layerId = UUID0;
paths = (
{
closed = 1;
nodes = (
"228 164 LINE",
"242 164 LINE",
"252 242 LINE SMOOTH",
"263 330 OFFCURVE",
"303 332 OFFCURVE",
"360 370 CURVE SMOOTH",
"433 418 OFFCURVE",
"479 476 OFFCURVE",
"479 557 CURVE SMOOTH",
"479 654 OFFCURVE",
"408 732 OFFCURVE",
"306 732 CURVE SMOOTH",
"220 732 OFFCURVE",
"140 676 OFFCURVE",
"105 599 CURVE",
"108 598 OFFCURVE",
"113 597 OFFCURVE",
"117 596 CURVE",
"117 596 LINE",
"149 669 OFFCURVE",
"225 718 OFFCURVE",
"304 718 CURVE SMOOTH",
"398 718 OFFCURVE",
"465 650 OFFCURVE",
"465 557 CURVE SMOOTH",
"465 500 OFFCURVE",
"442 450 OFFCURVE",
"389 408 CURVE SMOOTH",
"317 351 OFFCURVE",
"250 343 OFFCURVE",
"240 261 CURVE SMOOTH"
);
},
{
closed = 1;
nodes = (
"218 25 LINE SMOOTH",
"229 25 OFFCURVE",
"241 35 OFFCURVE",
"241 47 CURVE SMOOTH",
"241 58 OFFCURVE",
"232 65 OFFCURVE",
"223 65 CURVE SMOOTH",
"213 65 OFFCURVE",
"201 56 OFFCURVE",
"201 43 CURVE SMOOTH",
"201 33 OFFCURVE",
"210 25 OFFCURVE",
"218 25 CURVE SMOOTH"
);
}
);
width = 452;
},
{
hints = (
{
horizontal = 1;
place = "{0, 21}";
target = up;
type = BottomGhost;
},
{
horizontal = 1;
place = "{732, -20}";
target = down;
type = TopGhost;
}
);
layerId = UUID1;
paths = (
{
closed = 1;
nodes = (
"97 167 LINE",
"222 167 LINE",
"232 247 LINE SMOOTH",
"240 309 OFFCURVE",
"309 346 OFFCURVE",
"341 368 CURVE SMOOTH",
"418 421 OFFCURVE",
"465 482 OFFCURVE",
"465 568 CURVE SMOOTH",
"465 667 OFFCURVE",
"391 747 OFFCURVE",
"288 747 CURVE SMOOTH",
"120 747 OFFCURVE",
"75 627 OFFCURVE",
"54 579 CURVE",
"88 565 OFFCURVE",
"124 551 OFFCURVE",
"158 538 CURVE",
"158 538 LINE",
"184 599 OFFCURVE",
"200 625 OFFCURVE",
"273 625 CURVE SMOOTH",
"314 625 OFFCURVE",
"336 596 OFFCURVE",
"336 558 CURVE SMOOTH",
"336 506 OFFCURVE",
"304 460 OFFCURVE",
"241 417 CURVE SMOOTH",
"176 373 OFFCURVE",
"120 355 OFFCURVE",
"109 266 CURVE SMOOTH"
);
},
{
closed = 1;
nodes = (
"135 -14 LINE SMOOTH",
"172 -14 OFFCURVE",
"214 17 OFFCURVE",
"214 64 CURVE SMOOTH",
"214 101 OFFCURVE",
"184 130 OFFCURVE",
"153 130 CURVE SMOOTH",
"114 130 OFFCURVE",
"71 95 OFFCURVE",
"71 50 CURVE SMOOTH",
"71 11 OFFCURVE",
"102 -14 OFFCURVE",
"135 -14 CURVE SMOOTH"
);
}
);
width = 444;
}
);
unicode = 003F;
},
{
glyphname = quotedbl;
lastChange = "2016-08-26 20:41:54 +0000";
layers = (
{
hints = (
{
place = "{63, 151}";
},
{
horizontal = 1;
place = "{472, 21}";
target = up;
type = BottomGhost;
},
{
horizontal = 1;
place = "{720, -20}";
target = down;
type = TopGhost;
}
);
layerId = UUID0;
paths = (
{
closed = 1;
nodes = (
"151 720 LINE",
"121 472 LINE",
"135 472 LINE",
"146 555 OFFCURVE",
"158 637 OFFCURVE",
"169 720 CURVE"
);
},
{
closed = 1;
nodes = (
"284 720 LINE",
"254 472 LINE",
"268 472 LINE",
"279 555 OFFCURVE",
"291 637 OFFCURVE",
"302 720 CURVE"
);
}
);
width = 293;
},
{
hints = (
{
place = "{63, 216}";
},
{
horizontal = 1;
place = "{472, 21}";
target = up;
type = BottomGhost;
},
{
horizontal = 1;
place = "{720, -20}";
target = down;
type = TopGhost;
}
);
layerId = UUID1;
paths = (
{
closed = 1;
nodes = (
"154 734 LINE",
"123 481 LINE",
"241 481 LINE",
"252 566 OFFCURVE",
"265 650 OFFCURVE",
"276 734 CURVE"
);
},
{
closed = 1;
nodes = (
"290 734 LINE",
"259 481 LINE",
"377 481 LINE",
"388 566 OFFCURVE",
"401 650 OFFCURVE",
"412 734 CURVE"
);
}
);
width = 366;
}
);
unicode = 0022;
},
{
glyphname = quotesingle;
lastChange = "2016-08-26 20:41:54 +0000";
layers = (
{
hints = (
{
horizontal = 1;
place = "{472, 21}";
target = up;
type = BottomGhost;
},
{
horizontal = 1;
place = "{720, -20}";
target = down;
type = TopGhost;
}
);
layerId = UUID0;
paths = (
{
closed = 1;
nodes = (
"155 720 LINE",
"125 472 LINE",
"139 472 LINE",
"150 555 OFFCURVE",
"162 637 OFFCURVE",
"173 720 CURVE"
);
}
);
width = 147;
},
{
hints = (
{
horizontal = 1;
place = "{472, 21}";
target = up;
type = BottomGhost;
},
{
horizontal = 1;
place = "{720, -20}";
target = down;
type = TopGhost;
}
);
layerId = UUID1;
paths = (
{
closed = 1;
nodes = (
"118 734 LINE",
"87 481 LINE",
"207 481 LINE",
"218 566 OFFCURVE",
"231 650 OFFCURVE",
"242 734 CURVE"
);
}
);
width = 175;
}
);
unicode = 0027;
},
{
glyphname = semicolon;
lastChange = "2016-08-26 20:41:54 +0000";
layers = (
{
hints = (
{
horizontal = 1;
place = "{-120, 21}";
target = up;
type = BottomGhost;
},
{
horizontal = 1;
place = "{290, -20}";
target = down;
type = TopGhost;
}
);
layerId = UUID0;
paths = (
{
closed = 1;
nodes = (
"121 268 LINE SMOOTH",
"121 258 OFFCURVE",
"128 250 OFFCURVE",
"138 250 CURVE SMOOTH",
"150 250 OFFCURVE",
"161 260 OFFCURVE",
"161 272 CURVE SMOOTH",
"161 282 OFFCURVE",
"153 290 OFFCURVE",
"143 290 CURVE SMOOTH",
"131 290 OFFCURVE",
"121 280 OFFCURVE",
"121 268 CURVE SMOOTH"
);
},
{
closed = 1;
nodes = (
"99 86 LINE",
"65 17 OFFCURVE",
"31 -51 OFFCURVE",
"-3 -120 CURVE",
"11 -120 LINE",
"48 -51 OFFCURVE",
"85 17 OFFCURVE",
"122 86 CURVE"
);
}
);
width = 201;
},
{
hints = (
{
horizontal = 1;
place = "{-120, 21}";
target = up;
type = BottomGhost;
},
{
horizontal = 1;
place = "{355, -20}";
target = down;
type = TopGhost;
}
);
layerId = UUID1;
paths = (
{
closed = 1;
nodes = (
"92 319 LINE SMOOTH",
"92 280 OFFCURVE",
"122 255 OFFCURVE",
"154 255 CURVE SMOOTH",
"191 255 OFFCURVE",
"234 286 OFFCURVE",
"234 334 CURVE SMOOTH",
"234 371 OFFCURVE",
"204 400 OFFCURVE",
"172 400 CURVE SMOOTH",
"135 400 OFFCURVE",
"92 365 OFFCURVE",
"92 319 CURVE SMOOTH"
);
},
{
closed = 1;
nodes = (
"64 88 LINE",
"28 17 OFFCURVE",
"-5 -52 OFFCURVE",
"-41 -122 CURVE",
"71 -122 LINE",
"109 -52 OFFCURVE",
"146 17 OFFCURVE",
"185 88 CURVE"
);
}
);
width = 205;
}
);
unicode = 003B;
},
{
glyphname = slash;
lastChange = "2016-08-26 20:41:54 +0000";
layers = (
{
hints = (
{
horizontal = 1;
place = "{-19, 21}";
target = up;
type = BottomGhost;
},
{
horizontal = 1;
place = "{736, -20}";
target = down;
type = TopGhost;
}
);
layerId = UUID0;
paths = (
{
closed = 1;
nodes = (
"386 736 LINE",
"262 484 OFFCURVE",
"139 233 OFFCURVE",
"15 -19 CURVE",
"29 -19 LINE",
"153 233 OFFCURVE",
"276 484 OFFCURVE",
"400 736 CURVE"
);
}
);
width = 322;
},
{
hints = (
{
horizontal = 1;
place = "{-19, 21}";
target = up;
type = BottomGhost;
},
{
horizontal = 1;
place = "{736, -20}";
target = down;
type = TopGhost;
}
);
layerId = UUID1;
paths = (
{
closed = 1;
nodes = (
"394 751 LINE",
"267 494 OFFCURVE",
"142 238 OFFCURVE",
"15 -19 CURVE",
"141 -19 LINE",
"268 238 OFFCURVE",
"393 494 OFFCURVE",
"520 751 CURVE"
);
}
);
width = 421;
}
);
unicode = 002F;
},
{
glyphname = underscore;
lastChange = "2016-08-26 20:41:54 +0000";
layers = (
{
hints = (
{
horizontal = 1;
place = "{14, -20}";
target = down;
type = TopGhost;
},
{
horizontal = 1;
place = "{0, 21}";
target = up;
type = BottomGhost;
}
);
layerId = UUID0;
paths = (
{
closed = 1;
nodes = (
"100 0 LINE",
"500 0 LINE",
"502 14 LINE",
"102 14 LINE"
);
}
);
width = 600;
},
{
hints = (
{
horizontal = 1;
place = "{81, -20}";
target = down;
type = TopGhost;
},
{
horizontal = 1;
place = "{0, 21}";
target = up;
type = BottomGhost;
}
);
layerId = UUID1;
paths = (
{
closed = 1;
nodes = (
"102 0 LINE",
"510 0 LINE",
"525 121 LINE",
"117 121 LINE"
);
}
);
width = 612;
}
);
unicode = 005F;
},
{
glyphname = braceleft;
lastChange = "2016-12-12 22:17:33 +0000";
layers = (
{
hints = (
{
horizontal = 1;
place = "{287, 24}";
}
);
layerId = UUID0;
paths = (
{
closed = 1;
nodes = (
"322 732 LINE",
"324 746 LINE",
"287 746 LINE SMOOTH",
"244 746 OFFCURVE",
"201 749 OFFCURVE",
"186 628 CURVE SMOOTH",
"164 446 LINE SMOOTH",
"157 392 OFFCURVE",
"134 314 OFFCURVE",
"68 311 CURVE",
"65 287 LINE",
"65 287 LINE",
"130 284 OFFCURVE",
"135 206 OFFCURVE",
"128 152 CURVE SMOOTH",
"110 6 LINE SMOOTH",
"91 -152 OFFCURVE",
"124 -148 OFFCURVE",
"177 -148 CURVE SMOOTH",
"214 -148 LINE",
"216 -134 LINE",
"159 -134 LINE SMOOTH",
"118 -134 OFFCURVE",
"110 -102 OFFCURVE",
"120 -22 CURVE SMOOTH",
"139 128 LINE SMOOTH",
"154 251 OFFCURVE",
"126 279 OFFCURVE",
"94 299 CURVE",
"131 318 OFFCURVE",
"166 345 OFFCURVE",
"181 470 CURVE SMOOTH",
"199 620 LINE SMOOTH",
"209 700 OFFCURVE",
"224 732 OFFCURVE",
"265 732 CURVE SMOOTH"
);
}
);
width = 272;
},
{
hints = (
{
horizontal = 1;
place = "{256, 81}";
}
);
layerId = UUID1;
paths = (
{
closed = 1;
nodes = (
"385 639 LINE",
"400 761 LINE",
"321 761 LINE SMOOTH",
"243 761 OFFCURVE",
"184 769 OFFCURVE",
"168 641 CURVE SMOOTH",
"150 497 LINE SMOOTH",
"143 441 OFFCURVE",
"118 362 OFFCURVE",
"52 359 CURVE",
"38 243 LINE",
"38 243 LINE",
"103 240 OFFCURVE",
"109 161 OFFCURVE",
"102 105 CURVE SMOOTH",
"82 -53 LINE SMOOTH",
"69 -161 OFFCURVE",
"140 -153 OFFCURVE",
"209 -153 CURVE SMOOTH",
"288 -153 LINE",
"303 -31 LINE",
"266 -31 LINE SMOOTH",
"224 -31 OFFCURVE",
"213 -22 OFFCURVE",
"224 69 CURVE SMOOTH",
"239 188 LINE SMOOTH",
"246 243 OFFCURVE",
"207 289 OFFCURVE",
"188 303 CURVE",
"211 320 OFFCURVE",
"261 362 OFFCURVE",
"268 420 CURVE SMOOTH",
"282 540 LINE SMOOTH",
"293 631 OFFCURVE",
"306 639 OFFCURVE",
"348 639 CURVE SMOOTH"
);
}
);
width = 384;
}
);
unicode = 007B;
},
{
glyphname = braceright;
lastChange = "2016-12-12 22:18:26 +0000";
layers = (
{
hints = (
{
horizontal = 1;
place = "{287, 24}";
}
);
layerId = UUID0;
paths = (
{
closed = 1;
nodes = (
"72 -134 LINE",
"70 -148 LINE",
"107 -148 LINE SMOOTH",
"150 -148 OFFCURVE",
"192 -153 OFFCURVE",
"207 -30 CURVE SMOOTH",
"225 116 LINE SMOOTH",
"231 161 OFFCURVE",
"241 283 OFFCURVE",
"325 287 CURVE",
"328 311 LINE",
"328 311 LINE",
"245 315 OFFCURVE",
"264 436 OFFCURVE",
"270 482 CURVE SMOOTH",
"288 628 LINE SMOOTH",
"303 750 OFFCURVE",
"261 746 OFFCURVE",
"217 746 CURVE SMOOTH",
"180 746 LINE",
"178 732 LINE",
"235 732 LINE SMOOTH",
"276 732 OFFCURVE",
"283 700 OFFCURVE",
"273 620 CURVE SMOOTH",
"255 470 LINE SMOOTH",
"240 345 OFFCURVE",
"267 318 OFFCURVE",
"300 299 CURVE",
"273 285 OFFCURVE",
"228 255 OFFCURVE",
"217 165 CURVE SMOOTH",
"194 -22 LINE SMOOTH",
"184 -102 OFFCURVE",
"170 -134 OFFCURVE",
"129 -134 CURVE SMOOTH"
);
}
);
width = 320;
},
{
hints = (
{
horizontal = 1;
place = "{256, 81}";
}
);
layerId = UUID1;
paths = (
{
closed = 1;
nodes = (
"20 -31 LINE",
"5 -153 LINE",
"84 -153 LINE SMOOTH",
"162 -153 OFFCURVE",
"223 -159 OFFCURVE",
"238 -32 CURVE SMOOTH",
"257 126 LINE SMOOTH",
"264 187 OFFCURVE",
"298 242 OFFCURVE",
"353 243 CURVE",
"367 359 LINE",
"367 359 LINE",
"313 360 OFFCURVE",
"293 416 OFFCURVE",
"300 476 CURVE SMOOTH",
"320 641 LINE SMOOTH",
"336 770 OFFCURVE",
"270 761 OFFCURVE",
"196 761 CURVE SMOOTH",
"117 761 LINE",
"102 639 LINE",
"139 639 LINE SMOOTH",
"181 639 OFFCURVE",
"191 631 OFFCURVE",
"180 540 CURVE SMOOTH",
"165 420 LINE SMOOTH",
"158 362 OFFCURVE",
"198 320 OFFCURVE",
"217 303 CURVE",
"190 286 OFFCURVE",
"144 244 OFFCURVE",
"134 167 CURVE SMOOTH",
"122 69 LINE SMOOTH",
"111 -22 OFFCURVE",
"99 -31 OFFCURVE",
"57 -31 CURVE SMOOTH"
);
}
);
width = 375;
}
);
unicode = 007D;
},
{
glyphname = bracketleft;
lastChange = "2016-12-12 22:18:54 +0000";
layers = (
{
hints = (
{
horizontal = 1;
place = "{-149, 21}";
target = up;
type = BottomGhost;
},
{
horizontal = 1;
place = "{746, -20}";
target = down;
type = TopGhost;
}
);
layerId = UUID0;
paths = (
{
closed = 1;
nodes = (
"65 -149 LINE",
"228 -149 LINE",
"230 -135 LINE",
"83 -135 LINE",
"189 732 LINE",
"336 732 LINE",
"338 746 LINE",
"175 746 LINE"
);
}
);
width = 338;
},
{
hints = (
{
horizontal = 1;
place = "{-149, 21}";
target = up;
type = BottomGhost;
},
{
horizontal = 1;
place = "{746, -20}";
target = down;
type = TopGhost;
}
);
layerId = UUID1;
paths = (
{
closed = 1;
nodes = (
"46 -152 LINE",
"259 -152 LINE",
"274 -31 LINE",
"185 -31 LINE",
"267 639 LINE",
"356 639 LINE",
"371 761 LINE",
"158 761 LINE"
);
}
);
width = 350;
}
);
leftMetricsKey = H;
unicode = 005B;
},
{
glyphname = bracketright;
lastChange = "2016-12-12 22:18:59 +0000";
layers = (
{
hints = (
{
horizontal = 1;
place = "{746, -20}";
target = down;
type = TopGhost;
},
{
horizontal = 1;
place = "{-149, 21}";
target = up;
type = BottomGhost;
}
);
layerId = UUID0;
paths = (
{
closed = 1;
nodes = (
"178 732 LINE",
"325 732 LINE",
"219 -135 LINE",
"72 -135 LINE",
"70 -149 LINE",
"233 -149 LINE",
"343 746 LINE",
"180 746 LINE"
);
}
);
width = 342;
},
{
hints = (
{
horizontal = 1;
place = "{746, -20}";
target = down;
type = TopGhost;
},
{
horizontal = 1;
place = "{-149, 21}";
target = up;
type = BottomGhost;
}
);
layerId = UUID1;
paths = (
{
closed = 1;
nodes = (
"97 639 LINE",
"186 639 LINE",
"104 -31 LINE",
"15 -31 LINE",
"0 -152 LINE",
"213 -152 LINE",
"325 761 LINE",
"112 761 LINE"
);
}
);
width = 357;
}
);
rightMetricsKey = H;
unicode = 005D;
},
{
glyphname = parenleft;
lastChange = "2016-12-12 22:19:19 +0000";
layers = (
{
hints = (
{
horizontal = 1;
place = "{-163, 21}";
target = up;
type = BottomGhost;
},
{
horizontal = 1;
place = "{747, -20}";
target = down;
type = TopGhost;
}
);
layerId = UUID0;
paths = (
{
closed = 1;
nodes = (
"177 218 LINE SMOOTH",
"177 54 OFFCURVE",
"230 -88 OFFCURVE",
"292 -163 CURVE",
"294 -155 OFFCURVE",
"296 -148 OFFCURVE",
"298 -140 CURVE",
"242 -66 OFFCURVE",
"192 67 OFFCURVE",
"192 222 CURVE SMOOTH",
"192 446 OFFCURVE",
"303 623 OFFCURVE",
"404 724 CURVE",
"404 732 OFFCURVE",
"404 739 OFFCURVE",
"404 747 CURVE",
"295 645 OFFCURVE",
"177 453 OFFCURVE",
"177 218 CURVE SMOOTH"
);
}
);
width = 394;
},
{
hints = (
{
horizontal = 1;
place = "{-164, 21}";
target = up;
type = BottomGhost;
},
{
horizontal = 1;
place = "{746, -20}";
target = down;
type = TopGhost;
}
);
layerId = UUID1;
paths = (
{
closed = 1;
nodes = (
"86 305 LINE SMOOTH",
"61 101 OFFCURVE",
"123 -73 OFFCURVE",
"196 -169 CURVE",
"317 -122 LINE",
"251 -28 OFFCURVE",
"209 112 OFFCURVE",
"231 296 CURVE SMOOTH",
"254 479 OFFCURVE",
"329 613 OFFCURVE",
"417 698 CURVE",
"310 758 LINE",
"214 673 OFFCURVE",
"111 508 OFFCURVE",
"86 305 CURVE SMOOTH"
);
}
);
width = 409;
}
);
unicode = 0028;
},
{
glyphname = parenright;
lastChange = "2016-12-12 22:19:34 +0000";
layers = (
{
hints = (
{
horizontal = 1;
place = "{747, -20}";
target = down;
type = TopGhost;
},
{
horizontal = 1;
place = "{-163, 21}";
target = up;
type = BottomGhost;
}
);
layerId = UUID0;
paths = (
{
closed = 1;
nodes = (
"321 366 LINE SMOOTH",
"321 530 OFFCURVE",
"268 672 OFFCURVE",
"206 747 CURVE",
"204 739 OFFCURVE",
"202 732 OFFCURVE",
"200 724 CURVE",
"256 650 OFFCURVE",
"306 517 OFFCURVE",
"306 362 CURVE SMOOTH",
"306 138 OFFCURVE",
"195 -39 OFFCURVE",
"94 -140 CURVE",
"94 -148 OFFCURVE",
"94 -155 OFFCURVE",
"94 -163 CURVE",
"203 -61 OFFCURVE",
"321 131 OFFCURVE",
"321 366 CURVE SMOOTH"
);
}
);
width = 400;
},
{
hints = (
{
horizontal = 1;
place = "{743, -20}";
target = down;
type = TopGhost;
},
{
horizontal = 1;
place = "{-167, 21}";
target = up;
type = BottomGhost;
}
);
layerId = UUID1;
paths = (
{
closed = 1;
nodes = (
"342 287 LINE SMOOTH",
"367 491 OFFCURVE",
"305 665 OFFCURVE",
"232 761 CURVE",
"111 714 LINE",
"177 620 OFFCURVE",
"219 480 OFFCURVE",
"197 296 CURVE SMOOTH",
"174 113 OFFCURVE",
"99 -21 OFFCURVE",
"11 -106 CURVE",
"118 -166 LINE",
"214 -81 OFFCURVE",
"317 84 OFFCURVE",
"342 287 CURVE SMOOTH"
);
}
);
width = 409;
}
);
unicode = 0029;
},
{
glyphname = emdash;
lastChange = "2016-08-26 20:41:54 +0000";
layers = (
{
hints = (
{
horizontal = 1;
place = "{179, 21}";
target = up;
type = BottomGhost;
},
{
horizontal = 1;
place = "{193, -20}";
target = down;
type = TopGhost;
}
);
layerId = UUID0;
paths = (
{
closed = 1;
nodes = (
"121 179 LINE",
"623 179 LINE",
"625 193 LINE",
"123 193 LINE"
);
}
);
width = 700;
},
{
hints = (
{
horizontal = 1;
place = "{174, 21}";
target = up;
type = BottomGhost;
},
{
horizontal = 1;
place = "{255, -20}";
target = down;
type = TopGhost;
}
);
layerId = UUID1;
paths = (
{
closed = 1;
nodes = (
"121 165 LINE",
"633 165 LINE",
"648 286 LINE",
"136 286 LINE"
);
}
);
width = 714;
}
);
unicode = 2014;
},
{
glyphname = endash;
lastChange = "2016-08-26 20:41:54 +0000";
layers = (
{
hints = (
{
horizontal = 1;
place = "{179, 21}";
target = up;
type = BottomGhost;
},
{
horizontal = 1;
place = "{193, -20}";
target = down;
type = TopGhost;
}
);
layerId = UUID0;
paths = (
{
closed = 1;
nodes = (
"122 179 LINE",
"423 179 LINE",
"425 193 LINE",
"124 193 LINE"
);
}
);
width = 509;
},
{
hints = (
{
horizontal = 1;
place = "{174, 21}";
target = up;
type = BottomGhost;
},
{
horizontal = 1;
place = "{255, -20}";
target = down;
type = TopGhost;
}
);
layerId = UUID1;
paths = (
{
closed = 1;
nodes = (
"122 165 LINE",
"429 165 LINE",
"444 286 LINE",
"137 286 LINE"
);
}
);
width = 519;
}
);
unicode = 2013;
},
{
glyphname = hyphen;
lastChange = "2016-08-26 20:41:54 +0000";
layers = (
{
hints = (
{
horizontal = 1;
place = "{184, 21}";
target = up;
type = BottomGhost;
},
{
horizontal = 1;
place = "{198, -20}";
target = down;
type = TopGhost;
}
);
layerId = UUID0;
paths = (
{
closed = 1;
nodes = (
"76 184 LINE",
"260 184 LINE",
"262 198 LINE",
"78 198 LINE"
);
}
);
width = 300;
},
{
hints = (
{
horizontal = 1;
place = "{147, 21}";
target = up;
type = BottomGhost;
},
{
horizontal = 1;
place = "{228, -20}";
target = down;
type = TopGhost;
}
);
layerId = UUID1;
paths = (
{
closed = 1;
nodes = (
"75 168 LINE",
"263 168 LINE",
"278 290 LINE",
"90 290 LINE"
);
}
);
width = 306;
}
);
unicode = 002D;
},
{
glyphname = guillemetleft;
lastChange = "2016-08-26 20:41:54 +0000";
layers = (
{
hints = (
{
horizontal = 1;
place = "{400, -20}";
target = down;
type = TopGhost;
},
{
horizontal = 1;
place = "{77, 21}";
target = up;
type = BottomGhost;
}
);
layerId = UUID0;
paths = (
{
closed = 1;
nodes = (
"297 77 LINE",
"299 93 LINE",
"258 142 OFFCURVE",
"216 190 OFFCURVE",
"175 239 CURVE",
"228 287 OFFCURVE",
"282 335 OFFCURVE",
"335 383 CURVE",
"337 400 LINE",
"273 346 OFFCURVE",
"210 293 OFFCURVE",
"146 239 CURVE"
);
},
{
closed = 1;
nodes = (
"468 77 LINE",
"470 93 LINE",
"429 142 OFFCURVE",
"387 190 OFFCURVE",
"346 239 CURVE",
"399 287 OFFCURVE",
"453 335 OFFCURVE",
"506 383 CURVE",
"508 400 LINE",
"444 346 OFFCURVE",
"381 293 OFFCURVE",
"317 239 CURVE"
);
}
);
width = 601;
},
{
hints = (
{
horizontal = 1;
place = "{400, -20}";
target = down;
type = TopGhost;
},
{
horizontal = 1;
place = "{77, 21}";
target = up;
type = BottomGhost;
}
);
layerId = UUID1;
paths = (
{
closed = 1;
nodes = (
"298 39 LINE",
"315 181 LINE",
"315 181 OFFCURVE",
"282 244 OFFCURVE",
"282 244 CURVE",
"282 244 OFFCURVE",
"331 306 OFFCURVE",
"331 306 CURVE",
"348 448 LINE",
"348 448 OFFCURVE",
"149 244 OFFCURVE",
"149 244 CURVE"
);
},
{
closed = 1;
nodes = (
"473 39 LINE",
"490 181 LINE",
"490 181 OFFCURVE",
"456 244 OFFCURVE",
"456 244 CURVE",
"456 244 OFFCURVE",
"506 307 OFFCURVE",
"506 307 CURVE",
"523 448 LINE",
"523 448 OFFCURVE",
"323 244 OFFCURVE",
"323 244 CURVE"
);
}
);
width = 613;
}
);
unicode = 00AB;
},
{
glyphname = guilsinglleft;
lastChange = "2016-08-26 20:41:54 +0000";
layers = (
{
hints = (
{
horizontal = 1;
place = "{400, -20}";
target = down;
type = TopGhost;
},
{
horizontal = 1;
place = "{77, 21}";
target = up;
type = BottomGhost;
}
);
layerId = UUID0;
paths = (
{
closed = 1;
nodes = (
"297 77 LINE",
"299 93 LINE",
"258 142 OFFCURVE",
"216 190 OFFCURVE",
"175 239 CURVE",
"228 287 OFFCURVE",
"282 335 OFFCURVE",
"335 383 CURVE",
"337 400 LINE",
"273 346 OFFCURVE",
"210 293 OFFCURVE",
"146 239 CURVE"
);
}
);
width = 392;
},
{
hints = (
{
horizontal = 1;
place = "{400, -20}";
target = down;
type = TopGhost;
},
{
horizontal = 1;
place = "{77, 21}";
target = up;
type = BottomGhost;
}
);
layerId = UUID1;
paths = (
{
closed = 1;
nodes = (
"298 39 LINE",
"315 181 LINE",
"315 181 OFFCURVE",
"282 244 OFFCURVE",
"282 244 CURVE",
"282 244 OFFCURVE",
"331 306 OFFCURVE",
"331 306 CURVE",
"348 448 LINE",
"348 448 OFFCURVE",
"149 244 OFFCURVE",
"149 244 CURVE"
);
}
);
width = 399;
}
);
unicode = 2039;
},
